<svg width="150" height="30" viewBox="0 0 150 30" fill="none" xmlns="http://www.w3.org/2000/svg">
<path d="M11.53 8.526C11.986 8.418 12.478 8.346 13.006 8.31C13.534 8.274 14.056 8.256 14.572 8.256C15.124 8.256 15.682 8.31 16.246 8.418C16.822 8.526 17.344 8.724 17.812 9.012C18.28 9.3 18.658 9.696 18.946 10.2C19.246 10.704 19.396 11.346 19.396 12.126C19.396 12.894 19.258 13.542 18.982 14.07C18.706 14.598 18.34 15.03 17.884 15.366C17.428 15.69 16.906 15.924 16.318 16.068C15.73 16.212 15.124 16.284 14.5 16.284C14.44 16.284 14.338 16.284 14.194 16.284C14.062 16.284 13.918 16.284 13.762 16.284C13.618 16.272 13.474 16.26 13.33 16.248C13.186 16.236 13.084 16.224 13.024 16.212V21H11.53V8.526ZM14.608 9.552C14.296 9.552 13.996 9.558 13.708 9.57C13.42 9.582 13.192 9.612 13.024 9.66V14.88C13.084 14.904 13.18 14.922 13.312 14.934C13.444 14.934 13.582 14.94 13.726 14.952C13.87 14.952 14.008 14.952 14.14 14.952C14.272 14.952 14.368 14.952 14.428 14.952C14.836 14.952 15.238 14.916 15.634 14.844C16.042 14.76 16.408 14.616 16.732 14.412C17.056 14.208 17.314 13.92 17.506 13.548C17.71 13.176 17.812 12.702 17.812 12.126C17.812 11.634 17.716 11.226 17.524 10.902C17.344 10.566 17.098 10.302 16.786 10.11C16.486 9.906 16.144 9.762 15.76 9.678C15.376 9.594 14.992 9.552 14.608 9.552ZM29.4394 9.732H25.5154V21H24.0214V9.732H20.0974V8.4H29.4394V9.732ZM41.0539 17.796C41.0539 17.292 40.9039 16.884 40.6039 16.572C40.3039 16.248 39.9259 15.966 39.4699 15.726C39.0259 15.474 38.5399 15.24 38.0119 15.024C37.4839 14.808 36.9919 14.55 36.5359 14.25C36.0919 13.938 35.7199 13.56 35.4199 13.116C35.1199 12.66 34.9699 12.084 34.9699 11.388C34.9699 10.404 35.3119 9.624 35.9959 9.048C36.6799 8.472 37.6519 8.184 38.9119 8.184C39.6439 8.184 40.3099 8.238 40.9099 8.346C41.5099 8.454 41.9779 8.592 42.3139 8.76L41.8639 10.074C41.5879 9.942 41.1799 9.816 40.6399 9.696C40.1119 9.576 39.5119 9.516 38.8399 9.516C38.0479 9.516 37.4539 9.696 37.0579 10.056C36.6619 10.404 36.4639 10.818 36.4639 11.298C36.4639 11.766 36.6139 12.156 36.9139 12.468C37.2139 12.78 37.5859 13.062 38.0299 13.314C38.4859 13.554 38.9779 13.794 39.5059 14.034C40.0339 14.274 40.5199 14.556 40.9639 14.88C41.4199 15.192 41.7979 15.57 42.0979 16.014C42.3979 16.458 42.5479 17.01 42.5479 17.67C42.5479 18.21 42.4519 18.696 42.2599 19.128C42.0679 19.56 41.7859 19.932 41.4139 20.244C41.0419 20.556 40.5919 20.796 40.0639 20.964C39.5359 21.132 38.9359 21.216 38.2639 21.216C37.3639 21.216 36.6199 21.144 36.0319 21C35.4439 20.868 34.9879 20.718 34.6639 20.55L35.1679 19.2C35.4439 19.356 35.8519 19.512 36.3919 19.668C36.9319 19.812 37.5379 19.884 38.2099 19.884C38.6059 19.884 38.9779 19.848 39.3259 19.776C39.6739 19.692 39.9739 19.566 40.2259 19.398C40.4779 19.218 40.6759 18.996 40.8199 18.732C40.9759 18.468 41.0539 18.156 41.0539 17.796ZM44.6404 12.666C45.0964 12.39 45.6244 12.186 46.2244 12.054C46.8364 11.922 47.4724 11.856 48.1324 11.856C48.7564 11.856 49.2544 11.94 49.6264 12.108C50.0104 12.276 50.2984 12.498 50.4904 12.774C50.6944 13.038 50.8264 13.332 50.8864 13.656C50.9584 13.98 50.9944 14.304 50.9944 14.628C50.9944 15.348 50.9764 16.05 50.9404 16.734C50.9044 17.418 50.8864 18.066 50.8864 18.678C50.8864 19.122 50.9044 19.542 50.9404 19.938C50.9764 20.334 51.0424 20.7 51.1384 21.036H50.0764L49.6984 19.776H49.6084C49.5004 19.944 49.3624 20.112 49.1944 20.28C49.0384 20.436 48.8464 20.58 48.6184 20.712C48.3904 20.832 48.1264 20.934 47.8264 21.018C47.5264 21.102 47.1844 21.144 46.8004 21.144C46.4164 21.144 46.0564 21.084 45.7204 20.964C45.3964 20.844 45.1144 20.676 44.8744 20.46C44.6344 20.232 44.4424 19.962 44.2984 19.65C44.1664 19.338 44.1004 18.984 44.1004 18.588C44.1004 18.06 44.2084 17.622 44.4244 17.274C44.6404 16.914 44.9404 16.632 45.3244 16.428C45.7204 16.212 46.1884 16.062 46.7284 15.978C47.2804 15.882 47.8864 15.834 48.5464 15.834C48.7144 15.834 48.8764 15.834 49.0324 15.834C49.2004 15.834 49.3684 15.846 49.5364 15.87C49.5724 15.51 49.5904 15.186 49.5904 14.898C49.5904 14.238 49.4584 13.776 49.1944 13.512C48.9304 13.248 48.4504 13.116 47.7544 13.116C47.5504 13.116 47.3284 13.134 47.0884 13.17C46.8604 13.194 46.6204 13.236 46.3684 13.296C46.1284 13.344 45.8944 13.41 45.6664 13.494C45.4504 13.566 45.2584 13.65 45.0904 13.746L44.6404 12.666ZM47.1964 19.884C47.5324 19.884 47.8324 19.842 48.0964 19.758C48.3604 19.662 48.5884 19.548 48.7804 19.416C48.9724 19.272 49.1284 19.116 49.2484 18.948C49.3804 18.78 49.4764 18.618 49.5364 18.462V16.968C49.3684 16.956 49.1944 16.95 49.0144 16.95C48.8464 16.938 48.6784 16.932 48.5104 16.932C48.1384 16.932 47.7724 16.956 47.4124 17.004C47.0644 17.04 46.7524 17.118 46.4764 17.238C46.2124 17.346 45.9964 17.502 45.8284 17.706C45.6724 17.898 45.5944 18.144 45.5944 18.444C45.5944 18.864 45.7444 19.212 46.0444 19.488C46.3444 19.752 46.7284 19.884 47.1964 19.884ZM59.4921 21V15.87C59.4921 14.934 59.3541 14.232 59.0781 13.764C58.8141 13.284 58.3221 13.044 57.6021 13.044C56.9661 13.044 56.4381 13.218 56.0181 13.566C55.6101 13.902 55.3221 14.328 55.1541 14.844V21H53.7141V12H54.7221L54.9921 13.098H55.0641C55.3521 12.714 55.7361 12.402 56.2161 12.162C56.7081 11.91 57.2901 11.784 57.9621 11.784C58.4541 11.784 58.8861 11.844 59.2581 11.964C59.6301 12.072 59.9361 12.27 60.1761 12.558C60.4281 12.846 60.6141 13.236 60.7341 13.728C60.8661 14.208 60.9321 14.82 60.9321 15.564V21H59.4921ZM67.5179 18.552C67.5179 18.192 67.4099 17.91 67.1939 17.706C66.9779 17.502 66.7079 17.334 66.3839 17.202C66.0719 17.058 65.7239 16.926 65.3399 16.806C64.9679 16.674 64.6199 16.512 64.2959 16.32C63.9839 16.116 63.7199 15.858 63.5039 15.546C63.2879 15.234 63.1799 14.814 63.1799 14.286C63.1799 13.422 63.4259 12.792 63.9179 12.396C64.4099 11.988 65.0939 11.784 65.9699 11.784C66.6179 11.784 67.1579 11.844 67.5899 11.964C68.0339 12.072 68.4179 12.204 68.7419 12.36L68.3999 13.548C68.1239 13.416 67.7879 13.302 67.3919 13.206C67.0079 13.098 66.5939 13.044 66.1499 13.044C65.6219 13.044 65.2319 13.134 64.9799 13.314C64.7399 13.494 64.6199 13.806 64.6199 14.25C64.6199 14.562 64.7279 14.808 64.9439 14.988C65.1599 15.156 65.4239 15.312 65.7359 15.456C66.0599 15.588 66.4079 15.72 66.7799 15.852C67.1639 15.984 67.5119 16.158 67.8239 16.374C68.1479 16.59 68.4179 16.866 68.6339 17.202C68.8499 17.526 68.9579 17.958 68.9579 18.498C68.9579 18.882 68.8919 19.242 68.7599 19.578C68.6399 19.914 68.4479 20.202 68.1839 20.442C67.9199 20.682 67.5899 20.868 67.1939 21C66.8099 21.144 66.3539 21.216 65.8259 21.216C65.1419 21.216 64.5599 21.15 64.0799 21.018C63.5999 20.886 63.1979 20.73 62.8739 20.55L63.3059 19.326C63.5819 19.482 63.9419 19.626 64.3859 19.758C64.8299 19.89 65.2799 19.956 65.7359 19.956C66.2519 19.956 66.6779 19.854 67.0139 19.65C67.3499 19.446 67.5179 19.08 67.5179 18.552Z" fill="#333333"/>
</svg>
