<svg width="150" height="30" viewBox="0 0 150 30" fill="none" xmlns="http://www.w3.org/2000/svg">
<path d="M18.964 20.533V22H11.647V9.103H13.384V20.533H18.964ZM25.4561 17.896C24.7181 17.92 24.0881 17.98 23.5661 18.076C23.0501 18.166 22.6271 18.286 22.2971 18.436C21.9731 18.586 21.7361 18.763 21.5861 18.967C21.4421 19.171 21.3701 19.399 21.3701 19.651C21.3701 19.891 21.4091 20.098 21.4871 20.272C21.5651 20.446 21.6701 20.59 21.8021 20.704C21.9401 20.812 22.0991 20.893 22.2791 20.947C22.4651 20.995 22.6631 21.019 22.8731 21.019C23.1551 21.019 23.4131 20.992 23.6471 20.938C23.8811 20.878 24.1001 20.794 24.3041 20.686C24.5141 20.578 24.7121 20.449 24.8981 20.299C25.0901 20.149 25.2761 19.978 25.4561 19.786V17.896ZM20.2811 14.17C20.7851 13.684 21.3281 13.321 21.9101 13.081C22.4921 12.841 23.1371 12.721 23.8451 12.721C24.3551 12.721 24.8081 12.805 25.2041 12.973C25.6001 13.141 25.9331 13.375 26.2031 13.675C26.4731 13.975 26.6771 14.338 26.8151 14.764C26.9531 15.19 27.0221 15.658 27.0221 16.168V22H26.3111C26.1551 22 26.0351 21.976 25.9511 21.928C25.8671 21.874 25.8011 21.772 25.7531 21.622L25.5731 20.758C25.3331 20.98 25.0991 21.178 24.8711 21.352C24.6431 21.52 24.4031 21.664 24.1511 21.784C23.8991 21.898 23.6291 21.985 23.3411 22.045C23.0591 22.111 22.7441 22.144 22.3961 22.144C22.0421 22.144 21.7091 22.096 21.3971 22C21.0851 21.898 20.8121 21.748 20.5781 21.55C20.3501 21.352 20.1671 21.103 20.0291 20.803C19.8971 20.497 19.8311 20.137 19.8311 19.723C19.8311 19.363 19.9301 19.018 20.1281 18.688C20.3261 18.352 20.6471 18.055 21.0911 17.797C21.5351 17.539 22.1141 17.329 22.8281 17.167C23.5421 16.999 24.4181 16.903 25.4561 16.879V16.168C25.4561 15.46 25.3031 14.926 24.9971 14.566C24.6911 14.2 24.2441 14.017 23.6561 14.017C23.2601 14.017 22.9271 14.068 22.6571 14.17C22.3931 14.266 22.1621 14.377 21.9641 14.503C21.7721 14.623 21.6041 14.734 21.4601 14.836C21.3221 14.932 21.1841 14.98 21.0461 14.98C20.9381 14.98 20.8451 14.953 20.7671 14.899C20.6891 14.839 20.6231 14.767 20.5691 14.683L20.2811 14.17ZM32.1383 22.144C31.4183 22.144 30.8633 21.943 30.4733 21.541C30.0893 21.139 29.8973 20.56 29.8973 19.804V14.224H28.7993C28.7033 14.224 28.6223 14.197 28.5563 14.143C28.4903 14.083 28.4573 13.993 28.4573 13.873V13.234L29.9513 13.045L30.3203 10.228C30.3383 10.138 30.3773 10.066 30.4373 10.012C30.5033 9.952 30.5873 9.922 30.6893 9.922H31.4993V13.063H34.1363V14.224H31.4993V19.696C31.4993 20.08 31.5923 20.365 31.7783 20.551C31.9643 20.737 32.2043 20.83 32.4983 20.83C32.6663 20.83 32.8103 20.809 32.9303 20.767C33.0563 20.719 33.1643 20.668 33.2543 20.614C33.3443 20.56 33.4193 20.512 33.4793 20.47C33.5453 20.422 33.6023 20.398 33.6503 20.398C33.7343 20.398 33.8093 20.449 33.8753 20.551L34.3433 21.316C34.0673 21.574 33.7343 21.778 33.3443 21.928C32.9543 22.072 32.5523 22.144 32.1383 22.144ZM39.5808 12.739C40.2468 12.739 40.8468 12.85 41.3808 13.072C41.9148 13.294 42.3708 13.609 42.7488 14.017C43.1268 14.425 43.4148 14.92 43.6128 15.502C43.8168 16.078 43.9188 16.723 43.9188 17.437C43.9188 18.157 43.8168 18.805 43.6128 19.381C43.4148 19.957 43.1268 20.449 42.7488 20.857C42.3708 21.265 41.9148 21.58 41.3808 21.802C40.8468 22.018 40.2468 22.126 39.5808 22.126C38.9088 22.126 38.3028 22.018 37.7628 21.802C37.2288 21.58 36.7728 21.265 36.3948 20.857C36.0168 20.449 35.7258 19.957 35.5218 19.381C35.3238 18.805 35.2248 18.157 35.2248 17.437C35.2248 16.723 35.3238 16.078 35.5218 15.502C35.7258 14.92 36.0168 14.425 36.3948 14.017C36.7728 13.609 37.2288 13.294 37.7628 13.072C38.3028 12.85 38.9088 12.739 39.5808 12.739ZM39.5808 20.875C40.4808 20.875 41.1528 20.575 41.5968 19.975C42.0408 19.369 42.2628 18.526 42.2628 17.446C42.2628 16.36 42.0408 15.514 41.5968 14.908C41.1528 14.302 40.4808 13.999 39.5808 13.999C39.1248 13.999 38.7258 14.077 38.3838 14.233C38.0478 14.389 37.7658 14.614 37.5378 14.908C37.3158 15.202 37.1478 15.565 37.0338 15.997C36.9258 16.423 36.8718 16.906 36.8718 17.446C36.8718 18.526 37.0938 19.369 37.5378 19.975C37.9878 20.575 38.6688 20.875 39.5808 20.875Z" fill="#333333"/>
</svg>
