<svg width="150" height="30" viewBox="0 0 150 30" fill="none" xmlns="http://www.w3.org/2000/svg">
<rect width="150" height="30" fill="white"/>
<path d="M15.2471 15.8232H12.9971V21H11.3799V8.20312H14.9658C16.2197 8.20312 17.1689 8.53125 17.8135 9.1875C18.458 9.83789 18.7803 10.793 18.7803 12.0527C18.7803 12.8438 18.6045 13.5352 18.2529 14.127C17.9072 14.7129 17.415 15.1553 16.7764 15.4541L19.2549 20.8945V21H17.5234L15.2471 15.8232ZM12.9971 14.4434H14.9482C15.6221 14.4434 16.1582 14.2266 16.5566 13.793C16.9609 13.3594 17.1631 12.7793 17.1631 12.0527C17.1631 10.4121 16.4189 9.5918 14.9307 9.5918H12.9971V14.4434ZM20.3975 15.8057C20.3975 14.4229 20.7314 13.3301 21.3994 12.5273C22.0732 11.7188 22.9609 11.3145 24.0625 11.3145C25.1641 11.3145 26.0488 11.707 26.7168 12.4922C27.3906 13.2773 27.7363 14.3467 27.7539 15.7002V16.7021C27.7539 18.0791 27.4199 19.1689 26.752 19.9717C26.084 20.7744 25.1934 21.1758 24.0801 21.1758C22.9785 21.1758 22.0938 20.7861 21.4258 20.0068C20.7637 19.2275 20.4209 18.1729 20.3975 16.8428V15.8057ZM21.9531 16.7021C21.9531 17.6807 22.1436 18.4512 22.5244 19.0137C22.9111 19.5703 23.4297 19.8486 24.0801 19.8486C25.4512 19.8486 26.1572 18.8584 26.1982 16.8779V15.8057C26.1982 14.833 26.0049 14.0654 25.6182 13.5029C25.2314 12.9346 24.7129 12.6504 24.0625 12.6504C23.4238 12.6504 22.9111 12.9346 22.5244 13.5029C22.1436 14.0654 21.9531 14.8301 21.9531 15.7969V16.7021ZM36.6484 16.7021C36.6484 18.1846 36.3818 19.3008 35.8486 20.0508C35.3154 20.8008 34.542 21.1758 33.5283 21.1758C32.5205 21.1758 31.7646 20.7422 31.2607 19.875L31.1816 21H29.7666V7.5H31.3135V12.5361C31.8232 11.7217 32.5557 11.3145 33.5107 11.3145C34.5537 11.3145 35.3359 11.6836 35.8574 12.4219C36.3789 13.1602 36.6426 14.2734 36.6484 15.7617V16.7021ZM35.1016 15.8145C35.1016 14.6895 34.9434 13.8896 34.627 13.415C34.3164 12.9346 33.8096 12.6943 33.1064 12.6943C32.3037 12.6943 31.7061 13.1279 31.3135 13.9951V18.5215C31.7002 19.377 32.3037 19.8047 33.124 19.8047C33.8271 19.8047 34.3311 19.5586 34.6357 19.0664C34.9404 18.5742 35.0957 17.8096 35.1016 16.7725V15.8145ZM38.3096 15.8057C38.3096 14.4229 38.6436 13.3301 39.3115 12.5273C39.9854 11.7188 40.873 11.3145 41.9746 11.3145C43.0762 11.3145 43.9609 11.707 44.6289 12.4922C45.3027 13.2773 45.6484 14.3467 45.666 15.7002V16.7021C45.666 18.0791 45.332 19.1689 44.6641 19.9717C43.9961 20.7744 43.1055 21.1758 41.9922 21.1758C40.8906 21.1758 40.0059 20.7861 39.3379 20.0068C38.6758 19.2275 38.333 18.1729 38.3096 16.8428V15.8057ZM39.8652 16.7021C39.8652 17.6807 40.0557 18.4512 40.4365 19.0137C40.8232 19.5703 41.3418 19.8486 41.9922 19.8486C43.3633 19.8486 44.0693 18.8584 44.1104 16.8779V15.8057C44.1104 14.833 43.917 14.0654 43.5303 13.5029C43.1436 12.9346 42.625 12.6504 41.9746 12.6504C41.3359 12.6504 40.8232 12.9346 40.4365 13.5029C40.0557 14.0654 39.8652 14.8301 39.8652 15.7969V16.7021ZM49.709 9.1875V11.4902H51.1416V12.7471H49.709V18.6445C49.709 19.0195 49.7705 19.3037 49.8936 19.4971C50.0166 19.6904 50.2275 19.7871 50.5264 19.7871C50.7314 19.7871 50.9395 19.752 51.1504 19.6816L51.1328 21C50.7812 21.1172 50.4209 21.1758 50.0518 21.1758C49.4365 21.1758 48.9678 20.9561 48.6455 20.5166C48.3232 20.0771 48.1621 19.4561 48.1621 18.6533V12.7471H46.7119V11.4902H48.1621V9.1875H49.709ZM52.4951 15.8057C52.4951 14.4229 52.8291 13.3301 53.4971 12.5273C54.1709 11.7188 55.0586 11.3145 56.1602 11.3145C57.2617 11.3145 58.1465 11.707 58.8145 12.4922C59.4883 13.2773 59.834 14.3467 59.8516 15.7002V16.7021C59.8516 18.0791 59.5176 19.1689 58.8496 19.9717C58.1816 20.7744 57.291 21.1758 56.1777 21.1758C55.0762 21.1758 54.1914 20.7861 53.5234 20.0068C52.8613 19.2275 52.5186 18.1729 52.4951 16.8428V15.8057ZM54.0508 16.7021C54.0508 17.6807 54.2412 18.4512 54.6221 19.0137C55.0088 19.5703 55.5273 19.8486 56.1777 19.8486C57.5488 19.8486 58.2549 18.8584 58.2959 16.8779V15.8057C58.2959 14.833 58.1025 14.0654 57.7158 13.5029C57.3291 12.9346 56.8105 12.6504 56.1602 12.6504C55.5215 12.6504 55.0088 12.9346 54.6221 13.5029C54.2412 14.0654 54.0508 14.8301 54.0508 15.7969V16.7021ZM74.2305 16.9395C74.1602 18.3105 73.7734 19.3594 73.0703 20.0859C72.373 20.8125 71.3857 21.1758 70.1084 21.1758C68.8252 21.1758 67.8057 20.6895 67.0498 19.7168C66.2939 18.7383 65.916 17.4141 65.916 15.7441V13.4238C65.916 11.7598 66.3027 10.4443 67.0762 9.47754C67.8555 8.51074 68.916 8.02734 70.2578 8.02734C71.4941 8.02734 72.4492 8.39941 73.123 9.14355C73.8027 9.88184 74.1719 10.9395 74.2305 12.3164H72.6045C72.5342 11.2734 72.3145 10.5293 71.9453 10.084C71.5762 9.63867 71.0137 9.41602 70.2578 9.41602C69.3848 9.41602 68.7139 9.75879 68.2451 10.4443C67.7764 11.124 67.542 12.123 67.542 13.4414V15.7881C67.542 17.083 67.7588 18.0762 68.1924 18.7676C68.6318 19.459 69.2705 19.8047 70.1084 19.8047C70.9463 19.8047 71.5498 19.5967 71.9189 19.1807C72.2881 18.7646 72.5166 18.0176 72.6045 16.9395H74.2305ZM75.874 15.8057C75.874 14.4229 76.208 13.3301 76.876 12.5273C77.5498 11.7188 78.4375 11.3145 79.5391 11.3145C80.6406 11.3145 81.5254 11.707 82.1934 12.4922C82.8672 13.2773 83.2129 14.3467 83.2305 15.7002V16.7021C83.2305 18.0791 82.8965 19.1689 82.2285 19.9717C81.5605 20.7744 80.6699 21.1758 79.5566 21.1758C78.4551 21.1758 77.5703 20.7861 76.9023 20.0068C76.2402 19.2275 75.8975 18.1729 75.874 16.8428V15.8057ZM77.4297 16.7021C77.4297 17.6807 77.6201 18.4512 78.001 19.0137C78.3877 19.5703 78.9062 19.8486 79.5566 19.8486C80.9277 19.8486 81.6338 18.8584 81.6748 16.8779V15.8057C81.6748 14.833 81.4814 14.0654 81.0947 13.5029C80.708 12.9346 80.1895 12.6504 79.5391 12.6504C78.9004 12.6504 78.3877 12.9346 78.001 13.5029C77.6201 14.0654 77.4297 14.8301 77.4297 15.7969V16.7021ZM86.7021 11.4902L86.7461 12.5186C87.3496 11.7158 88.1201 11.3145 89.0576 11.3145C90.7393 11.3145 91.5918 12.4365 91.6152 14.6807V21H90.0684V14.751C90.0684 14.0068 89.9424 13.4795 89.6904 13.1689C89.4443 12.8525 89.0723 12.6943 88.5742 12.6943C88.1875 12.6943 87.8389 12.8232 87.5283 13.0811C87.2236 13.3389 86.9775 13.6758 86.79 14.0918V21H85.2344V11.4902H86.7021ZM93.6279 15.8145C93.6279 14.3496 93.9004 13.2334 94.4453 12.4658C94.9961 11.6982 95.7842 11.3145 96.8096 11.3145C97.7178 11.3145 98.4268 11.6836 98.9365 12.4219V7.5H100.492V21H99.0684L98.9893 19.9805C98.4795 20.7773 97.75 21.1758 96.8008 21.1758C95.8164 21.1758 95.043 20.7949 94.4805 20.0332C93.9238 19.2656 93.6396 18.1846 93.6279 16.79V15.8145ZM95.1836 16.7021C95.1836 17.7686 95.3418 18.5537 95.6582 19.0576C95.9746 19.5557 96.4902 19.8047 97.2051 19.8047C97.9785 19.8047 98.5557 19.415 98.9365 18.6357V13.8369C98.5381 13.0752 97.9639 12.6943 97.2139 12.6943C96.499 12.6943 95.9834 12.9463 95.667 13.4502C95.3506 13.9482 95.1895 14.7158 95.1836 15.7529V16.7021ZM106.284 21.1758C105.101 21.1758 104.192 20.8242 103.56 20.1211C102.927 19.4121 102.604 18.375 102.593 17.0098V15.8584C102.593 14.4404 102.9 13.3301 103.516 12.5273C104.137 11.7188 105.001 11.3145 106.108 11.3145C107.222 11.3145 108.054 11.6689 108.604 12.3779C109.155 13.0869 109.437 14.1914 109.448 15.6914V16.7109H104.14V16.9307C104.14 17.9502 104.33 18.6914 104.711 19.1543C105.098 19.6172 105.651 19.8486 106.372 19.8486C106.829 19.8486 107.23 19.7637 107.576 19.5938C107.928 19.418 108.256 19.1426 108.561 18.7676L109.369 19.752C108.695 20.7012 107.667 21.1758 106.284 21.1758ZM106.108 12.6504C105.464 12.6504 104.986 12.873 104.676 13.3184C104.365 13.7578 104.189 14.4434 104.148 15.375H107.893V15.1641C107.852 14.2617 107.688 13.6172 107.4 13.2305C107.119 12.8438 106.688 12.6504 106.108 12.6504ZM112.788 11.4902L112.832 12.5186C113.436 11.7158 114.206 11.3145 115.144 11.3145C116.825 11.3145 117.678 12.4365 117.701 14.6807V21H116.154V14.751C116.154 14.0068 116.028 13.4795 115.776 13.1689C115.53 12.8525 115.158 12.6943 114.66 12.6943C114.273 12.6943 113.925 12.8232 113.614 13.0811C113.31 13.3389 113.063 13.6758 112.876 14.0918V21H111.32V11.4902H112.788ZM124.662 18.5654C124.662 18.2314 124.536 17.9443 124.284 17.7041C124.032 17.4639 123.546 17.1826 122.825 16.8604C121.987 16.5146 121.396 16.2188 121.05 15.9727C120.71 15.7266 120.455 15.4482 120.285 15.1377C120.115 14.8213 120.03 14.4463 120.03 14.0127C120.03 13.2393 120.312 12.5977 120.874 12.0879C121.442 11.5723 122.166 11.3145 123.045 11.3145C123.971 11.3145 124.715 11.584 125.277 12.123C125.84 12.6621 126.121 13.3535 126.121 14.1973H124.574C124.574 13.7695 124.431 13.4062 124.144 13.1074C123.856 12.8027 123.49 12.6504 123.045 12.6504C122.588 12.6504 122.228 12.7705 121.964 13.0107C121.706 13.2451 121.577 13.5615 121.577 13.96C121.577 14.2764 121.671 14.5312 121.858 14.7246C122.052 14.918 122.512 15.1729 123.238 15.4893C124.393 15.9404 125.178 16.3828 125.594 16.8164C126.01 17.2441 126.218 17.7891 126.218 18.4512C126.218 19.2773 125.934 19.9395 125.365 20.4375C124.797 20.9297 124.035 21.1758 123.08 21.1758C122.09 21.1758 121.287 20.8916 120.672 20.3232C120.057 19.7549 119.749 19.0342 119.749 18.1611H121.313C121.331 18.6885 121.492 19.1016 121.797 19.4004C122.102 19.6992 122.529 19.8486 123.08 19.8486C123.596 19.8486 123.988 19.7344 124.258 19.5059C124.527 19.2715 124.662 18.958 124.662 18.5654ZM131.649 21.1758C130.466 21.1758 129.558 20.8242 128.925 20.1211C128.292 19.4121 127.97 18.375 127.958 17.0098V15.8584C127.958 14.4404 128.266 13.3301 128.881 12.5273C129.502 11.7188 130.366 11.3145 131.474 11.3145C132.587 11.3145 133.419 11.6689 133.97 12.3779C134.521 13.0869 134.802 14.1914 134.813 15.6914V16.7109H129.505V16.9307C129.505 17.9502 129.695 18.6914 130.076 19.1543C130.463 19.6172 131.017 19.8486 131.737 19.8486C132.194 19.8486 132.596 19.7637 132.941 19.5938C133.293 19.418 133.621 19.1426 133.926 18.7676L134.734 19.752C134.061 20.7012 133.032 21.1758 131.649 21.1758ZM131.474 12.6504C130.829 12.6504 130.352 12.873 130.041 13.3184C129.73 13.7578 129.555 14.4434 129.514 15.375H133.258V15.1641C133.217 14.2617 133.053 13.6172 132.766 13.2305C132.484 12.8438 132.054 12.6504 131.474 12.6504ZM136.36 15.8145C136.36 14.3496 136.633 13.2334 137.178 12.4658C137.729 11.6982 138.517 11.3145 139.542 11.3145C140.45 11.3145 141.159 11.6836 141.669 12.4219V7.5H143.225V21H141.801L141.722 19.9805C141.212 20.7773 140.482 21.1758 139.533 21.1758C138.549 21.1758 137.775 20.7949 137.213 20.0332C136.656 19.2656 136.372 18.1846 136.36 16.79V15.8145ZM137.916 16.7021C137.916 17.7686 138.074 18.5537 138.391 19.0576C138.707 19.5557 139.223 19.8047 139.938 19.8047C140.711 19.8047 141.288 19.415 141.669 18.6357V13.8369C141.271 13.0752 140.696 12.6943 139.946 12.6943C139.231 12.6943 138.716 12.9463 138.399 13.4502C138.083 13.9482 137.922 14.7158 137.916 15.7529V16.7021Z" fill="#333333"/>
</svg>
