<svg width="150" height="30" viewBox="0 0 150 30" fill="none" xmlns="http://www.w3.org/2000/svg">
<rect width="150" height="30" fill="white"/>
<path d="M22.0762 8.91309L17.3125 22H14.9922L10.2285 8.91309H12.0918L16.1963 20.4268L20.3008 8.91309H22.0762ZM32.1484 17.2627H24.915C24.915 17.8662 25.0059 18.3936 25.1875 18.8447C25.3691 19.29 25.6182 19.6562 25.9346 19.9434C26.2393 20.2246 26.5996 20.4355 27.0156 20.5762C27.4375 20.7168 27.9004 20.7871 28.4043 20.7871C29.0723 20.7871 29.7432 20.6553 30.417 20.3916C31.0967 20.1221 31.5801 19.8584 31.8672 19.6006H31.9551V21.4023C31.3984 21.6367 30.8301 21.833 30.25 21.9912C29.6699 22.1494 29.0605 22.2285 28.4219 22.2285C26.793 22.2285 25.5215 21.7891 24.6074 20.9102C23.6934 20.0254 23.2363 18.7715 23.2363 17.1484C23.2363 15.543 23.6729 14.2686 24.5459 13.3252C25.4248 12.3818 26.5791 11.9102 28.0088 11.9102C29.333 11.9102 30.3525 12.2969 31.0674 13.0703C31.7881 13.8438 32.1484 14.9424 32.1484 16.3662V17.2627ZM30.54 15.9971C30.5342 15.1299 30.3145 14.459 29.8809 13.9844C29.4531 13.5098 28.7998 13.2725 27.9209 13.2725C27.0361 13.2725 26.3301 13.5332 25.8027 14.0547C25.2812 14.5762 24.9854 15.2236 24.915 15.9971H30.54ZM40.7793 13.9844H40.6914C40.4453 13.9258 40.2051 13.8848 39.9707 13.8613C39.7422 13.832 39.4697 13.8174 39.1533 13.8174C38.6436 13.8174 38.1514 13.9316 37.6768 14.1602C37.2021 14.3828 36.7451 14.6729 36.3057 15.0303V22H34.6533V12.1826H36.3057V13.6328C36.9619 13.1055 37.5391 12.7334 38.0371 12.5166C38.541 12.2939 39.0537 12.1826 39.5752 12.1826C39.8623 12.1826 40.0703 12.1914 40.1992 12.209C40.3281 12.2207 40.5215 12.2471 40.7793 12.2881V13.9844ZM50.2979 22H48.6455V20.9717C48.1709 21.3818 47.6758 21.7012 47.1602 21.9297C46.6445 22.1582 46.085 22.2725 45.4814 22.2725C44.3096 22.2725 43.3779 21.8213 42.6865 20.9189C42.001 20.0166 41.6582 18.7656 41.6582 17.166C41.6582 16.334 41.7754 15.5928 42.0098 14.9424C42.25 14.292 42.5723 13.7383 42.9766 13.2812C43.375 12.8359 43.8379 12.4961 44.3652 12.2617C44.8984 12.0273 45.4492 11.9102 46.0176 11.9102C46.5332 11.9102 46.9902 11.9658 47.3887 12.0771C47.7871 12.1826 48.2061 12.3496 48.6455 12.5781V8.32422H50.2979V22ZM48.6455 19.583V13.9492C48.2002 13.75 47.8018 13.6123 47.4502 13.5361C47.0986 13.46 46.7148 13.4219 46.2988 13.4219C45.373 13.4219 44.6523 13.7441 44.1367 14.3887C43.6211 15.0332 43.3633 15.9473 43.3633 17.1309C43.3633 18.2969 43.5625 19.1846 43.9609 19.7939C44.3594 20.3975 44.998 20.6992 45.877 20.6992C46.3457 20.6992 46.8203 20.5967 47.3008 20.3916C47.7812 20.1807 48.2295 19.9111 48.6455 19.583ZM61.1787 22H59.5352V20.9541C59.3887 21.0537 59.1895 21.1943 58.9375 21.376C58.6914 21.5518 58.4512 21.6924 58.2168 21.7979C57.9414 21.9326 57.625 22.0439 57.2676 22.1318C56.9102 22.2256 56.4912 22.2725 56.0107 22.2725C55.126 22.2725 54.376 21.9795 53.7607 21.3936C53.1455 20.8076 52.8379 20.0605 52.8379 19.1523C52.8379 18.4082 52.9961 17.8076 53.3125 17.3506C53.6348 16.8877 54.0918 16.5244 54.6836 16.2607C55.2812 15.9971 55.999 15.8184 56.8369 15.7246C57.6748 15.6309 58.5742 15.5605 59.5352 15.5137V15.2588C59.5352 14.8838 59.4678 14.5732 59.333 14.3271C59.2041 14.0811 59.0166 13.8877 58.7705 13.7471C58.5361 13.6123 58.2549 13.5215 57.9268 13.4746C57.5986 13.4277 57.2559 13.4043 56.8984 13.4043C56.4648 13.4043 55.9814 13.4629 55.4482 13.5801C54.915 13.6914 54.3643 13.8555 53.7959 14.0723H53.708V12.3936C54.0303 12.3057 54.4961 12.209 55.1055 12.1035C55.7148 11.998 56.3154 11.9453 56.9072 11.9453C57.5986 11.9453 58.1992 12.0039 58.709 12.1211C59.2246 12.2324 59.6699 12.4258 60.0449 12.7012C60.4141 12.9707 60.6953 13.3193 60.8887 13.7471C61.082 14.1748 61.1787 14.7051 61.1787 15.3379V22ZM59.5352 19.583V16.8496C59.0312 16.8789 58.4365 16.9229 57.751 16.9814C57.0713 17.04 56.5322 17.125 56.1338 17.2363C55.6592 17.3711 55.2754 17.582 54.9824 17.8691C54.6895 18.1504 54.543 18.54 54.543 19.0381C54.543 19.6006 54.7129 20.0254 55.0527 20.3125C55.3926 20.5938 55.9111 20.7344 56.6084 20.7344C57.1885 20.7344 57.7188 20.623 58.1992 20.4004C58.6797 20.1719 59.125 19.8994 59.5352 19.583ZM72.5693 22H70.917V16.4102C70.917 15.959 70.8906 15.5371 70.8379 15.1445C70.7852 14.7461 70.6885 14.4355 70.5479 14.2129C70.4014 13.9668 70.1904 13.7852 69.915 13.668C69.6396 13.5449 69.2822 13.4834 68.8428 13.4834C68.3916 13.4834 67.9199 13.5947 67.4277 13.8174C66.9355 14.04 66.4639 14.3242 66.0127 14.6699V22H64.3604V12.1826H66.0127V13.2725C66.5283 12.8447 67.0615 12.5107 67.6123 12.2705C68.1631 12.0303 68.7285 11.9102 69.3086 11.9102C70.3691 11.9102 71.1777 12.2295 71.7344 12.8682C72.291 13.5068 72.5693 14.4268 72.5693 15.6279V22ZM83.3799 22H81.7363V20.9541C81.5898 21.0537 81.3906 21.1943 81.1387 21.376C80.8926 21.5518 80.6523 21.6924 80.418 21.7979C80.1426 21.9326 79.8262 22.0439 79.4688 22.1318C79.1113 22.2256 78.6924 22.2725 78.2119 22.2725C77.3271 22.2725 76.5771 21.9795 75.9619 21.3936C75.3467 20.8076 75.0391 20.0605 75.0391 19.1523C75.0391 18.4082 75.1973 17.8076 75.5137 17.3506C75.8359 16.8877 76.293 16.5244 76.8848 16.2607C77.4824 15.9971 78.2002 15.8184 79.0381 15.7246C79.876 15.6309 80.7754 15.5605 81.7363 15.5137V15.2588C81.7363 14.8838 81.6689 14.5732 81.5342 14.3271C81.4053 14.0811 81.2178 13.8877 80.9717 13.7471C80.7373 13.6123 80.4561 13.5215 80.1279 13.4746C79.7998 13.4277 79.457 13.4043 79.0996 13.4043C78.666 13.4043 78.1826 13.4629 77.6494 13.5801C77.1162 13.6914 76.5654 13.8555 75.9971 14.0723H75.9092V12.3936C76.2314 12.3057 76.6973 12.209 77.3066 12.1035C77.916 11.998 78.5166 11.9453 79.1084 11.9453C79.7998 11.9453 80.4004 12.0039 80.9102 12.1211C81.4258 12.2324 81.8711 12.4258 82.2461 12.7012C82.6152 12.9707 82.8965 13.3193 83.0898 13.7471C83.2832 14.1748 83.3799 14.7051 83.3799 15.3379V22ZM81.7363 19.583V16.8496C81.2324 16.8789 80.6377 16.9229 79.9521 16.9814C79.2725 17.04 78.7334 17.125 78.335 17.2363C77.8604 17.3711 77.4766 17.582 77.1836 17.8691C76.8906 18.1504 76.7441 18.54 76.7441 19.0381C76.7441 19.6006 76.9141 20.0254 77.2539 20.3125C77.5938 20.5938 78.1123 20.7344 78.8096 20.7344C79.3896 20.7344 79.9199 20.623 80.4004 20.4004C80.8809 20.1719 81.3262 19.8994 81.7363 19.583Z" fill="#333333"/>
</svg>
