<svg width="150" height="30" viewBox="0 0 150 30" fill="none" xmlns="http://www.w3.org/2000/svg">
<path d="M21.8213 20.666C21.792 20.7129 21.7188 20.7246 21.6016 20.7012C21.4902 20.6719 21.3584 20.6572 21.2061 20.6572C21.0537 20.6572 20.8369 20.6895 20.5557 20.7539C20.2803 20.8125 19.8438 20.9062 19.2461 21.0352C18.6484 21.1699 18.1035 21.2373 17.6113 21.2373C16.498 21.2373 15.417 20.9766 14.3682 20.4551C13.3252 19.9277 12.4902 19.1836 11.8633 18.2227C11.2363 17.2559 10.9229 16.1367 10.9229 14.8652C10.9229 13.5938 11.2363 12.4424 11.8633 11.4111C12.7773 9.89941 14.1543 8.91504 15.9941 8.45801C16.5801 8.31152 17.166 8.23828 17.752 8.23828C18.5547 8.23828 19.5068 8.37305 20.6084 8.64258C20.9424 8.72461 21.2236 8.80957 21.4521 8.89746C21.6865 8.98535 21.8301 9.0293 21.8828 9.0293L22.1465 8.95898H22.4189C22.4893 8.95898 22.5244 9.00879 22.5244 9.1084V11.8418C22.5244 11.9004 22.4717 11.9297 22.3662 11.9297C22.2607 11.9297 22.1992 11.918 22.1816 11.8945C22.1641 11.8652 22.1465 11.833 22.1289 11.7979C22.1113 11.7568 22.0908 11.7158 22.0674 11.6748C22.0498 11.6338 22.0293 11.5957 22.0059 11.5605C21.9883 11.5254 21.9766 11.499 21.9707 11.4814C21.0918 9.71777 19.7588 8.83594 17.9717 8.83594C16.3604 8.83594 15.1006 9.34863 14.1924 10.374C13.2842 11.3994 12.8301 12.7588 12.8301 14.4521C12.8301 16.1396 13.3281 17.5898 14.3242 18.8027C15.3262 20.0156 16.6855 20.6221 18.4023 20.6221C19.3398 20.6221 20.1924 20.3438 20.96 19.7871C21.7334 19.2305 22.3398 18.5479 22.7793 17.7393C22.791 17.7041 22.8262 17.6865 22.8848 17.6865H22.999C23.0576 17.6865 23.0869 17.7217 23.0869 17.792C23.0869 17.8623 23.0693 17.9297 23.0342 17.9941L21.8213 20.666ZM29.8105 19.5498C29.8105 19.7021 29.8809 19.8252 30.0215 19.9189C30.168 20.0068 30.335 20.0508 30.5225 20.0508C30.71 20.0508 30.8652 20.0039 30.9883 19.9102C31.1172 19.8105 31.2051 19.7607 31.252 19.7607C31.2988 19.7607 31.3223 19.8252 31.3223 19.9541C31.3223 20.0771 31.2637 20.1826 31.1465 20.2705C30.2676 20.915 29.6729 21.2373 29.3623 21.2373C28.9873 21.2373 28.6826 20.8477 28.4482 20.0684C28.4307 20.0098 28.416 19.9834 28.4043 19.9893C27.6777 20.5342 27.2207 20.8623 27.0332 20.9736C26.5527 21.249 26.0693 21.293 25.583 21.1055C25.1025 20.918 24.7539 20.6074 24.5371 20.1738C24.4316 19.9512 24.3789 19.7139 24.3789 19.4619C24.3789 18.9639 24.5635 18.5684 24.9326 18.2754C25.3018 17.9824 26.0049 17.7012 27.042 17.4316C27.3936 17.3379 27.707 17.2178 27.9824 17.0713C28.2578 16.9248 28.4014 16.8311 28.4131 16.79C28.4307 16.749 28.4395 16.7109 28.4395 16.6758V14.9883C28.4395 14.3262 28.1816 13.8604 27.666 13.5908C27.4961 13.5029 27.291 13.459 27.0508 13.459C26.8164 13.459 26.5762 13.5527 26.3301 13.7402C26.0898 13.9277 25.9697 14.1943 25.9697 14.54L26.0137 14.8828C25.9785 14.9531 25.7676 15.0703 25.3809 15.2344C24.9941 15.3984 24.7715 15.4863 24.7129 15.498C24.6191 15.498 24.5723 15.3867 24.5723 15.1641C24.5723 14.9355 24.6396 14.6836 24.7744 14.4082C24.9092 14.1328 25.0996 13.8809 25.3457 13.6523C25.9199 13.1191 26.5762 12.8525 27.3145 12.8525C28.0527 12.8525 28.6533 13.0576 29.1162 13.4678C29.5791 13.8721 29.8105 14.3555 29.8105 14.918V19.5498ZM25.7588 19.2949C25.7588 19.5762 25.8672 19.8223 26.084 20.0332C26.3008 20.2383 26.5469 20.3408 26.8223 20.3408C27.1035 20.3408 27.4434 20.2236 27.8418 19.9893C28.2402 19.749 28.4395 19.5029 28.4395 19.251V17.4668C28.4395 17.4023 28.4248 17.3701 28.3955 17.3701C28.3662 17.3701 28.3457 17.373 28.334 17.3789L26.2949 18.3281C26.084 18.4805 25.9404 18.6094 25.8643 18.7148C25.7939 18.8203 25.7588 19.0137 25.7588 19.2949ZM37.5098 14.6982C37.4395 14.6865 37.3369 14.6484 37.2021 14.584C36.7158 14.3613 36.335 14.25 36.0596 14.25C35.7842 14.25 35.4941 14.4229 35.1895 14.7686C34.8906 15.1084 34.7412 15.416 34.7412 15.6914V19.6641C34.7412 20.1035 34.9961 20.3965 35.5059 20.543C35.7285 20.6016 35.9365 20.6455 36.1299 20.6748C36.3232 20.6982 36.4463 20.7217 36.499 20.7451C36.5576 20.7686 36.5869 20.8154 36.5869 20.8857C36.5869 20.9502 36.5576 20.9883 36.499 21H32.0957C32.0371 20.9883 32.0078 20.9473 32.0078 20.877C32.0078 20.7715 32.1455 20.7012 32.4209 20.666C33.0537 20.5723 33.3701 20.2383 33.3701 19.6641V15.0146C33.3701 14.7686 33.2354 14.5986 32.9658 14.5049C32.8486 14.4639 32.7227 14.4316 32.5879 14.4082C32.4531 14.3789 32.3447 14.3525 32.2627 14.3291C32.1865 14.3057 32.1367 14.2852 32.1133 14.2676C32.0957 14.2441 32.0869 14.2002 32.0869 14.1357C32.0869 14.0654 32.1309 14.0068 32.2188 13.96L34.46 12.9053C34.5303 12.8701 34.5742 12.8525 34.5918 12.8525C34.6914 12.8525 34.7412 12.9229 34.7412 13.0635V14.4873C34.7412 14.5576 34.7588 14.5928 34.7939 14.5928C34.8408 14.5928 34.9609 14.4551 35.1543 14.1797C35.7109 13.4004 36.1709 13.0107 36.5342 13.0107C36.7393 13.0107 37.0527 13.0928 37.4746 13.2568C37.9023 13.4209 38.1162 13.5586 38.1162 13.6699C38.1162 13.8047 38.0488 14.0098 37.9141 14.2852C37.7793 14.5605 37.6445 14.6982 37.5098 14.6982ZM44.1631 13.2217C44.4209 13.3096 44.5791 13.3535 44.6377 13.3535C44.6963 13.3535 44.7314 13.3535 44.7432 13.3535C44.7607 13.3477 44.7812 13.3096 44.8047 13.2393V8.7041C44.8047 8.45801 44.6699 8.28809 44.4004 8.19434C44.2832 8.15332 44.1572 8.12109 44.0225 8.09766C43.8877 8.06836 43.7793 8.04199 43.6973 8.01855C43.6211 7.99512 43.5713 7.97461 43.5479 7.95703C43.5303 7.93359 43.5215 7.88965 43.5215 7.8252C43.5215 7.75488 43.5654 7.69629 43.6533 7.64941L45.8945 6.59473C45.9648 6.55957 46.0088 6.54199 46.0264 6.54199C46.126 6.54199 46.1758 6.6123 46.1758 6.75293V19.2686C46.2051 19.5264 46.2783 19.7109 46.3955 19.8223C46.5127 19.9336 46.7031 19.9893 46.9668 19.9893L47.4766 19.9541C47.5117 19.9541 47.5293 19.9893 47.5293 20.0596C47.5293 20.124 47.4854 20.1768 47.3975 20.2178L45.0596 21.1846C44.9893 21.2197 44.9277 21.2373 44.875 21.2373C44.8281 21.2373 44.8047 21.1641 44.8047 21.0176V20.2178C44.8047 20.1592 44.79 20.1299 44.7607 20.1299C44.7197 20.1299 44.4766 20.2617 44.0312 20.5254C42.666 21.334 41.5146 21.4541 40.5771 20.8857C39.8271 20.4287 39.3203 19.7051 39.0566 18.7148C38.9336 18.252 38.8721 17.7627 38.8721 17.2471C38.8721 16.7256 38.9775 16.21 39.1885 15.7002C39.4053 15.1846 39.7012 14.7334 40.0762 14.3467C40.9023 13.5029 41.8984 13.0811 43.0645 13.0811C43.5391 13.0811 43.9053 13.1279 44.1631 13.2217ZM40.1992 16.9922C40.1992 17.877 40.4453 18.6533 40.9375 19.3213C41.4297 19.9834 42.1152 20.3145 42.9941 20.3145C43.3809 20.3145 43.7793 20.2207 44.1895 20.0332C44.5996 19.8398 44.8047 19.6934 44.8047 19.5938V15.0586C44.8047 14.9473 44.7285 14.8154 44.5762 14.6631C44.1074 14.0186 43.4834 13.6963 42.7041 13.6963C41.9307 13.6963 41.3184 14.0244 40.8672 14.6807C40.4219 15.3311 40.1992 16.1016 40.1992 16.9922ZM48.3643 17.0537C48.3643 15.8994 48.7715 14.9092 49.5859 14.083C50.4062 13.251 51.3877 12.835 52.5303 12.835C53.6729 12.835 54.666 13.2393 55.5098 14.0479C56.3535 14.8506 56.7754 15.8438 56.7754 17.0273C56.7754 18.2109 56.374 19.21 55.5713 20.0244C54.7744 20.833 53.7725 21.2373 52.5654 21.2373C51.3584 21.2373 50.3564 20.8271 49.5596 20.0068C48.7627 19.1865 48.3643 18.2021 48.3643 17.0537ZM50.5527 19.3125C51.127 20.2793 51.9092 20.7627 52.8994 20.7627C53.667 20.7627 54.2529 20.4551 54.6572 19.8398C55.0674 19.2246 55.2725 18.4688 55.2725 17.5723C55.2725 16.6758 54.9854 15.7559 54.4111 14.8125C53.8428 13.8691 53.0752 13.3975 52.1084 13.3975C51.3994 13.3975 50.8398 13.7051 50.4297 14.3203C50.0254 14.9297 49.8232 15.7061 49.8232 16.6494C49.8232 17.5869 50.0664 18.4746 50.5527 19.3125Z" fill="#333333"/>
</svg>
