<svg width="150" height="30" viewBox="0 0 150 30" fill="none" xmlns="http://www.w3.org/2000/svg">
<rect width="150" height="30" fill="white"/>
<path d="M11.656 18.426C12.076 18.87 12.568 19.23 13.132 19.506C13.708 19.77 14.302 19.902 14.914 19.902C15.694 19.902 16.3 19.728 16.732 19.38C17.164 19.02 17.38 18.552 17.38 17.976C17.38 17.676 17.326 17.424 17.218 17.22C17.122 17.004 16.984 16.824 16.804 16.68C16.636 16.524 16.432 16.386 16.192 16.266C15.952 16.146 15.694 16.02 15.418 15.888L13.726 15.15C13.45 15.03 13.168 14.886 12.88 14.718C12.592 14.55 12.334 14.346 12.106 14.106C11.878 13.866 11.692 13.584 11.548 13.26C11.404 12.924 11.332 12.54 11.332 12.108C11.332 11.664 11.422 11.25 11.602 10.866C11.794 10.482 12.052 10.152 12.376 9.876C12.712 9.588 13.102 9.366 13.546 9.21C14.002 9.054 14.5 8.976 15.04 8.976C15.748 8.976 16.402 9.114 17.002 9.39C17.602 9.654 18.112 10.002 18.532 10.434L17.722 11.406C17.362 11.058 16.96 10.788 16.516 10.596C16.084 10.392 15.592 10.29 15.04 10.29C14.38 10.29 13.846 10.446 13.438 10.758C13.042 11.058 12.844 11.478 12.844 12.018C12.844 12.306 12.898 12.552 13.006 12.756C13.126 12.948 13.282 13.122 13.474 13.278C13.666 13.422 13.876 13.554 14.104 13.674C14.332 13.782 14.566 13.884 14.806 13.98L16.48 14.7C16.816 14.844 17.134 15.012 17.434 15.204C17.734 15.384 17.992 15.6 18.208 15.852C18.424 16.092 18.592 16.38 18.712 16.716C18.844 17.04 18.91 17.418 18.91 17.85C18.91 18.318 18.814 18.756 18.622 19.164C18.442 19.572 18.178 19.932 17.83 20.244C17.482 20.544 17.062 20.784 16.57 20.964C16.078 21.132 15.52 21.216 14.896 21.216C14.068 21.216 13.3 21.06 12.592 20.748C11.884 20.436 11.272 20.01 10.756 19.47L11.656 18.426ZM20.4432 16.644C20.4432 15.912 20.5512 15.264 20.7672 14.7C20.9952 14.124 21.2952 13.638 21.6672 13.242C22.0392 12.846 22.4652 12.546 22.9452 12.342C23.4372 12.138 23.9532 12.036 24.4932 12.036C25.0332 12.036 25.5432 12.138 26.0232 12.342C26.5152 12.546 26.9472 12.846 27.3192 13.242C27.6912 13.638 27.9852 14.124 28.2012 14.7C28.4292 15.264 28.5432 15.912 28.5432 16.644C28.5432 17.364 28.4292 18.012 28.2012 18.588C27.9852 19.152 27.6912 19.632 27.3192 20.028C26.9472 20.412 26.5152 20.706 26.0232 20.91C25.5432 21.114 25.0332 21.216 24.4932 21.216C23.9532 21.216 23.4372 21.114 22.9452 20.91C22.4652 20.706 22.0392 20.412 21.6672 20.028C21.2952 19.632 20.9952 19.152 20.7672 18.588C20.5512 18.012 20.4432 17.364 20.4432 16.644ZM21.9732 16.644C21.9732 17.148 22.0332 17.604 22.1532 18.012C22.2732 18.42 22.4412 18.774 22.6572 19.074C22.8852 19.362 23.1552 19.59 23.4672 19.758C23.7792 19.914 24.1212 19.992 24.4932 19.992C24.8652 19.992 25.2072 19.914 25.5192 19.758C25.8312 19.59 26.0952 19.362 26.3112 19.074C26.5392 18.774 26.7132 18.42 26.8332 18.012C26.9532 17.604 27.0132 17.148 27.0132 16.644C27.0132 16.14 26.9532 15.684 26.8332 15.276C26.7132 14.856 26.5392 14.496 26.3112 14.196C26.0952 13.896 25.8312 13.668 25.5192 13.512C25.2072 13.344 24.8652 13.26 24.4932 13.26C24.1212 13.26 23.7792 13.344 23.4672 13.512C23.1552 13.668 22.8852 13.896 22.6572 14.196C22.4412 14.496 22.2732 14.856 22.1532 15.276C22.0332 15.684 21.9732 16.14 21.9732 16.644ZM30.7211 12.252H32.2151V17.598C32.2151 18.426 32.3411 19.026 32.5931 19.398C32.8571 19.758 33.2771 19.938 33.8531 19.938C34.3091 19.938 34.7111 19.824 35.0591 19.596C35.4071 19.356 35.7911 18.978 36.2111 18.462V12.252H37.6871V21H36.4631L36.3371 19.632H36.2831C35.8751 20.112 35.4431 20.496 34.9871 20.784C34.5431 21.072 34.0151 21.216 33.4031 21.216C32.4671 21.216 31.7831 20.928 31.3511 20.352C30.9311 19.776 30.7211 18.924 30.7211 17.796V12.252ZM40.6381 12.252H41.8621L41.9881 13.836H42.0421C42.3421 13.284 42.7021 12.846 43.1221 12.522C43.5541 12.198 44.0221 12.036 44.5261 12.036C44.8741 12.036 45.1861 12.096 45.4621 12.216L45.1741 13.512C45.0301 13.464 44.8981 13.428 44.7781 13.404C44.6581 13.38 44.5081 13.368 44.3281 13.368C43.9561 13.368 43.5661 13.518 43.1581 13.818C42.7621 14.118 42.4141 14.64 42.1141 15.384V21H40.6381V12.252ZM46.0546 16.644C46.0546 15.912 46.1686 15.264 46.3966 14.7C46.6246 14.124 46.9306 13.638 47.3146 13.242C47.6986 12.846 48.1426 12.546 48.6466 12.342C49.1626 12.138 49.7026 12.036 50.2666 12.036C50.8426 12.036 51.3346 12.144 51.7426 12.36C52.1626 12.564 52.5226 12.804 52.8226 13.08L52.0846 14.034C51.8206 13.806 51.5446 13.62 51.2566 13.476C50.9806 13.332 50.6686 13.26 50.3206 13.26C49.9246 13.26 49.5586 13.344 49.2226 13.512C48.8866 13.668 48.5986 13.896 48.3586 14.196C48.1186 14.496 47.9266 14.856 47.7826 15.276C47.6506 15.684 47.5846 16.14 47.5846 16.644C47.5846 17.148 47.6506 17.604 47.7826 18.012C47.9146 18.42 48.0946 18.774 48.3226 19.074C48.5626 19.362 48.8506 19.59 49.1866 19.758C49.5226 19.914 49.8886 19.992 50.2846 19.992C50.7046 19.992 51.0826 19.908 51.4186 19.74C51.7666 19.56 52.0726 19.35 52.3366 19.11L53.0026 20.082C52.6066 20.43 52.1626 20.706 51.6706 20.91C51.1906 21.114 50.6866 21.216 50.1586 21.216C49.5826 21.216 49.0426 21.114 48.5386 20.91C48.0346 20.706 47.5966 20.412 47.2246 20.028C46.8646 19.632 46.5766 19.152 46.3606 18.588C46.1566 18.012 46.0546 17.364 46.0546 16.644ZM53.8768 16.644C53.8768 15.924 53.9848 15.282 54.2008 14.718C54.4288 14.142 54.7228 13.656 55.0828 13.26C55.4548 12.864 55.8748 12.564 56.3428 12.36C56.8108 12.144 57.2968 12.036 57.8008 12.036C58.3528 12.036 58.8448 12.132 59.2768 12.324C59.7208 12.516 60.0868 12.792 60.3748 13.152C60.6748 13.512 60.9028 13.944 61.0588 14.448C61.2148 14.952 61.2928 15.516 61.2928 16.14C61.2928 16.464 61.2748 16.734 61.2388 16.95H55.3348C55.3948 17.898 55.6828 18.648 56.1988 19.2C56.7268 19.752 57.4108 20.028 58.2508 20.028C58.6708 20.028 59.0548 19.968 59.4028 19.848C59.7628 19.716 60.1048 19.548 60.4288 19.344L60.9508 20.316C60.5668 20.556 60.1408 20.766 59.6728 20.946C59.2048 21.126 58.6708 21.216 58.0708 21.216C57.4828 21.216 56.9308 21.114 56.4148 20.91C55.9108 20.694 55.4668 20.394 55.0828 20.01C54.7108 19.614 54.4168 19.134 54.2008 18.57C53.9848 18.006 53.8768 17.364 53.8768 16.644ZM59.9968 15.978C59.9968 15.078 59.8048 14.394 59.4208 13.926C59.0488 13.446 58.5208 13.206 57.8368 13.206C57.5248 13.206 57.2248 13.272 56.9368 13.404C56.6608 13.524 56.4088 13.704 56.1808 13.944C55.9528 14.172 55.7608 14.46 55.6048 14.808C55.4608 15.144 55.3648 15.534 55.3168 15.978H59.9968ZM67.2732 18.426C67.6932 18.87 68.1852 19.23 68.7492 19.506C69.3252 19.77 69.9192 19.902 70.5312 19.902C71.3112 19.902 71.9172 19.728 72.3492 19.38C72.7812 19.02 72.9972 18.552 72.9972 17.976C72.9972 17.676 72.9432 17.424 72.8352 17.22C72.7392 17.004 72.6012 16.824 72.4212 16.68C72.2532 16.524 72.0492 16.386 71.8092 16.266C71.5692 16.146 71.3112 16.02 71.0352 15.888L69.3432 15.15C69.0672 15.03 68.7852 14.886 68.4972 14.718C68.2092 14.55 67.9512 14.346 67.7232 14.106C67.4952 13.866 67.3092 13.584 67.1652 13.26C67.0212 12.924 66.9492 12.54 66.9492 12.108C66.9492 11.664 67.0392 11.25 67.2192 10.866C67.4112 10.482 67.6692 10.152 67.9932 9.876C68.3292 9.588 68.7192 9.366 69.1632 9.21C69.6192 9.054 70.1172 8.976 70.6572 8.976C71.3652 8.976 72.0192 9.114 72.6192 9.39C73.2192 9.654 73.7292 10.002 74.1492 10.434L73.3392 11.406C72.9792 11.058 72.5772 10.788 72.1332 10.596C71.7012 10.392 71.2092 10.29 70.6572 10.29C69.9972 10.29 69.4632 10.446 69.0552 10.758C68.6592 11.058 68.4612 11.478 68.4612 12.018C68.4612 12.306 68.5152 12.552 68.6232 12.756C68.7432 12.948 68.8992 13.122 69.0912 13.278C69.2832 13.422 69.4932 13.554 69.7212 13.674C69.9492 13.782 70.1832 13.884 70.4232 13.98L72.0972 14.7C72.4332 14.844 72.7512 15.012 73.0512 15.204C73.3512 15.384 73.6092 15.6 73.8252 15.852C74.0412 16.092 74.2092 16.38 74.3292 16.716C74.4612 17.04 74.5272 17.418 74.5272 17.85C74.5272 18.318 74.4312 18.756 74.2392 19.164C74.0592 19.572 73.7952 19.932 73.4472 20.244C73.0992 20.544 72.6792 20.784 72.1872 20.964C71.6952 21.132 71.1372 21.216 70.5132 21.216C69.6852 21.216 68.9172 21.06 68.2092 20.748C67.5012 20.436 66.8892 20.01 66.3732 19.47L67.2732 18.426ZM76.2764 18.732C76.2764 17.772 76.7024 17.04 77.5544 16.536C78.4184 16.02 79.7864 15.66 81.6584 15.456C81.6584 15.18 81.6284 14.91 81.5684 14.646C81.5204 14.382 81.4244 14.148 81.2804 13.944C81.1484 13.74 80.9684 13.578 80.7404 13.458C80.5124 13.326 80.2184 13.26 79.8584 13.26C79.3424 13.26 78.8624 13.356 78.4184 13.548C77.9864 13.74 77.5964 13.956 77.2484 14.196L76.6544 13.17C77.0624 12.906 77.5604 12.654 78.1484 12.414C78.7364 12.162 79.3844 12.036 80.0924 12.036C81.1604 12.036 81.9344 12.366 82.4144 13.026C82.8944 13.674 83.1344 14.544 83.1344 15.636V21H81.9104L81.7844 19.956H81.7484C81.3284 20.304 80.8724 20.604 80.3804 20.856C79.9004 21.096 79.3904 21.216 78.8504 21.216C78.1064 21.216 77.4884 21 76.9964 20.568C76.5164 20.136 76.2764 19.524 76.2764 18.732ZM77.7344 18.624C77.7344 19.128 77.8784 19.488 78.1664 19.704C78.4664 19.92 78.8324 20.028 79.2644 20.028C79.6844 20.028 80.0804 19.932 80.4524 19.74C80.8364 19.536 81.2384 19.242 81.6584 18.858V16.428C80.9264 16.524 80.3084 16.638 79.8044 16.77C79.3004 16.902 78.8924 17.058 78.5804 17.238C78.2804 17.418 78.0644 17.628 77.9324 17.868C77.8004 18.096 77.7344 18.348 77.7344 18.624ZM85.9194 12.252H87.1434L87.2694 13.512H87.3234C87.7434 13.092 88.1814 12.744 88.6374 12.468C89.1054 12.18 89.6454 12.036 90.2574 12.036C91.1814 12.036 91.8534 12.324 92.2734 12.9C92.7054 13.476 92.9214 14.328 92.9214 15.456V21H91.4454V15.654C91.4454 14.826 91.3134 14.232 91.0494 13.872C90.7854 13.5 90.3654 13.314 89.7894 13.314C89.3334 13.314 88.9314 13.428 88.5834 13.656C88.2354 13.884 87.8394 14.22 87.3954 14.664V21H85.9194V12.252ZM95.5291 19.02C95.9131 19.332 96.3031 19.584 96.6991 19.776C97.1071 19.968 97.5751 20.064 98.1031 20.064C98.6791 20.064 99.1111 19.932 99.3991 19.668C99.6871 19.404 99.8311 19.08 99.8311 18.696C99.8311 18.468 99.7711 18.27 99.6511 18.102C99.5311 17.934 99.3751 17.79 99.1831 17.67C99.0031 17.538 98.7931 17.424 98.5531 17.328C98.3131 17.232 98.0731 17.136 97.8331 17.04C97.5211 16.932 97.2091 16.812 96.8971 16.68C96.5851 16.536 96.3031 16.368 96.0511 16.176C95.8111 15.972 95.6131 15.738 95.4571 15.474C95.3011 15.21 95.2231 14.892 95.2231 14.52C95.2231 14.172 95.2891 13.848 95.4211 13.548C95.5651 13.236 95.7631 12.972 96.0151 12.756C96.2791 12.528 96.5971 12.354 96.9691 12.234C97.3411 12.102 97.7611 12.036 98.2291 12.036C98.7811 12.036 99.2851 12.132 99.7411 12.324C100.209 12.516 100.611 12.75 100.947 13.026L100.245 13.962C99.9451 13.734 99.6331 13.548 99.3091 13.404C98.9851 13.26 98.6311 13.188 98.2471 13.188C97.6951 13.188 97.2871 13.314 97.0231 13.566C96.7711 13.818 96.6451 14.112 96.6451 14.448C96.6451 14.652 96.6991 14.832 96.8071 14.988C96.9151 15.132 97.0591 15.264 97.2391 15.384C97.4191 15.492 97.6231 15.594 97.8511 15.69C98.0911 15.774 98.3371 15.864 98.5891 15.96C98.9011 16.08 99.2131 16.206 99.5251 16.338C99.8491 16.47 100.137 16.638 100.389 16.842C100.641 17.034 100.845 17.274 101.001 17.562C101.169 17.85 101.253 18.198 101.253 18.606C101.253 18.966 101.181 19.302 101.037 19.614C100.905 19.926 100.701 20.202 100.425 20.442C100.161 20.682 99.8251 20.868 99.4171 21C99.0211 21.144 98.5651 21.216 98.0491 21.216C97.4251 21.216 96.8311 21.102 96.2671 20.874C95.7031 20.646 95.2111 20.358 94.7911 20.01L95.5291 19.02ZM107.087 9.192H110.705C111.353 9.192 111.947 9.252 112.487 9.372C113.027 9.492 113.483 9.69 113.855 9.966C114.239 10.23 114.533 10.584 114.737 11.028C114.953 11.472 115.061 12.018 115.061 12.666C115.061 13.29 114.953 13.83 114.737 14.286C114.533 14.742 114.239 15.12 113.855 15.42C113.471 15.72 113.009 15.948 112.469 16.104C111.941 16.248 111.353 16.32 110.705 16.32H108.581V21H107.087V9.192ZM110.525 15.096C111.557 15.096 112.319 14.904 112.811 14.52C113.315 14.124 113.567 13.506 113.567 12.666C113.567 11.814 113.315 11.226 112.811 10.902C112.307 10.566 111.545 10.398 110.525 10.398H108.581V15.096H110.525ZM117.314 12.252H118.538L118.664 13.836H118.718C119.018 13.284 119.378 12.846 119.798 12.522C120.23 12.198 120.698 12.036 121.202 12.036C121.55 12.036 121.862 12.096 122.138 12.216L121.85 13.512C121.706 13.464 121.574 13.428 121.454 13.404C121.334 13.38 121.184 13.368 121.004 13.368C120.632 13.368 120.242 13.518 119.834 13.818C119.438 14.118 119.09 14.64 118.79 15.384V21H117.314V12.252ZM122.73 16.644C122.73 15.912 122.838 15.264 123.054 14.7C123.282 14.124 123.582 13.638 123.954 13.242C124.326 12.846 124.752 12.546 125.232 12.342C125.724 12.138 126.24 12.036 126.78 12.036C127.32 12.036 127.83 12.138 128.31 12.342C128.802 12.546 129.234 12.846 129.606 13.242C129.978 13.638 130.272 14.124 130.488 14.7C130.716 15.264 130.83 15.912 130.83 16.644C130.83 17.364 130.716 18.012 130.488 18.588C130.272 19.152 129.978 19.632 129.606 20.028C129.234 20.412 128.802 20.706 128.31 20.91C127.83 21.114 127.32 21.216 126.78 21.216C126.24 21.216 125.724 21.114 125.232 20.91C124.752 20.706 124.326 20.412 123.954 20.028C123.582 19.632 123.282 19.152 123.054 18.588C122.838 18.012 122.73 17.364 122.73 16.644ZM124.26 16.644C124.26 17.148 124.32 17.604 124.44 18.012C124.56 18.42 124.728 18.774 124.944 19.074C125.172 19.362 125.442 19.59 125.754 19.758C126.066 19.914 126.408 19.992 126.78 19.992C127.152 19.992 127.494 19.914 127.806 19.758C128.118 19.59 128.382 19.362 128.598 19.074C128.826 18.774 129 18.42 129.12 18.012C129.24 17.604 129.3 17.148 129.3 16.644C129.3 16.14 129.24 15.684 129.12 15.276C129 14.856 128.826 14.496 128.598 14.196C128.382 13.896 128.118 13.668 127.806 13.512C127.494 13.344 127.152 13.26 126.78 13.26C126.408 13.26 126.066 13.344 125.754 13.512C125.442 13.668 125.172 13.896 124.944 14.196C124.728 14.496 124.56 14.856 124.44 15.276C124.32 15.684 124.26 16.14 124.26 16.644Z" fill="#333333"/>
</svg>
