<svg width="150" height="30" viewBox="0 0 150 30" fill="none" xmlns="http://www.w3.org/2000/svg">
<path d="M10.9 20.478C11.356 20.478 11.674 20.454 11.854 20.406C12.046 20.346 12.166 20.25 12.214 20.118C12.262 19.974 12.286 19.734 12.286 19.398V10.722C12.286 10.386 12.256 10.152 12.196 10.02C12.148 9.876 12.028 9.78 11.836 9.732C11.656 9.672 11.344 9.642 10.9 9.642V9.12H19.306V11.946H18.82C18.712 11.322 18.58 10.86 18.424 10.56C18.268 10.26 18.016 10.05 17.668 9.93C17.332 9.798 16.828 9.732 16.156 9.732H14.608C14.332 9.732 14.152 9.768 14.068 9.84C13.996 9.912 13.96 10.092 13.96 10.38V14.736H16.084C16.54 14.736 16.876 14.688 17.092 14.592C17.308 14.496 17.458 14.352 17.542 14.16C17.626 13.968 17.704 13.656 17.776 13.224H18.19V16.95H17.776C17.704 16.518 17.626 16.206 17.542 16.014C17.458 15.822 17.308 15.678 17.092 15.582C16.876 15.486 16.54 15.438 16.084 15.438H13.96V19.398C13.96 19.734 13.99 19.974 14.05 20.118C14.11 20.25 14.248 20.346 14.464 20.406C14.692 20.454 15.076 20.478 15.616 20.478V21H10.9V20.478ZM25.1078 12.36C25.5398 12.36 25.8698 12.486 26.0978 12.738C26.3378 12.99 26.4578 13.338 26.4578 13.782C26.4578 14.142 26.3738 14.424 26.2058 14.628C26.0378 14.832 25.7798 14.934 25.4318 14.934C25.1318 14.934 24.8978 14.856 24.7298 14.7C24.5738 14.544 24.4958 14.34 24.4958 14.088C24.4958 13.944 24.5198 13.824 24.5678 13.728C24.6158 13.632 24.6878 13.53 24.7838 13.422C24.8798 13.314 24.9278 13.23 24.9278 13.17C24.9278 13.062 24.8498 13.008 24.6938 13.008C24.4658 13.008 24.2198 13.122 23.9558 13.35C23.7038 13.578 23.4818 13.89 23.2898 14.286C23.0978 14.67 22.9778 15.09 22.9298 15.546V19.506C22.9298 19.818 22.9538 20.04 23.0018 20.172C23.0618 20.292 23.1818 20.376 23.3618 20.424C23.5418 20.46 23.8478 20.478 24.2798 20.478V21H20.1578V20.478C20.5538 20.478 20.8358 20.454 21.0038 20.406C21.1718 20.358 21.2738 20.274 21.3098 20.154C21.3578 20.034 21.3818 19.818 21.3818 19.506V14.142C21.3818 13.83 21.3458 13.626 21.2738 13.53C21.2018 13.422 21.0638 13.368 20.8598 13.368H20.2478V12.828L22.3718 12.468H22.8758V14.16H22.8938C23.1578 13.656 23.4578 13.23 23.7938 12.882C24.1298 12.534 24.5678 12.36 25.1078 12.36ZM35.2333 20.712C35.0053 20.856 34.7713 20.97 34.5313 21.054C34.2913 21.138 33.9793 21.18 33.5953 21.18C33.2353 21.18 32.9593 21.108 32.7673 20.964C32.5873 20.82 32.4793 20.508 32.4433 20.028C31.9993 20.412 31.5673 20.706 31.1473 20.91C30.7273 21.102 30.2593 21.198 29.7433 21.198C29.0833 21.198 28.5433 21.048 28.1233 20.748C27.7153 20.436 27.5113 19.986 27.5113 19.398C27.5113 18.558 27.9373 17.826 28.7893 17.202C29.6413 16.578 30.8593 16.14 32.4433 15.888V14.844C32.4433 14.232 32.3173 13.776 32.0653 13.476C31.8253 13.176 31.4053 13.026 30.8053 13.026C30.3853 13.026 30.0073 13.104 29.6713 13.26C29.3353 13.416 29.1673 13.572 29.1673 13.728C29.1673 13.812 29.2213 13.902 29.3293 13.998C29.4493 14.082 29.5393 14.172 29.5993 14.268C29.6713 14.352 29.7073 14.484 29.7073 14.664C29.7073 14.916 29.6353 15.12 29.4913 15.276C29.3473 15.42 29.1433 15.492 28.8793 15.492C28.6033 15.492 28.3813 15.408 28.2133 15.24C28.0573 15.072 27.9793 14.838 27.9793 14.538C27.9793 14.166 28.0993 13.818 28.3393 13.494C28.5913 13.17 28.9633 12.906 29.4553 12.702C29.9593 12.498 30.5713 12.396 31.2913 12.396C32.2033 12.396 32.8753 12.582 33.3073 12.954C33.7393 13.326 33.9553 13.974 33.9553 14.898V19.164C33.9553 19.632 34.0033 19.956 34.0993 20.136C34.2073 20.304 34.3753 20.388 34.6033 20.388C34.7473 20.388 34.9153 20.346 35.1073 20.262L35.2333 20.712ZM29.1313 18.966C29.1313 19.386 29.2513 19.704 29.4913 19.92C29.7313 20.124 30.0793 20.226 30.5353 20.226C30.8713 20.226 31.1893 20.154 31.4893 20.01C31.8013 19.866 32.1193 19.674 32.4433 19.434V16.464C31.3273 16.704 30.4933 17.028 29.9413 17.436C29.4013 17.832 29.1313 18.342 29.1313 18.966ZM44.1655 19.506C44.1655 19.806 44.1895 20.022 44.2375 20.154C44.2855 20.274 44.3935 20.358 44.5615 20.406C44.7295 20.454 45.0115 20.478 45.4075 20.478V21H41.4655V20.478C41.8495 20.478 42.1195 20.46 42.2755 20.424C42.4315 20.376 42.5335 20.292 42.5815 20.172C42.6295 20.052 42.6535 19.842 42.6535 19.542V15.168C42.6535 14.592 42.5155 14.13 42.2395 13.782C41.9755 13.422 41.5555 13.242 40.9795 13.242C40.5115 13.242 40.1155 13.356 39.7915 13.584C39.4675 13.8 39.1555 14.112 38.8555 14.52V19.542C38.8555 19.842 38.8795 20.058 38.9275 20.19C38.9755 20.31 39.0775 20.388 39.2335 20.424C39.3895 20.46 39.6535 20.478 40.0255 20.478V21H36.0835V20.478C36.4795 20.478 36.7615 20.454 36.9295 20.406C37.0975 20.358 37.1995 20.274 37.2355 20.154C37.2835 20.034 37.3075 19.818 37.3075 19.506V14.142C37.3075 13.83 37.2715 13.626 37.1995 13.53C37.1275 13.422 36.9895 13.368 36.7855 13.368H36.1735V12.828L38.2975 12.468H38.8015V13.8H38.8195C39.2275 13.32 39.6655 12.966 40.1335 12.738C40.6015 12.498 41.1355 12.378 41.7355 12.378C43.3555 12.378 44.1655 13.242 44.1655 14.97V19.506ZM54.9364 20.478V21H51.4444V20.478H51.7144C52.0024 20.478 52.1464 20.412 52.1464 20.28C52.1464 20.196 52.0264 19.98 51.7864 19.632L49.7164 16.842L49.0324 17.58V19.506C49.0324 19.806 49.0564 20.022 49.1044 20.154C49.1524 20.274 49.2604 20.358 49.4284 20.406C49.5964 20.454 49.8724 20.478 50.2564 20.478V21H46.2604V20.478C46.6564 20.478 46.9384 20.454 47.1064 20.406C47.2744 20.358 47.3824 20.274 47.4304 20.154C47.4784 20.022 47.5024 19.806 47.5024 19.506V10.218C47.5024 9.906 47.4664 9.702 47.3944 9.606C47.3224 9.498 47.1784 9.444 46.9624 9.444H46.3504V8.904L48.5284 8.544H49.0324V16.842L51.5344 14.088C51.8224 13.764 51.9664 13.518 51.9664 13.35C51.9664 13.182 51.8524 13.098 51.6244 13.098H51.2824V12.576H54.5584V13.098H54.3064C53.8384 13.098 53.4244 13.212 53.0644 13.44C52.7044 13.668 52.3024 14.028 51.8584 14.52L50.6884 15.798L53.1004 19.02C53.5324 19.608 53.8564 19.998 54.0724 20.19C54.3004 20.382 54.5284 20.478 54.7564 20.478H54.9364ZM60.1715 20.478C60.6035 20.478 60.9155 20.454 61.1075 20.406C61.2995 20.346 61.4195 20.25 61.4675 20.118C61.5275 19.986 61.5575 19.77 61.5575 19.47V10.668C61.5575 10.356 61.5275 10.134 61.4675 10.002C61.4075 9.87 61.2815 9.78 61.0895 9.732C60.9095 9.672 60.6035 9.642 60.1715 9.642V9.12H65.0135C66.2015 9.12 67.1315 9.366 67.8035 9.858C68.4755 10.35 68.8115 11.082 68.8115 12.054C68.8115 12.87 68.5775 13.53 68.1095 14.034C67.6535 14.538 67.0355 14.88 66.2555 15.06V15.096C66.8675 15.276 67.3175 15.57 67.6055 15.978C67.9055 16.386 68.1215 17.01 68.2535 17.85L68.3615 18.516C68.4815 19.188 68.6495 19.686 68.8655 20.01C69.0815 20.322 69.4175 20.478 69.8735 20.478V21H67.5335C67.2215 20.712 66.9815 20.16 66.8135 19.344L66.3815 17.13C66.2615 16.53 66.0395 16.098 65.7155 15.834C65.4035 15.558 64.9355 15.42 64.3115 15.42H63.2135V19.47C63.2135 19.77 63.2435 19.992 63.3035 20.136C63.3635 20.268 63.4955 20.358 63.6995 20.406C63.9035 20.454 64.2335 20.478 64.6895 20.478V21H60.1715V20.478ZM64.3475 14.772C65.2595 14.772 65.9315 14.574 66.3635 14.178C66.7955 13.77 67.0115 13.134 67.0115 12.27C67.0115 11.406 66.7895 10.77 66.3455 10.362C65.9015 9.954 65.2235 9.75 64.3115 9.75C63.8555 9.75 63.5555 9.804 63.4115 9.912C63.2795 10.008 63.2135 10.176 63.2135 10.416V14.772H64.3475ZM78.7199 19.506C78.7199 19.806 78.7439 20.022 78.7919 20.154C78.8399 20.274 78.9479 20.358 79.1159 20.406C79.2839 20.454 79.5599 20.478 79.9439 20.478V21H77.2259V19.74H77.1719V19.704C76.3919 20.712 75.4199 21.216 74.2559 21.216C72.6599 21.216 71.8619 20.358 71.8619 18.642V14.106C71.8619 13.794 71.8259 13.584 71.7539 13.476C71.6819 13.368 71.5379 13.314 71.3219 13.314H70.7099V12.792L72.8879 12.468H73.3919V18.354C73.3919 18.954 73.5239 19.434 73.7879 19.794C74.0639 20.154 74.4839 20.334 75.0479 20.334C75.8279 20.334 76.5359 19.878 77.1719 18.966L77.1899 14.106C77.1899 13.794 77.1539 13.584 77.0819 13.476C77.0099 13.368 76.8659 13.314 76.6499 13.314H76.0379V12.792L78.2159 12.468H78.7199V19.506ZM89.2501 19.506C89.2501 19.806 89.2741 20.022 89.3221 20.154C89.3701 20.274 89.4781 20.358 89.6461 20.406C89.8141 20.454 90.0961 20.478 90.4921 20.478V21H86.5501V20.478C86.9221 20.478 87.1861 20.454 87.3421 20.406C87.5101 20.358 87.6181 20.274 87.6661 20.154C87.7141 20.034 87.7381 19.83 87.7381 19.542V15.168C87.7381 14.592 87.6001 14.13 87.3241 13.782C87.0601 13.422 86.6341 13.242 86.0461 13.242C85.6021 13.242 85.2061 13.356 84.8581 13.584C84.5221 13.812 84.2101 14.142 83.9221 14.574V19.542C83.9221 19.83 83.9461 20.034 83.9941 20.154C84.0421 20.274 84.1441 20.358 84.3001 20.406C84.4681 20.454 84.7381 20.478 85.1101 20.478V21H81.1681V20.478C81.5641 20.478 81.8461 20.454 82.0141 20.406C82.1821 20.358 82.2841 20.274 82.3201 20.154C82.3681 20.034 82.3921 19.818 82.3921 19.506V10.218C82.3921 9.906 82.3561 9.702 82.2841 9.606C82.2121 9.498 82.0741 9.444 81.8701 9.444H81.2581V8.904L83.4181 8.544H83.9221V13.728H83.9761C84.3601 13.272 84.7801 12.936 85.2361 12.72C85.6921 12.492 86.2201 12.378 86.8201 12.378C88.4401 12.378 89.2501 13.242 89.2501 14.97V19.506ZM91.2763 20.478C91.6723 20.478 91.9543 20.454 92.1223 20.406C92.2903 20.358 92.3983 20.274 92.4463 20.154C92.4943 20.022 92.5183 19.806 92.5183 19.506V10.218C92.5183 9.906 92.4823 9.702 92.4103 9.606C92.3383 9.498 92.1943 9.444 91.9783 9.444H91.3663V8.904L93.5443 8.544H94.0483V19.506C94.0483 19.806 94.0723 20.022 94.1203 20.154C94.1683 20.274 94.2763 20.358 94.4443 20.406C94.6123 20.454 94.8883 20.478 95.2723 20.478V21H91.2763V20.478ZM101.005 20.478C101.461 20.478 101.779 20.454 101.959 20.406C102.151 20.358 102.271 20.268 102.319 20.136C102.367 19.992 102.391 19.746 102.391 19.398V10.722C102.391 10.386 102.361 10.152 102.301 10.02C102.253 9.876 102.133 9.78 101.941 9.732C101.761 9.672 101.449 9.642 101.005 9.642V9.12H105.469V9.642C105.013 9.642 104.689 9.672 104.497 9.732C104.305 9.78 104.179 9.876 104.119 10.02C104.071 10.152 104.047 10.386 104.047 10.722V18.948C104.047 19.392 104.101 19.716 104.209 19.92C104.329 20.112 104.533 20.238 104.821 20.298C105.109 20.358 105.571 20.388 106.207 20.388C106.915 20.388 107.461 20.322 107.845 20.19C108.229 20.058 108.529 19.824 108.745 19.488C108.961 19.14 109.147 18.618 109.303 17.922H109.771L109.573 21H101.005V20.478ZM113.051 10.884C112.763 10.884 112.523 10.794 112.331 10.614C112.151 10.422 112.061 10.188 112.061 9.912C112.061 9.624 112.151 9.384 112.331 9.192C112.523 9 112.763 8.904 113.051 8.904C113.351 8.904 113.591 9 113.771 9.192C113.951 9.384 114.041 9.624 114.041 9.912C114.041 10.188 113.945 10.422 113.753 10.614C113.573 10.794 113.339 10.884 113.051 10.884ZM111.107 20.478C111.503 20.478 111.785 20.454 111.953 20.406C112.121 20.358 112.223 20.274 112.259 20.154C112.307 20.034 112.331 19.818 112.331 19.506V14.142C112.331 13.83 112.295 13.626 112.223 13.53C112.163 13.422 112.025 13.368 111.809 13.368H111.197V12.828L113.375 12.468H113.879V19.506C113.879 19.818 113.903 20.04 113.951 20.172C113.999 20.292 114.101 20.376 114.257 20.424C114.425 20.46 114.707 20.478 115.103 20.478V21H111.107V20.478ZM121.815 12.378C122.871 12.378 123.675 12.738 124.227 13.458C124.791 14.166 125.073 15.216 125.073 16.608C125.073 18.18 124.737 19.344 124.065 20.1C123.393 20.844 122.469 21.216 121.293 21.216C120.393 21.216 119.577 20.934 118.845 20.37H118.701L118.161 21H117.603V10.29C117.603 9.942 117.561 9.72 117.477 9.624C117.405 9.516 117.237 9.462 116.973 9.462H116.415V8.922L118.629 8.544H119.133V13.26H119.169C119.913 12.672 120.795 12.378 121.815 12.378ZM121.077 20.64C121.833 20.64 122.403 20.34 122.787 19.74C123.183 19.128 123.381 18.168 123.381 16.86C123.381 14.364 122.649 13.116 121.185 13.116C120.789 13.116 120.423 13.2 120.087 13.368C119.763 13.536 119.445 13.758 119.133 14.034V19.74C119.709 20.34 120.357 20.64 121.077 20.64ZM131.543 12.36C131.975 12.36 132.305 12.486 132.533 12.738C132.773 12.99 132.893 13.338 132.893 13.782C132.893 14.142 132.809 14.424 132.641 14.628C132.473 14.832 132.215 14.934 131.867 14.934C131.567 14.934 131.333 14.856 131.165 14.7C131.009 14.544 130.931 14.34 130.931 14.088C130.931 13.944 130.955 13.824 131.003 13.728C131.051 13.632 131.123 13.53 131.219 13.422C131.315 13.314 131.363 13.23 131.363 13.17C131.363 13.062 131.285 13.008 131.129 13.008C130.901 13.008 130.655 13.122 130.391 13.35C130.139 13.578 129.917 13.89 129.725 14.286C129.533 14.67 129.413 15.09 129.365 15.546V19.506C129.365 19.818 129.389 20.04 129.437 20.172C129.497 20.292 129.617 20.376 129.797 20.424C129.977 20.46 130.283 20.478 130.715 20.478V21H126.593V20.478C126.989 20.478 127.271 20.454 127.439 20.406C127.607 20.358 127.709 20.274 127.745 20.154C127.793 20.034 127.817 19.818 127.817 19.506V14.142C127.817 13.83 127.781 13.626 127.709 13.53C127.637 13.422 127.499 13.368 127.295 13.368H126.683V12.828L128.807 12.468H129.311V14.16H129.329C129.593 13.656 129.893 13.23 130.229 12.882C130.565 12.534 131.003 12.36 131.543 12.36ZM140.94 16.86H135.216C135.24 17.976 135.438 18.858 135.81 19.506C136.194 20.154 136.866 20.478 137.826 20.478C138.522 20.478 139.074 20.298 139.482 19.938C139.89 19.578 140.19 19.116 140.382 18.552L140.886 18.768C140.634 19.5 140.244 20.088 139.716 20.532C139.188 20.976 138.402 21.198 137.358 21.198C136.074 21.198 135.114 20.826 134.478 20.082C133.854 19.338 133.542 18.27 133.542 16.878C133.542 15.45 133.866 14.346 134.514 13.566C135.162 12.774 136.116 12.378 137.376 12.378C139.752 12.378 140.94 13.818 140.94 16.698V16.86ZM139.266 16.284C139.266 15.144 139.128 14.304 138.852 13.764C138.576 13.212 138.09 12.936 137.394 12.936C136.686 12.936 136.158 13.218 135.81 13.782C135.462 14.334 135.264 15.168 135.216 16.284H139.266Z" fill="#333333"/>
</svg>
