<svg width="150" height="30" viewBox="0 0 150 30" fill="none" xmlns="http://www.w3.org/2000/svg">
<path d="M19.1406 19.4883H20.248L19.1934 16.4648H14.0693L13.041 19.4883H14.4121V21H10.0879V19.4883H11.248L15.3965 7.67578H17.9893L22.1289 19.4883H23.4648V21H19.1406V19.4883ZM14.5703 15.0059H18.6836L16.6094 9.04688L14.5703 15.0059ZM30.9795 13.8193H29.3096V13.2568C29.1162 13.2568 28.917 13.2949 28.7119 13.3711C28.5127 13.4414 28.3252 13.5527 28.1494 13.7051C27.9736 13.8516 27.8184 14.042 27.6836 14.2764C27.5547 14.5049 27.4609 14.7773 27.4023 15.0938V19.4883H28.9492V21H24.4316V19.4883H25.6885L25.6973 13.4062H24.4316V11.8945H27.3408V13.1514C27.4463 12.9639 27.5635 12.791 27.6924 12.6328C27.8271 12.4688 27.9736 12.3281 28.1318 12.2109C28.2959 12.0879 28.4746 11.9941 28.668 11.9297C28.8672 11.8594 29.0811 11.8242 29.3096 11.8242C29.6143 11.8242 29.9014 11.8242 30.1709 11.8242C30.4404 11.8242 30.71 11.8301 30.9795 11.8418V13.8193ZM32.166 11.8945H35.3125V13.4062H34.46L36.71 19.6816L38.9072 13.4062H38.3535V11.8945H41.2363V13.4062H40.4541L37.4746 21.1406H35.8574L32.8867 13.4062H32.166V11.8945ZM42.4141 16.4473C42.4199 15.7266 42.5342 15.0703 42.7568 14.4785C42.9854 13.8867 43.3018 13.3799 43.7061 12.958C44.1104 12.5303 44.5908 12.2021 45.1475 11.9736C45.7041 11.7451 46.3164 11.6309 46.9844 11.6309C47.6582 11.6309 48.2734 11.7451 48.8301 11.9736C49.3926 12.2021 49.873 12.5273 50.2715 12.9492C50.6699 13.3652 50.9805 13.8691 51.2031 14.4609C51.4258 15.0527 51.5371 15.709 51.5371 16.4297C51.5371 17.1387 51.4258 17.792 51.2031 18.3896C50.9805 18.9814 50.6699 19.4912 50.2715 19.9189C49.873 20.3467 49.3926 20.6807 48.8301 20.9209C48.2734 21.1553 47.6582 21.2725 46.9844 21.2725C46.2988 21.2725 45.6777 21.1553 45.1211 20.9209C44.5645 20.6865 44.0869 20.3584 43.6885 19.9365C43.29 19.5088 42.9795 18.999 42.7568 18.4072C42.5342 17.8154 42.4199 17.1621 42.4141 16.4473ZM44.1455 16.4473C44.1455 16.9688 44.2188 17.4404 44.3652 17.8623C44.5176 18.2842 44.7227 18.6445 44.9805 18.9434C45.2441 19.2363 45.5459 19.4648 45.8857 19.6289C46.2314 19.7871 46.5977 19.8662 46.9844 19.8662C47.3887 19.8662 47.7637 19.7871 48.1094 19.6289C48.4609 19.4707 48.7656 19.2451 49.0234 18.9521C49.2812 18.6533 49.4834 18.293 49.6299 17.8711C49.7764 17.4492 49.8496 16.9746 49.8496 16.4473C49.8496 15.8965 49.7764 15.4072 49.6299 14.9795C49.4834 14.5518 49.2812 14.1943 49.0234 13.9072C48.7715 13.6201 48.4697 13.4033 48.1182 13.2568C47.7666 13.1104 47.3887 13.0371 46.9844 13.0371C46.5977 13.0371 46.2314 13.1104 45.8857 13.2568C45.5459 13.4033 45.2441 13.6201 44.9805 13.9072C44.7227 14.1943 44.5176 14.5518 44.3652 14.9795C44.2188 15.4072 44.1455 15.8965 44.1455 16.4473Z" fill="#333333"/>
</svg>
