<svg width="150" height="30" viewBox="0 0 150 30" fill="none" xmlns="http://www.w3.org/2000/svg">
<rect width="150" height="30" fill="white"/>
<path d="M13.9333 21.2222C12.8074 21.2222 11.763 21.0148 10.8 20.6V18.1111H12V19.7556C12.5185 19.9481 13.2 20.0444 14.0444 20.0444C14.8593 20.0444 15.4889 19.8593 15.9333 19.4889C16.3926 19.1037 16.6222 18.5852 16.6222 17.9333C16.6222 17.5926 16.5556 17.3037 16.4222 17.0667C16.3037 16.8148 16.1333 16.6 15.9111 16.4222C15.7037 16.2296 15.437 16.0593 15.1111 15.9111C14.7852 15.7481 14.4148 15.5852 14 15.4222C13.6 15.2741 13.2 15.1185 12.8 14.9556C12.4148 14.7778 12.0593 14.563 11.7333 14.3111C11.4222 14.0593 11.163 13.7407 10.9556 13.3556C10.763 12.9704 10.6667 12.5111 10.6667 11.9778C10.6667 11.0148 11.0222 10.2444 11.7333 9.66667C12.4444 9.07407 13.4074 8.77778 14.6222 8.77778C15.6889 8.77778 16.6667 9 17.5556 9.44444V11.8889H16.3556V10.2889C15.8222 10.0667 15.2074 9.95555 14.5111 9.95555C13.6963 9.95555 13.0815 10.1481 12.6667 10.5333C12.2519 10.9185 12.0444 11.3778 12.0444 11.9111C12.0444 12.237 12.1037 12.5185 12.2222 12.7556C12.3556 12.9778 12.5333 13.1778 12.7556 13.3556C12.9926 13.5333 13.2741 13.6889 13.6 13.8222C13.9407 13.9556 14.3185 14.1037 14.7333 14.2667C15.1481 14.4296 15.5481 14.6074 15.9333 14.8C16.3333 14.9778 16.6815 15.2 16.9778 15.4667C17.2889 15.7185 17.5333 16.037 17.7111 16.4222C17.9037 16.7926 18 17.2667 18 17.8444C18 18.8667 17.6296 19.6889 16.8889 20.3111C16.163 20.9185 15.1778 21.2222 13.9333 21.2222ZM19.3327 19.8889H20.4438V8.77778H19.3327V7.66667H21.7771V19.8889H22.8882V21H19.3327V19.8889ZM24.6576 12.9778C25.6798 12.4 26.7242 12.1111 27.7909 12.1111C28.7094 12.1111 29.4131 12.3259 29.902 12.7556C30.4057 13.1704 30.6576 13.837 30.6576 14.7556V19.8889H31.7687V21H29.4576L29.3909 20L29.3464 19.9778C28.6353 20.8074 27.7613 21.2222 26.7242 21.2222C25.9538 21.2222 25.339 21 24.8798 20.5556C24.4353 20.0963 24.2131 19.5185 24.2131 18.8222C24.2131 17.8889 24.6131 17.1926 25.4131 16.7333C26.2279 16.2741 27.4057 16.0444 28.9464 16.0444H29.3242V14.7333C29.3242 14.1852 29.1909 13.8 28.9242 13.5778C28.6724 13.3407 28.2427 13.2222 27.6353 13.2222C26.9094 13.2222 26.302 13.3407 25.8131 13.5778V14.7778H24.6576V12.9778ZM28.7909 17C27.7687 17 26.9835 17.1333 26.4353 17.4C25.8872 17.6519 25.6131 18.1037 25.6131 18.7556C25.6131 19.2296 25.7464 19.5778 26.0131 19.8C26.2798 20.0074 26.6205 20.1111 27.0353 20.1111C27.9242 20.1111 28.6872 19.7481 29.3242 19.0222V17H28.7909ZM34.9902 19.9778C35.4347 20.0667 35.8717 20.1111 36.3013 20.1111C37.1902 20.1111 37.8643 19.837 38.3236 19.2889C38.7976 18.7407 39.0347 17.8667 39.0347 16.6667C39.0347 15.6 38.8495 14.763 38.4791 14.1556C38.1236 13.5333 37.5754 13.2222 36.8347 13.2222C36.1828 13.2222 35.568 13.4667 34.9902 13.9556V19.9778ZM34.9902 12.8889L35.0347 12.9111C35.6569 12.3778 36.3902 12.1111 37.2347 12.1111C38.1976 12.1111 38.968 12.5185 39.5458 13.3333C40.1384 14.1481 40.4347 15.1926 40.4347 16.4667C40.4347 17.9481 40.0569 19.1111 39.3013 19.9556C38.5606 20.8 37.5384 21.2222 36.2347 21.2222C35.3902 21.2222 34.531 21.0815 33.6569 20.8V8.77778H32.5458V7.66667H34.9902V12.8889ZM42.102 16.7111C42.102 15.3037 42.4427 14.1852 43.1242 13.3556C43.8205 12.5259 44.6946 12.1111 45.7464 12.1111C46.7983 12.1111 47.6353 12.4963 48.2576 13.2667C48.8946 14.037 49.2131 15.1185 49.2131 16.5111C49.2131 17.9333 48.8798 19.0741 48.2131 19.9333C47.5464 20.7926 46.6724 21.2222 45.5909 21.2222C44.5242 21.2222 43.6724 20.8148 43.0353 20C42.4131 19.1704 42.102 18.0741 42.102 16.7111ZM43.502 16.5111C43.502 17.6815 43.6872 18.5778 44.0576 19.2C44.4427 19.8074 44.9909 20.1111 45.702 20.1111C46.3687 20.1111 46.8872 19.8296 47.2576 19.2667C47.6279 18.6889 47.8131 17.8148 47.8131 16.6444C47.8131 14.363 47.0872 13.2222 45.6353 13.2222C44.939 13.2222 44.4057 13.4889 44.0353 14.0222C43.6798 14.5407 43.502 15.3704 43.502 16.5111Z" fill="#333333"/>
</svg>
