<svg width="150" height="30" viewBox="0 0 150 30" fill="none" xmlns="http://www.w3.org/2000/svg">
<rect width="150" height="30" fill="white"/>
<path d="M11.62 21V8.22H17.002C17.554 8.22 18.064 8.34 18.532 8.58C19 8.808 19.402 9.114 19.738 9.498C20.074 9.87 20.332 10.296 20.512 10.776C20.704 11.256 20.8 11.742 20.8 12.234C20.8 12.702 20.728 13.152 20.584 13.584C20.452 14.004 20.26 14.388 20.008 14.736C19.756 15.072 19.456 15.36 19.108 15.6C18.76 15.828 18.37 15.984 17.938 16.068L21.088 21H19.666L16.642 16.284H12.862V21H11.62ZM12.862 15.168H17.056C17.428 15.168 17.764 15.09 18.064 14.934C18.376 14.766 18.64 14.544 18.856 14.268C19.072 13.992 19.24 13.68 19.36 13.332C19.48 12.984 19.54 12.618 19.54 12.234C19.54 11.85 19.468 11.484 19.324 11.136C19.192 10.776 19.006 10.464 18.766 10.2C18.538 9.936 18.262 9.726 17.938 9.57C17.626 9.414 17.296 9.336 16.948 9.336H12.862V15.168ZM25.505 21.18C25.025 21.18 24.587 21.108 24.191 20.964C23.795 20.808 23.453 20.598 23.165 20.334C22.889 20.07 22.673 19.764 22.517 19.416C22.361 19.068 22.283 18.702 22.283 18.318C22.283 17.886 22.379 17.496 22.571 17.148C22.763 16.788 23.033 16.482 23.381 16.23C23.729 15.978 24.143 15.786 24.623 15.654C25.115 15.51 25.655 15.438 26.243 15.438C26.711 15.438 27.191 15.48 27.683 15.564C28.175 15.648 28.613 15.768 28.997 15.924V15.078C28.997 14.25 28.757 13.596 28.277 13.116C27.809 12.624 27.173 12.378 26.369 12.378C25.865 12.378 25.361 12.474 24.857 12.666C24.365 12.858 23.861 13.134 23.345 13.494L22.913 12.684C23.525 12.276 24.119 11.97 24.695 11.766C25.271 11.562 25.871 11.46 26.495 11.46C27.635 11.46 28.541 11.79 29.213 12.45C29.885 13.11 30.221 14.022 30.221 15.186V19.416C30.221 19.752 30.365 19.92 30.653 19.92V21C30.557 21.012 30.467 21.018 30.383 21.018C30.299 21.03 30.227 21.036 30.167 21.036C29.927 21.036 29.705 20.964 29.501 20.82C29.309 20.676 29.201 20.46 29.177 20.172L29.141 19.434C28.733 19.986 28.193 20.418 27.521 20.73C26.861 21.03 26.189 21.18 25.505 21.18ZM25.811 20.244C26.351 20.244 26.885 20.13 27.413 19.902C27.953 19.662 28.379 19.338 28.691 18.93C28.775 18.822 28.847 18.708 28.907 18.588C28.967 18.456 28.997 18.336 28.997 18.228V16.698C28.589 16.542 28.163 16.422 27.719 16.338C27.275 16.254 26.843 16.212 26.423 16.212C25.547 16.212 24.833 16.392 24.281 16.752C23.741 17.1 23.471 17.586 23.471 18.21C23.471 18.462 23.519 18.708 23.615 18.948C23.711 19.188 23.855 19.404 24.047 19.596C24.251 19.788 24.497 19.944 24.785 20.064C25.073 20.184 25.415 20.244 25.811 20.244ZM32.9364 7.86H34.1604V18.876C34.1604 19.224 34.2564 19.5 34.4484 19.704C34.6404 19.896 34.9104 19.992 35.2584 19.992C35.3904 19.992 35.5464 19.974 35.7264 19.938C35.9064 19.902 36.0744 19.854 36.2304 19.794L36.4464 20.784C36.2184 20.88 35.9364 20.958 35.6004 21.018C35.2764 21.078 34.9944 21.108 34.7544 21.108C34.1904 21.108 33.7464 20.952 33.4224 20.64C33.0984 20.316 32.9364 19.866 32.9364 19.29V7.86ZM41.7325 21.18C41.0485 21.18 40.4185 21.054 39.8425 20.802C39.2665 20.538 38.7685 20.184 38.3485 19.74C37.9285 19.284 37.5985 18.762 37.3585 18.174C37.1305 17.586 37.0165 16.956 37.0165 16.284C37.0165 15.624 37.1305 15.006 37.3585 14.43C37.5985 13.842 37.9285 13.332 38.3485 12.9C38.7685 12.456 39.2605 12.108 39.8245 11.856C40.4005 11.592 41.0305 11.46 41.7145 11.46C42.3985 11.46 43.0225 11.592 43.5865 11.856C44.1625 12.108 44.6545 12.456 45.0625 12.9C45.4705 13.344 45.7885 13.854 46.0165 14.43C46.2445 15.006 46.3585 15.618 46.3585 16.266C46.3585 16.362 46.3525 16.458 46.3405 16.554C46.3405 16.65 46.3345 16.716 46.3225 16.752H38.3125C38.3485 17.256 38.4625 17.724 38.6545 18.156C38.8585 18.576 39.1105 18.942 39.4105 19.254C39.7225 19.566 40.0765 19.812 40.4725 19.992C40.8805 20.16 41.3125 20.244 41.7685 20.244C42.0805 20.244 42.3865 20.202 42.6865 20.118C42.9865 20.034 43.2625 19.92 43.5145 19.776C43.7665 19.632 43.9885 19.458 44.1805 19.254C44.3845 19.038 44.5405 18.804 44.6485 18.552L45.7105 18.84C45.5665 19.188 45.3625 19.506 45.0985 19.794C44.8345 20.07 44.5285 20.316 44.1805 20.532C43.8325 20.736 43.4485 20.892 43.0285 21C42.6085 21.12 42.1765 21.18 41.7325 21.18ZM45.1885 15.816C45.1525 15.312 45.0325 14.856 44.8285 14.448C44.6365 14.028 44.3845 13.668 44.0725 13.368C43.7725 13.068 43.4185 12.834 43.0105 12.666C42.6025 12.498 42.1705 12.414 41.7145 12.414C41.2585 12.414 40.8265 12.498 40.4185 12.666C40.0105 12.834 39.6505 13.068 39.3385 13.368C39.0385 13.668 38.7925 14.028 38.6005 14.448C38.4205 14.868 38.3125 15.324 38.2765 15.816H45.1885ZM59.7917 11.622H60.9797L56.9657 21H55.9397L53.9417 16.212L51.9437 21H50.9177L46.9037 11.622H48.0737L51.4937 19.74L53.2757 15.456L51.6737 11.64H52.7177L53.9417 14.7L55.1477 11.64H56.1917L54.6077 15.456L56.3897 19.74L59.7917 11.622ZM64.8273 21.18C64.3473 21.18 63.9093 21.108 63.5133 20.964C63.1173 20.808 62.7753 20.598 62.4873 20.334C62.2113 20.07 61.9953 19.764 61.8393 19.416C61.6833 19.068 61.6053 18.702 61.6053 18.318C61.6053 17.886 61.7013 17.496 61.8933 17.148C62.0853 16.788 62.3553 16.482 62.7033 16.23C63.0513 15.978 63.4653 15.786 63.9453 15.654C64.4373 15.51 64.9773 15.438 65.5653 15.438C66.0333 15.438 66.5133 15.48 67.0053 15.564C67.4973 15.648 67.9353 15.768 68.3193 15.924V15.078C68.3193 14.25 68.0793 13.596 67.5993 13.116C67.1313 12.624 66.4953 12.378 65.6913 12.378C65.1873 12.378 64.6833 12.474 64.1793 12.666C63.6873 12.858 63.1833 13.134 62.6673 13.494L62.2353 12.684C62.8473 12.276 63.4413 11.97 64.0173 11.766C64.5933 11.562 65.1933 11.46 65.8173 11.46C66.9573 11.46 67.8633 11.79 68.5353 12.45C69.2073 13.11 69.5433 14.022 69.5433 15.186V19.416C69.5433 19.752 69.6873 19.92 69.9753 19.92V21C69.8793 21.012 69.7893 21.018 69.7053 21.018C69.6213 21.03 69.5493 21.036 69.4893 21.036C69.2493 21.036 69.0273 20.964 68.8233 20.82C68.6313 20.676 68.5233 20.46 68.4993 20.172L68.4633 19.434C68.0553 19.986 67.5153 20.418 66.8433 20.73C66.1833 21.03 65.5113 21.18 64.8273 21.18ZM65.1333 20.244C65.6733 20.244 66.2073 20.13 66.7353 19.902C67.2753 19.662 67.7013 19.338 68.0133 18.93C68.0973 18.822 68.1693 18.708 68.2293 18.588C68.2893 18.456 68.3193 18.336 68.3193 18.228V16.698C67.9113 16.542 67.4853 16.422 67.0413 16.338C66.5973 16.254 66.1653 16.212 65.7453 16.212C64.8693 16.212 64.1553 16.392 63.6033 16.752C63.0633 17.1 62.7933 17.586 62.7933 18.21C62.7933 18.462 62.8413 18.708 62.9373 18.948C63.0333 19.188 63.1773 19.404 63.3693 19.596C63.5733 19.788 63.8193 19.944 64.1073 20.064C64.3953 20.184 64.7373 20.244 65.1333 20.244ZM72.4458 23.898C72.5058 23.91 72.5658 23.916 72.6258 23.916C72.6858 23.928 72.7458 23.934 72.8058 23.934C72.9258 23.934 73.0518 23.922 73.1838 23.898C73.3278 23.874 73.4298 23.85 73.4898 23.826C73.5498 23.802 73.6098 23.748 73.6698 23.664C73.7418 23.592 73.8258 23.454 73.9218 23.25C74.0298 23.058 74.1618 22.782 74.3178 22.422C74.4738 22.074 74.6718 21.6 74.9118 21L70.8258 11.622H72.1038L75.5778 19.866L78.7818 11.622H79.9518L75.0738 23.718C74.8938 24.162 74.6478 24.492 74.3358 24.708C74.0358 24.924 73.6098 25.032 73.0578 25.032C72.8298 25.032 72.6258 25.014 72.4458 24.978V23.898Z" fill="#333333"/>
</svg>
