<svg width="150" height="30" viewBox="0 0 150 30" fill="none" xmlns="http://www.w3.org/2000/svg">
<rect width="150" height="30" fill="white"/>
<path d="M13.888 16.852V20.092C13.888 20.548 13.936 20.878 14.032 21.082C14.128 21.286 14.296 21.424 14.536 21.496C14.776 21.568 15.166 21.616 15.706 21.64V22C15.082 21.964 14.2 21.946 13.06 21.946C12.028 21.946 11.26 21.964 10.756 22V21.64C11.188 21.616 11.5 21.568 11.692 21.496C11.896 21.424 12.034 21.286 12.106 21.082C12.178 20.878 12.214 20.548 12.214 20.092V11.164C12.214 10.708 12.178 10.378 12.106 10.174C12.034 9.97 11.896 9.832 11.692 9.76C11.5 9.688 11.188 9.64 10.756 9.616V9.256C11.26 9.292 11.992 9.31 12.952 9.31L14.896 9.292C15.124 9.28 15.382 9.274 15.67 9.274C17.074 9.274 18.148 9.598 18.892 10.246C19.636 10.882 20.008 11.74 20.008 12.82C20.008 13.48 19.858 14.116 19.558 14.728C19.27 15.328 18.772 15.832 18.064 16.24C17.368 16.648 16.438 16.852 15.274 16.852H13.888ZM15.22 9.616C14.848 9.616 14.566 9.658 14.374 9.742C14.194 9.826 14.068 9.976 13.996 10.192C13.924 10.408 13.888 10.732 13.888 11.164V16.492H15.094C16.27 16.492 17.08 16.18 17.524 15.556C17.98 14.92 18.208 14.074 18.208 13.018C18.208 11.854 17.974 10.996 17.506 10.444C17.05 9.892 16.288 9.616 15.22 9.616ZM23.7551 20.326C23.7551 20.818 23.8571 21.16 24.0611 21.352C24.2651 21.532 24.6191 21.622 25.1231 21.622V22C24.0191 21.952 23.2931 21.928 22.9451 21.928C22.5971 21.928 21.8711 21.952 20.7671 22V21.622C21.2711 21.622 21.6251 21.532 21.8291 21.352C22.0331 21.16 22.1351 20.818 22.1351 20.326V10.048C22.1351 9.496 22.0331 9.094 21.8291 8.842C21.6251 8.59 21.2711 8.464 20.7671 8.464V8.086C21.1391 8.122 21.5111 8.14 21.8831 8.14C22.6391 8.14 23.2631 8.056 23.7551 7.888V20.326ZM28.4555 22.126C27.6995 22.126 27.1355 21.94 26.7635 21.568C26.4035 21.184 26.2235 20.656 26.2235 19.984C26.2235 19.444 26.3675 19 26.6555 18.652C26.9555 18.304 27.3035 18.028 27.6995 17.824C28.1075 17.62 28.6415 17.404 29.3015 17.176C29.9735 16.948 30.4715 16.738 30.7955 16.546C31.1195 16.354 31.2815 16.096 31.2815 15.772V14.656C31.2815 13.96 31.1315 13.486 30.8315 13.234C30.5435 12.97 30.1355 12.838 29.6075 12.838C28.7675 12.838 28.1735 13.054 27.8255 13.486C28.0655 13.546 28.2635 13.672 28.4195 13.864C28.5875 14.056 28.6715 14.296 28.6715 14.584C28.6715 14.884 28.5755 15.124 28.3835 15.304C28.1915 15.472 27.9455 15.556 27.6455 15.556C27.3095 15.556 27.0575 15.454 26.8895 15.25C26.7215 15.034 26.6375 14.776 26.6375 14.476C26.6375 14.188 26.7035 13.948 26.8355 13.756C26.9795 13.564 27.1895 13.372 27.4655 13.18C27.7535 12.976 28.1195 12.808 28.5635 12.676C29.0075 12.544 29.4935 12.478 30.0215 12.478C30.9575 12.478 31.6655 12.7 32.1455 13.144C32.4455 13.42 32.6435 13.756 32.7395 14.152C32.8475 14.536 32.9015 15.046 32.9015 15.682V20.686C32.9015 20.986 32.9435 21.202 33.0275 21.334C33.1115 21.466 33.2555 21.532 33.4595 21.532C33.6035 21.532 33.7355 21.502 33.8555 21.442C33.9875 21.37 34.1255 21.274 34.2695 21.154L34.4675 21.46C34.1555 21.7 33.8855 21.874 33.6575 21.982C33.4415 22.078 33.1655 22.126 32.8295 22.126C32.2535 22.126 31.8515 21.982 31.6235 21.694C31.3955 21.406 31.2815 21.016 31.2815 20.524C30.9215 21.124 30.5075 21.544 30.0395 21.784C29.5715 22.012 29.0435 22.126 28.4555 22.126ZM29.2475 21.406C30.0395 21.406 30.7175 20.95 31.2815 20.038V16.51C31.1735 16.678 31.0235 16.816 30.8315 16.924C30.6395 17.032 30.3455 17.176 29.9495 17.356C29.4935 17.548 29.1215 17.734 28.8335 17.914C28.5575 18.082 28.3175 18.316 28.1135 18.616C27.9095 18.916 27.8075 19.3 27.8075 19.768C27.8075 20.308 27.9395 20.716 28.2035 20.992C28.4675 21.268 28.8155 21.406 29.2475 21.406ZM41.9049 12.784C42.4329 12.784 42.8889 12.766 43.2729 12.73V13.09C43.0329 13.114 42.8169 13.222 42.6249 13.414C42.4449 13.606 42.2709 13.918 42.1029 14.35L39.1509 22.09L38.5389 23.656C38.3109 24.244 38.0529 24.664 37.7649 24.916C37.5849 25.084 37.3689 25.204 37.1169 25.276C36.8649 25.348 36.6129 25.384 36.3609 25.384C36.0009 25.384 35.7069 25.288 35.4789 25.096C35.2509 24.904 35.1369 24.64 35.1369 24.304C35.1369 24.016 35.2209 23.782 35.3889 23.602C35.5569 23.434 35.7909 23.35 36.0909 23.35C36.3549 23.35 36.5709 23.422 36.7389 23.566C36.9189 23.722 37.0089 23.932 37.0089 24.196C37.0089 24.556 36.8469 24.826 36.5229 25.006C36.5469 25.018 36.5829 25.024 36.6309 25.024C37.2909 25.024 37.8009 24.556 38.1609 23.62L38.7909 21.982L35.5329 14.116C35.3289 13.708 35.1249 13.438 34.9209 13.306C34.7169 13.174 34.5129 13.108 34.3089 13.108V12.73C34.8249 12.802 35.4129 12.838 36.0729 12.838C36.6729 12.838 37.4529 12.802 38.4129 12.73V13.108C37.9809 13.108 37.6629 13.144 37.4589 13.216C37.2669 13.288 37.1709 13.462 37.1709 13.738C37.1709 13.99 37.2429 14.284 37.3869 14.62L39.5469 19.984L41.5449 14.782C41.6769 14.422 41.7429 14.146 41.7429 13.954C41.7429 13.678 41.6349 13.474 41.4189 13.342C41.2029 13.21 40.8609 13.126 40.3929 13.09V12.73C41.0289 12.766 41.5329 12.784 41.9049 12.784ZM48.2961 7.924C48.9201 7.924 49.4421 8.086 49.8621 8.41C50.2341 8.71 50.4201 9.082 50.4201 9.526C50.4201 9.802 50.3301 10.03 50.1501 10.21C49.9701 10.39 49.7421 10.48 49.4661 10.48C49.1901 10.48 48.9561 10.396 48.7641 10.228C48.5721 10.048 48.4761 9.808 48.4761 9.508C48.4761 9.256 48.5421 9.052 48.6741 8.896C48.8181 8.74 49.0041 8.638 49.2321 8.59C49.1961 8.47 49.1001 8.374 48.9441 8.302C48.7881 8.23 48.5901 8.194 48.3501 8.194C48.0861 8.194 47.8521 8.254 47.6481 8.374C47.4441 8.494 47.2881 8.656 47.1801 8.86C47.0481 9.1 46.9581 9.454 46.9101 9.922C46.8741 10.39 46.8561 11.176 46.8561 12.28V12.748H48.7821V13.108H46.8561V20.146C46.8561 20.698 47.0121 21.082 47.3241 21.298C47.6481 21.514 48.1281 21.622 48.7641 21.622V22L48.3321 21.982C47.1081 21.946 46.3281 21.928 45.9921 21.928C45.6801 21.928 44.9721 21.952 43.8681 22V21.622C44.3721 21.622 44.7261 21.532 44.9301 21.352C45.1341 21.16 45.2361 20.818 45.2361 20.326V13.108H43.7961V12.748H45.2361C45.2361 11.692 45.3021 10.876 45.4341 10.3C45.5661 9.724 45.8061 9.232 46.1541 8.824C46.3941 8.548 46.7001 8.332 47.0721 8.176C47.4441 8.008 47.8521 7.924 48.2961 7.924ZM52.2387 22.126C51.4827 22.126 50.9187 21.94 50.5467 21.568C50.1867 21.184 50.0067 20.656 50.0067 19.984C50.0067 19.444 50.1507 19 50.4387 18.652C50.7387 18.304 51.0867 18.028 51.4827 17.824C51.8907 17.62 52.4247 17.404 53.0847 17.176C53.7567 16.948 54.2547 16.738 54.5787 16.546C54.9027 16.354 55.0647 16.096 55.0647 15.772V14.656C55.0647 13.96 54.9147 13.486 54.6147 13.234C54.3267 12.97 53.9187 12.838 53.3907 12.838C52.5507 12.838 51.9567 13.054 51.6087 13.486C51.8487 13.546 52.0467 13.672 52.2027 13.864C52.3707 14.056 52.4547 14.296 52.4547 14.584C52.4547 14.884 52.3587 15.124 52.1667 15.304C51.9747 15.472 51.7287 15.556 51.4287 15.556C51.0927 15.556 50.8407 15.454 50.6727 15.25C50.5047 15.034 50.4207 14.776 50.4207 14.476C50.4207 14.188 50.4867 13.948 50.6187 13.756C50.7627 13.564 50.9727 13.372 51.2487 13.18C51.5367 12.976 51.9027 12.808 52.3467 12.676C52.7907 12.544 53.2767 12.478 53.8047 12.478C54.7407 12.478 55.4487 12.7 55.9287 13.144C56.2287 13.42 56.4267 13.756 56.5227 14.152C56.6307 14.536 56.6847 15.046 56.6847 15.682V20.686C56.6847 20.986 56.7267 21.202 56.8107 21.334C56.8947 21.466 57.0387 21.532 57.2427 21.532C57.3867 21.532 57.5187 21.502 57.6387 21.442C57.7707 21.37 57.9087 21.274 58.0527 21.154L58.2507 21.46C57.9387 21.7 57.6687 21.874 57.4407 21.982C57.2247 22.078 56.9487 22.126 56.6127 22.126C56.0367 22.126 55.6347 21.982 55.4067 21.694C55.1787 21.406 55.0647 21.016 55.0647 20.524C54.7047 21.124 54.2907 21.544 53.8227 21.784C53.3547 22.012 52.8267 22.126 52.2387 22.126ZM53.0307 21.406C53.8227 21.406 54.5007 20.95 55.0647 20.038V16.51C54.9567 16.678 54.8067 16.816 54.6147 16.924C54.4227 17.032 54.1287 17.176 53.7327 17.356C53.2767 17.548 52.9047 17.734 52.6167 17.914C52.3407 18.082 52.1007 18.316 51.8967 18.616C51.6927 18.916 51.5907 19.3 51.5907 19.768C51.5907 20.308 51.7227 20.716 51.9867 20.992C52.2507 21.268 52.5987 21.406 53.0307 21.406ZM60.8435 8.23C61.1555 8.23 61.4255 8.344 61.6535 8.572C61.8815 8.8 61.9955 9.07 61.9955 9.382C61.9955 9.694 61.8815 9.964 61.6535 10.192C61.4255 10.42 61.1555 10.534 60.8435 10.534C60.5315 10.534 60.2615 10.42 60.0335 10.192C59.8055 9.964 59.6915 9.694 59.6915 9.382C59.6915 9.07 59.8055 8.8 60.0335 8.572C60.2615 8.344 60.5315 8.23 60.8435 8.23ZM61.7795 20.326C61.7795 20.818 61.8815 21.16 62.0855 21.352C62.2895 21.532 62.6435 21.622 63.1475 21.622V22C62.0435 21.952 61.3175 21.928 60.9695 21.928C60.6215 21.928 59.8955 21.952 58.7915 22V21.622C59.2955 21.622 59.6495 21.532 59.8535 21.352C60.0575 21.16 60.1595 20.818 60.1595 20.326V14.692C60.1595 14.14 60.0575 13.738 59.8535 13.486C59.6495 13.234 59.2955 13.108 58.7915 13.108V12.73C59.1755 12.766 59.5475 12.784 59.9075 12.784C60.6635 12.784 61.2875 12.7 61.7795 12.532V20.326ZM69.663 12.478C70.143 12.478 70.533 12.616 70.833 12.892C71.145 13.168 71.301 13.504 71.301 13.9C71.301 14.212 71.205 14.482 71.013 14.71C70.833 14.926 70.587 15.034 70.275 15.034C70.011 15.034 69.783 14.95 69.591 14.782C69.411 14.614 69.321 14.386 69.321 14.098C69.321 13.702 69.525 13.378 69.933 13.126C69.849 13.006 69.723 12.946 69.555 12.946C69.087 12.946 68.661 13.132 68.277 13.504C67.893 13.864 67.593 14.308 67.377 14.836C67.161 15.364 67.053 15.862 67.053 16.33V20.146C67.053 20.698 67.209 21.082 67.521 21.298C67.845 21.514 68.325 21.622 68.961 21.622V22L68.529 21.982C67.305 21.946 66.525 21.928 66.189 21.928C65.877 21.928 65.169 21.952 64.065 22V21.622C64.569 21.622 64.923 21.532 65.127 21.352C65.331 21.16 65.433 20.818 65.433 20.326V14.692C65.433 14.14 65.331 13.738 65.127 13.486C64.923 13.234 64.569 13.108 64.065 13.108V12.73C64.449 12.766 64.821 12.784 65.181 12.784C65.937 12.784 66.561 12.7 67.053 12.532V14.782C67.269 14.182 67.611 13.648 68.079 13.18C68.559 12.712 69.087 12.478 69.663 12.478ZM81.3243 9.256C83.4483 9.256 85.0383 9.79 86.0943 10.858C87.1503 11.914 87.6783 13.456 87.6783 15.484C87.6783 16.792 87.4203 17.938 86.9043 18.922C86.3883 19.906 85.6383 20.668 84.6543 21.208C83.6823 21.736 82.5183 22 81.1623 22L80.1183 21.982C79.4463 21.958 78.9543 21.946 78.6423 21.946C77.6583 21.946 76.9143 21.964 76.4103 22V21.64C76.8423 21.616 77.1543 21.568 77.3463 21.496C77.5503 21.424 77.6883 21.286 77.7603 21.082C77.8323 20.878 77.8683 20.548 77.8683 20.092V11.164C77.8683 10.708 77.8323 10.378 77.7603 10.174C77.6883 9.97 77.5503 9.832 77.3463 9.76C77.1543 9.688 76.8423 9.64 76.4103 9.616V9.256C76.8303 9.292 77.4123 9.31 78.1563 9.31L79.6863 9.292C80.5023 9.268 81.0483 9.256 81.3243 9.256ZM80.8743 9.58C80.5023 9.58 80.2203 9.622 80.0283 9.706C79.8483 9.79 79.7223 9.94 79.6503 10.156C79.5783 10.372 79.5423 10.696 79.5423 11.128V20.128C79.5423 20.56 79.5783 20.884 79.6503 21.1C79.7223 21.316 79.8483 21.466 80.0283 21.55C80.2203 21.634 80.5083 21.676 80.8923 21.676C82.1643 21.676 83.1663 21.448 83.8983 20.992C84.6303 20.524 85.1403 19.846 85.4283 18.958C85.7283 18.07 85.8783 16.936 85.8783 15.556C85.8783 14.176 85.7163 13.054 85.3923 12.19C85.0683 11.314 84.5403 10.66 83.8083 10.228C83.0883 9.796 82.1103 9.58 80.8743 9.58ZM91.2361 8.23C91.5481 8.23 91.8181 8.344 92.0461 8.572C92.2741 8.8 92.3881 9.07 92.3881 9.382C92.3881 9.694 92.2741 9.964 92.0461 10.192C91.8181 10.42 91.5481 10.534 91.2361 10.534C90.9241 10.534 90.6541 10.42 90.4261 10.192C90.1981 9.964 90.0841 9.694 90.0841 9.382C90.0841 9.07 90.1981 8.8 90.4261 8.572C90.6541 8.344 90.9241 8.23 91.2361 8.23ZM92.1721 20.326C92.1721 20.818 92.2741 21.16 92.4781 21.352C92.6821 21.532 93.0361 21.622 93.5401 21.622V22C92.4361 21.952 91.7101 21.928 91.3621 21.928C91.0141 21.928 90.2881 21.952 89.1841 22V21.622C89.6881 21.622 90.0421 21.532 90.2461 21.352C90.4501 21.16 90.5521 20.818 90.5521 20.326V14.692C90.5521 14.14 90.4501 13.738 90.2461 13.486C90.0421 13.234 89.6881 13.108 89.1841 13.108V12.73C89.5681 12.766 89.9401 12.784 90.3001 12.784C91.0561 12.784 91.6801 12.7 92.1721 12.532V20.326ZM97.6795 12.478C98.1115 12.478 98.4955 12.544 98.8315 12.676C99.1675 12.808 99.4375 12.964 99.6415 13.144C99.7735 13.24 99.8815 13.288 99.9655 13.288C100.182 13.288 100.314 13.024 100.362 12.496H100.776C100.728 13.084 100.704 14.104 100.704 15.556H100.29C100.158 14.764 99.8995 14.11 99.5155 13.594C99.1435 13.078 98.5855 12.82 97.8415 12.82C97.4095 12.82 97.0555 12.946 96.7795 13.198C96.5035 13.438 96.3655 13.774 96.3655 14.206C96.3655 14.626 96.5095 14.98 96.7975 15.268C97.0855 15.544 97.5475 15.88 98.1835 16.276C98.2915 16.336 98.4535 16.438 98.6695 16.582C99.2215 16.942 99.6655 17.26 100.002 17.536C100.338 17.812 100.608 18.13 100.812 18.49C101.028 18.85 101.136 19.264 101.136 19.732C101.136 20.524 100.836 21.142 100.236 21.586C99.6475 22.03 98.9215 22.252 98.0575 22.252C97.5175 22.252 97.0435 22.168 96.6355 22C96.3715 21.868 96.1255 21.706 95.8975 21.514C95.8495 21.466 95.7955 21.442 95.7355 21.442C95.6515 21.442 95.5735 21.502 95.5015 21.622C95.4415 21.742 95.3935 21.91 95.3575 22.126H94.9435C94.9915 21.442 95.0155 20.242 95.0155 18.526H95.4295C95.5615 19.654 95.8015 20.5 96.1495 21.064C96.4975 21.616 97.0915 21.892 97.9315 21.892C98.3515 21.892 98.7235 21.754 99.0475 21.478C99.3715 21.202 99.5335 20.77 99.5335 20.182C99.5335 19.714 99.3715 19.318 99.0475 18.994C98.7355 18.67 98.2195 18.28 97.4995 17.824C96.9115 17.452 96.4555 17.146 96.1315 16.906C95.8195 16.666 95.5555 16.372 95.3395 16.024C95.1235 15.676 95.0155 15.268 95.0155 14.8C95.0155 14.044 95.2675 13.468 95.7715 13.072C96.2755 12.676 96.9115 12.478 97.6795 12.478ZM108.25 12.478C108.886 12.478 109.456 12.652 109.96 13C110.476 13.348 110.878 13.858 111.166 14.53C111.454 15.202 111.598 16.006 111.598 16.942C111.598 17.866 111.448 18.73 111.148 19.534C110.86 20.338 110.404 20.992 109.78 21.496C109.168 22 108.4 22.252 107.476 22.252C107.02 22.252 106.606 22.162 106.234 21.982C105.862 21.802 105.574 21.568 105.37 21.28V23.584C105.37 24.076 105.514 24.412 105.802 24.592C106.09 24.784 106.522 24.88 107.098 24.88V25.258L106.684 25.24C105.568 25.204 104.842 25.186 104.506 25.186C104.218 25.186 103.57 25.21 102.562 25.258V24.88C103.006 24.88 103.312 24.796 103.48 24.628C103.66 24.472 103.75 24.184 103.75 23.764V14.692C103.75 14.14 103.648 13.738 103.444 13.486C103.24 13.234 102.886 13.108 102.382 13.108V12.73C102.754 12.766 103.126 12.784 103.498 12.784C104.254 12.784 104.878 12.7 105.37 12.532V14.44C105.634 13.816 106.018 13.336 106.522 13C107.026 12.652 107.602 12.478 108.25 12.478ZM107.278 21.838C108.994 21.838 109.852 20.29 109.852 17.194C109.852 14.41 109.156 13.018 107.764 13.018C107.224 13.018 106.738 13.216 106.306 13.612C105.874 13.996 105.562 14.554 105.37 15.286V20.686C105.538 21.034 105.784 21.316 106.108 21.532C106.432 21.736 106.822 21.838 107.278 21.838ZM115.829 20.326C115.829 20.818 115.931 21.16 116.135 21.352C116.339 21.532 116.693 21.622 117.197 21.622V22C116.093 21.952 115.367 21.928 115.019 21.928C114.671 21.928 113.945 21.952 112.841 22V21.622C113.345 21.622 113.699 21.532 113.903 21.352C114.107 21.16 114.209 20.818 114.209 20.326V10.048C114.209 9.496 114.107 9.094 113.903 8.842C113.699 8.59 113.345 8.464 112.841 8.464V8.086C113.213 8.122 113.585 8.14 113.957 8.14C114.713 8.14 115.337 8.056 115.829 7.888V20.326ZM120.53 22.126C119.774 22.126 119.21 21.94 118.838 21.568C118.478 21.184 118.298 20.656 118.298 19.984C118.298 19.444 118.442 19 118.73 18.652C119.03 18.304 119.378 18.028 119.774 17.824C120.182 17.62 120.716 17.404 121.376 17.176C122.048 16.948 122.546 16.738 122.87 16.546C123.194 16.354 123.356 16.096 123.356 15.772V14.656C123.356 13.96 123.206 13.486 122.906 13.234C122.618 12.97 122.21 12.838 121.682 12.838C120.842 12.838 120.248 13.054 119.9 13.486C120.14 13.546 120.338 13.672 120.494 13.864C120.662 14.056 120.746 14.296 120.746 14.584C120.746 14.884 120.65 15.124 120.458 15.304C120.266 15.472 120.02 15.556 119.72 15.556C119.384 15.556 119.132 15.454 118.964 15.25C118.796 15.034 118.712 14.776 118.712 14.476C118.712 14.188 118.778 13.948 118.91 13.756C119.054 13.564 119.264 13.372 119.54 13.18C119.828 12.976 120.194 12.808 120.638 12.676C121.082 12.544 121.568 12.478 122.096 12.478C123.032 12.478 123.74 12.7 124.22 13.144C124.52 13.42 124.718 13.756 124.814 14.152C124.922 14.536 124.976 15.046 124.976 15.682V20.686C124.976 20.986 125.018 21.202 125.102 21.334C125.186 21.466 125.33 21.532 125.534 21.532C125.678 21.532 125.81 21.502 125.93 21.442C126.062 21.37 126.2 21.274 126.344 21.154L126.542 21.46C126.23 21.7 125.96 21.874 125.732 21.982C125.516 22.078 125.24 22.126 124.904 22.126C124.328 22.126 123.926 21.982 123.698 21.694C123.47 21.406 123.356 21.016 123.356 20.524C122.996 21.124 122.582 21.544 122.114 21.784C121.646 22.012 121.118 22.126 120.53 22.126ZM121.322 21.406C122.114 21.406 122.792 20.95 123.356 20.038V16.51C123.248 16.678 123.098 16.816 122.906 16.924C122.714 17.032 122.42 17.176 122.024 17.356C121.568 17.548 121.196 17.734 120.908 17.914C120.632 18.082 120.392 18.316 120.188 18.616C119.984 18.916 119.882 19.3 119.882 19.768C119.882 20.308 120.014 20.716 120.278 20.992C120.542 21.268 120.89 21.406 121.322 21.406ZM133.979 12.784C134.507 12.784 134.963 12.766 135.347 12.73V13.09C135.107 13.114 134.891 13.222 134.699 13.414C134.519 13.606 134.345 13.918 134.177 14.35L131.225 22.09L130.613 23.656C130.385 24.244 130.127 24.664 129.839 24.916C129.659 25.084 129.443 25.204 129.191 25.276C128.939 25.348 128.687 25.384 128.435 25.384C128.075 25.384 127.781 25.288 127.553 25.096C127.325 24.904 127.211 24.64 127.211 24.304C127.211 24.016 127.295 23.782 127.463 23.602C127.631 23.434 127.865 23.35 128.165 23.35C128.429 23.35 128.645 23.422 128.813 23.566C128.993 23.722 129.083 23.932 129.083 24.196C129.083 24.556 128.921 24.826 128.597 25.006C128.621 25.018 128.657 25.024 128.705 25.024C129.365 25.024 129.875 24.556 130.235 23.62L130.865 21.982L127.607 14.116C127.403 13.708 127.199 13.438 126.995 13.306C126.791 13.174 126.587 13.108 126.383 13.108V12.73C126.899 12.802 127.487 12.838 128.147 12.838C128.747 12.838 129.527 12.802 130.487 12.73V13.108C130.055 13.108 129.737 13.144 129.533 13.216C129.341 13.288 129.245 13.462 129.245 13.738C129.245 13.99 129.317 14.284 129.461 14.62L131.621 19.984L133.619 14.782C133.751 14.422 133.817 14.146 133.817 13.954C133.817 13.678 133.709 13.474 133.493 13.342C133.277 13.21 132.935 13.126 132.467 13.09V12.73C133.103 12.766 133.607 12.784 133.979 12.784Z" fill="#333333"/>
</svg>
