<svg width="150" height="30" viewBox="0 0 150 30" fill="none" xmlns="http://www.w3.org/2000/svg">
<rect width="150" height="30" fill="white"/>
<path d="M14.86 23.162C13.432 23.162 12.406 22.76 11.782 21.956C11.17 21.14 10.864 19.964 10.864 18.428V12.902C10.864 11.39 11.176 10.244 11.8 9.464C12.424 8.684 13.444 8.294 14.86 8.294C16.276 8.294 17.29 8.69 17.902 9.482C18.526 10.262 18.838 11.402 18.838 12.902V18.446C18.838 19.958 18.526 21.122 17.902 21.938C17.278 22.754 16.264 23.162 14.86 23.162ZM14.86 21.56C15.616 21.56 16.126 21.338 16.39 20.894C16.654 20.45 16.786 19.778 16.786 18.878V12.488C16.786 11.6 16.654 10.946 16.39 10.526C16.126 10.094 15.616 9.878 14.86 9.878C14.092 9.878 13.576 10.094 13.312 10.526C13.048 10.946 12.916 11.6 12.916 12.488V18.878C12.916 19.778 13.048 20.45 13.312 20.894C13.576 21.338 14.092 21.56 14.86 21.56ZM23.0871 23.144C22.2471 23.144 21.5631 22.88 21.0351 22.352C20.5191 21.824 20.2251 21.116 20.1531 20.228L21.7551 19.742C21.8511 20.414 22.0131 20.912 22.2411 21.236C22.4811 21.56 22.8171 21.722 23.2491 21.722C23.5851 21.722 23.8431 21.626 24.0231 21.434C24.2151 21.23 24.3111 20.96 24.3111 20.624C24.3111 20.324 24.2451 20.054 24.1131 19.814C23.9811 19.574 23.7651 19.328 23.4651 19.076L21.6831 17.546C21.2751 17.198 20.9571 16.832 20.7291 16.448C20.5131 16.052 20.4051 15.572 20.4051 15.008C20.4051 14.204 20.6451 13.58 21.1251 13.136C21.6051 12.68 22.2591 12.452 23.0871 12.452C23.8791 12.452 24.4971 12.71 24.9411 13.226C25.3971 13.73 25.6611 14.384 25.7331 15.188L24.4371 15.674C24.3531 15.086 24.2151 14.642 24.0231 14.342C23.8311 14.03 23.5431 13.874 23.1591 13.874C22.8471 13.874 22.5951 13.976 22.4031 14.18C22.2231 14.384 22.1331 14.636 22.1331 14.936C22.1331 15.32 22.3071 15.668 22.6551 15.98L24.4911 17.672C24.9591 18.104 25.3191 18.53 25.5711 18.95C25.8351 19.37 25.9671 19.88 25.9671 20.48C25.9671 21.344 25.7091 22.004 25.1931 22.46C24.6771 22.916 23.9751 23.144 23.0871 23.144ZM26.9395 12.596H28.5235L29.6035 20.264L30.9895 12.596H32.4655L33.8515 20.228L34.9315 12.596H36.5155L34.7875 23H33.1675L31.7455 15.656L30.3415 23H28.6135L26.9395 12.596ZM39.8616 23.144C39.4656 23.144 39.1056 23.03 38.7816 22.802C38.4696 22.574 38.2236 22.274 38.0436 21.902C37.8636 21.53 37.7736 21.14 37.7736 20.732C37.7736 19.916 37.9476 19.256 38.2956 18.752C38.6436 18.236 39.0876 17.828 39.6276 17.528C40.1676 17.228 40.9176 16.886 41.8776 16.502V15.764C41.8776 15.08 41.8056 14.6 41.6616 14.324C41.5296 14.036 41.2536 13.892 40.8336 13.892C40.1016 13.892 39.7356 14.384 39.7356 15.368V15.89L37.8276 15.818C37.8516 14.666 38.1156 13.82 38.6196 13.28C39.1236 12.728 39.9036 12.452 40.9596 12.452C41.9556 12.452 42.6756 12.728 43.1196 13.28C43.5756 13.82 43.8036 14.642 43.8036 15.746V20.498C43.8036 21.278 43.8636 22.112 43.9836 23H42.2196C42.0876 22.316 42.0036 21.806 41.9676 21.47C41.8236 21.938 41.5716 22.334 41.2116 22.658C40.8636 22.982 40.4136 23.144 39.8616 23.144ZM40.6176 21.488C40.8696 21.488 41.1156 21.392 41.3556 21.2C41.5956 20.996 41.7696 20.804 41.8776 20.624V17.672C41.3616 17.96 40.9596 18.212 40.6716 18.428C40.3956 18.632 40.1616 18.872 39.9696 19.148C39.7896 19.424 39.6996 19.754 39.6996 20.138C39.6996 20.57 39.7776 20.906 39.9336 21.146C40.0896 21.374 40.3176 21.488 40.6176 21.488ZM45.8336 8.42H47.7596V23H45.8336V8.42ZM52.1789 23.144C51.2789 23.144 50.6189 22.82 50.1989 22.172C49.7789 21.512 49.5689 20.426 49.5689 18.914V16.898C49.5689 15.518 49.7489 14.432 50.1089 13.64C50.4809 12.848 51.1529 12.452 52.1249 12.452C52.7369 12.452 53.3129 12.722 53.8529 13.262V8.42H55.7789V23H53.8529V22.334C53.3489 22.874 52.7909 23.144 52.1789 23.144ZM52.6649 21.632C53.0489 21.632 53.4449 21.5 53.8529 21.236V14.414C53.4089 14.114 53.0009 13.964 52.6289 13.964C51.8729 13.964 51.4949 14.69 51.4949 16.142V19.076C51.4949 19.916 51.5729 20.552 51.7289 20.984C51.8849 21.416 52.1969 21.632 52.6649 21.632Z" fill="#333333"/>
</svg>
