<svg width="150" height="30" viewBox="0 0 150 30" fill="none" xmlns="http://www.w3.org/2000/svg">
<path d="M18.6484 10.7275V10.209C18.6484 10.0332 18.6807 9.90723 18.7451 9.83105C18.8154 9.75488 18.9062 9.7168 19.0176 9.7168C19.1289 9.7168 19.2168 9.75488 19.2812 9.83105C19.3516 9.90723 19.3867 10.0332 19.3867 10.209V12.2568C19.3867 12.4385 19.3516 12.5674 19.2812 12.6436C19.2168 12.7197 19.1289 12.7578 19.0176 12.7578C18.918 12.7578 18.833 12.7227 18.7627 12.6523C18.6982 12.582 18.6602 12.4678 18.6484 12.3096C18.6191 11.8174 18.3525 11.3809 17.8486 11C17.1689 10.4785 16.3955 10.2178 15.5283 10.2178C14.96 10.2178 14.4238 10.3438 13.9199 10.5957C13.5449 10.7773 13.2461 11 13.0234 11.2637C12.6367 11.7207 12.3291 12.2275 12.1006 12.7842C11.9365 13.1943 11.8545 13.6572 11.8545 14.1729V15.4648C11.8545 16.5664 12.2529 17.5244 13.0498 18.3389C13.8467 19.1475 14.7725 19.5518 15.8271 19.5518C16.46 19.5518 17.0254 19.4141 17.5234 19.1387C18.0273 18.8633 18.5137 18.4473 18.9824 17.8906C19.082 17.7676 19.1934 17.7061 19.3164 17.7061C19.4219 17.7061 19.5068 17.7383 19.5713 17.8027C19.6357 17.8672 19.668 17.9492 19.668 18.0488C19.668 18.1836 19.542 18.3887 19.29 18.6641C18.8096 19.2031 18.2676 19.6104 17.6641 19.8857C17.0664 20.1553 16.46 20.29 15.8447 20.29C15.3115 20.29 14.7695 20.1875 14.2188 19.9824C13.7969 19.8242 13.4482 19.6396 13.1729 19.4287C12.8975 19.2178 12.5576 18.8633 12.1533 18.3652C11.7549 17.8613 11.4824 17.3984 11.3359 16.9766C11.1895 16.5488 11.1162 16.0801 11.1162 15.5703V14.0674C11.1162 13.3408 11.3096 12.5996 11.6963 11.8438C12.0889 11.082 12.6221 10.499 13.2959 10.0947C13.9756 9.68457 14.7109 9.47949 15.502 9.47949C16.7207 9.47949 17.7695 9.89551 18.6484 10.7275ZM30.3379 16.2119C30.3379 17.3369 29.9336 18.2979 29.125 19.0947C28.3223 19.8916 27.3525 20.29 26.2158 20.29C25.0674 20.29 24.0918 19.8916 23.2891 19.0947C22.4863 18.292 22.085 17.3311 22.085 16.2119C22.085 15.0869 22.4863 14.126 23.2891 13.3291C24.0918 12.5264 25.0674 12.125 26.2158 12.125C27.3525 12.125 28.3223 12.5234 29.125 13.3203C29.9336 14.1172 30.3379 15.0811 30.3379 16.2119ZM29.5908 16.2119C29.5908 15.2861 29.2598 14.498 28.5977 13.8477C27.9414 13.1973 27.1445 12.8721 26.207 12.8721C25.2695 12.8721 24.4697 13.2002 23.8076 13.8564C23.1514 14.5068 22.8232 15.292 22.8232 16.2119C22.8232 17.126 23.1514 17.9111 23.8076 18.5674C24.4697 19.2236 25.2695 19.5518 26.207 19.5518C27.1445 19.5518 27.9414 19.2266 28.5977 18.5762C29.2598 17.9199 29.5908 17.1318 29.5908 16.2119ZM39.5488 20V18.9189C38.541 19.833 37.4512 20.29 36.2793 20.29C35.5586 20.29 35.0107 20.0938 34.6357 19.7012C34.1494 19.1855 33.9062 18.585 33.9062 17.8994V13.1357H32.9131C32.7373 13.1357 32.6113 13.1006 32.5352 13.0303C32.459 12.96 32.4209 12.8691 32.4209 12.7578C32.4209 12.6523 32.459 12.5645 32.5352 12.4941C32.6113 12.4238 32.7373 12.3887 32.9131 12.3887H34.6445V17.8994C34.6445 18.3799 34.7969 18.7754 35.1016 19.0859C35.4062 19.3965 35.7871 19.5518 36.2441 19.5518C37.4453 19.5518 38.5469 19.001 39.5488 17.8994V13.1357H38.1865C38.0107 13.1357 37.8848 13.1006 37.8086 13.0303C37.7324 12.96 37.6943 12.8691 37.6943 12.7578C37.6943 12.6523 37.7324 12.5645 37.8086 12.4941C37.8848 12.4238 38.0107 12.3887 38.1865 12.3887H40.2871V19.2617H40.9111C41.0869 19.2617 41.2129 19.2969 41.2891 19.3672C41.3652 19.4316 41.4033 19.5195 41.4033 19.6309C41.4033 19.7363 41.3652 19.8242 41.2891 19.8945C41.2129 19.9648 41.0869 20 40.9111 20H39.5488ZM46.9492 12.3887V14.252C47.9102 13.3848 48.6279 12.8281 49.1025 12.582C49.583 12.3301 50.0254 12.2041 50.4297 12.2041C50.8691 12.2041 51.2764 12.3535 51.6514 12.6523C52.0322 12.9453 52.2227 13.168 52.2227 13.3203C52.2227 13.4316 52.1846 13.5254 52.1084 13.6016C52.0381 13.6719 51.9473 13.707 51.8359 13.707C51.7773 13.707 51.7275 13.6982 51.6865 13.6807C51.6455 13.6572 51.5693 13.5898 51.458 13.4785C51.2529 13.2734 51.0742 13.1328 50.9219 13.0566C50.7695 12.9805 50.6201 12.9424 50.4736 12.9424C50.1514 12.9424 49.7617 13.0713 49.3047 13.3291C48.8535 13.5869 48.0684 14.2168 46.9492 15.2188V19.2617H50.2188C50.4004 19.2617 50.5293 19.2969 50.6055 19.3672C50.6816 19.4316 50.7197 19.5195 50.7197 19.6309C50.7197 19.7363 50.6816 19.8242 50.6055 19.8945C50.5293 19.9648 50.4004 20 50.2188 20H44.4268C44.251 20 44.125 19.9678 44.0488 19.9033C43.9727 19.833 43.9346 19.7451 43.9346 19.6396C43.9346 19.54 43.9697 19.458 44.04 19.3936C44.1162 19.3232 44.2451 19.2881 44.4268 19.2881H46.2109V13.1357H44.8486C44.6729 13.1357 44.5469 13.1006 44.4707 13.0303C44.3945 12.96 44.3564 12.8691 44.3564 12.7578C44.3564 12.6523 44.3916 12.5645 44.4619 12.4941C44.5381 12.4238 44.667 12.3887 44.8486 12.3887H46.9492ZM59.0078 8.60059V10.5078H57.918V8.60059H59.0078ZM59.0342 12.3887V19.2617H61.9346C62.1162 19.2617 62.2451 19.2969 62.3213 19.3672C62.3975 19.4316 62.4355 19.5195 62.4355 19.6309C62.4355 19.7363 62.3975 19.8242 62.3213 19.8945C62.2451 19.9648 62.1162 20 61.9346 20H55.3955C55.2197 20 55.0938 19.9648 55.0176 19.8945C54.9414 19.8242 54.9033 19.7363 54.9033 19.6309C54.9033 19.5195 54.9414 19.4316 55.0176 19.3672C55.0938 19.2969 55.2197 19.2617 55.3955 19.2617H58.2959V13.1357H56.1426C55.9668 13.1357 55.8379 13.1006 55.7559 13.0303C55.6797 12.96 55.6416 12.8721 55.6416 12.7666C55.6416 12.6553 55.6797 12.5645 55.7559 12.4941C55.832 12.4238 55.9609 12.3887 56.1426 12.3887H59.0342ZM73.4482 16.3701H65.9248C66.0537 17.3252 66.4521 18.0957 67.1201 18.6816C67.7939 19.2617 68.626 19.5518 69.6162 19.5518C70.167 19.5518 70.7441 19.4609 71.3477 19.2793C71.9512 19.0977 72.4434 18.8574 72.8242 18.5586C72.9355 18.4707 73.0322 18.4268 73.1143 18.4268C73.208 18.4268 73.29 18.4648 73.3604 18.541C73.4307 18.6113 73.4658 18.6963 73.4658 18.7959C73.4658 18.8955 73.4189 18.9922 73.3252 19.0859C73.0439 19.3789 72.543 19.6543 71.8223 19.9121C71.1074 20.1641 70.3721 20.29 69.6162 20.29C68.3506 20.29 67.293 19.877 66.4434 19.0508C65.5996 18.2188 65.1777 17.2139 65.1777 16.0361C65.1777 14.9639 65.5732 14.0439 66.3643 13.2764C67.1611 12.5088 68.1455 12.125 69.3174 12.125C70.5244 12.125 71.5176 12.5205 72.2969 13.3115C73.0762 14.0967 73.46 15.1162 73.4482 16.3701ZM72.7012 15.623C72.5547 14.8086 72.168 14.1465 71.541 13.6367C70.9199 13.127 70.1787 12.8721 69.3174 12.8721C68.4561 12.8721 67.7148 13.124 67.0938 13.6279C66.4727 14.1318 66.0859 14.7969 65.9336 15.623H72.7012ZM79.3809 12.3887V14.252C80.3418 13.3848 81.0596 12.8281 81.5342 12.582C82.0146 12.3301 82.457 12.2041 82.8613 12.2041C83.3008 12.2041 83.708 12.3535 84.083 12.6523C84.4639 12.9453 84.6543 13.168 84.6543 13.3203C84.6543 13.4316 84.6162 13.5254 84.54 13.6016C84.4697 13.6719 84.3789 13.707 84.2676 13.707C84.209 13.707 84.1592 13.6982 84.1182 13.6807C84.0771 13.6572 84.001 13.5898 83.8896 13.4785C83.6846 13.2734 83.5059 13.1328 83.3535 13.0566C83.2012 12.9805 83.0518 12.9424 82.9053 12.9424C82.583 12.9424 82.1934 13.0713 81.7363 13.3291C81.2852 13.5869 80.5 14.2168 79.3809 15.2188V19.2617H82.6504C82.832 19.2617 82.9609 19.2969 83.0371 19.3672C83.1133 19.4316 83.1514 19.5195 83.1514 19.6309C83.1514 19.7363 83.1133 19.8242 83.0371 19.8945C82.9609 19.9648 82.832 20 82.6504 20H76.8584C76.6826 20 76.5566 19.9678 76.4805 19.9033C76.4043 19.833 76.3662 19.7451 76.3662 19.6396C76.3662 19.54 76.4014 19.458 76.4717 19.3936C76.5479 19.3232 76.6768 19.2881 76.8584 19.2881H78.6426V13.1357H77.2803C77.1045 13.1357 76.9785 13.1006 76.9023 13.0303C76.8262 12.96 76.7881 12.8691 76.7881 12.7578C76.7881 12.6523 76.8232 12.5645 76.8936 12.4941C76.9697 12.4238 77.0986 12.3887 77.2803 12.3887H79.3809ZM105.502 20H104.553L99.1123 10.7979V19.2617H100.475C100.656 19.2617 100.785 19.2969 100.861 19.3672C100.938 19.4316 100.976 19.5195 100.976 19.6309C100.976 19.7363 100.938 19.8242 100.861 19.8945C100.785 19.9648 100.656 20 100.475 20H97.7588C97.5771 20 97.4482 19.9648 97.3721 19.8945C97.2959 19.8242 97.2578 19.7363 97.2578 19.6309C97.2578 19.5195 97.2959 19.4316 97.3721 19.3672C97.4482 19.2969 97.5771 19.2617 97.7588 19.2617H98.374V10.4551H97.3809C97.2051 10.4551 97.0791 10.4229 97.0029 10.3584C96.9268 10.2881 96.8887 10.1973 96.8887 10.0859C96.8887 9.97461 96.9268 9.88672 97.0029 9.82227C97.0791 9.75195 97.2051 9.7168 97.3809 9.7168H99.3145L104.764 18.9365V10.4551H103.401C103.226 10.4551 103.1 10.4229 103.023 10.3584C102.947 10.2881 102.909 10.1973 102.909 10.0859C102.909 9.97461 102.944 9.88672 103.015 9.82227C103.091 9.75195 103.22 9.7168 103.401 9.7168H106.126C106.302 9.7168 106.428 9.75195 106.504 9.82227C106.58 9.88672 106.618 9.97461 106.618 10.0859C106.618 10.1973 106.58 10.2881 106.504 10.3584C106.428 10.4229 106.302 10.4551 106.126 10.4551H105.502V20ZM116.69 16.3701H109.167C109.296 17.3252 109.694 18.0957 110.362 18.6816C111.036 19.2617 111.868 19.5518 112.858 19.5518C113.409 19.5518 113.986 19.4609 114.59 19.2793C115.193 19.0977 115.686 18.8574 116.066 18.5586C116.178 18.4707 116.274 18.4268 116.356 18.4268C116.45 18.4268 116.532 18.4648 116.603 18.541C116.673 18.6113 116.708 18.6963 116.708 18.7959C116.708 18.8955 116.661 18.9922 116.567 19.0859C116.286 19.3789 115.785 19.6543 115.064 19.9121C114.35 20.1641 113.614 20.29 112.858 20.29C111.593 20.29 110.535 19.877 109.686 19.0508C108.842 18.2188 108.42 17.2139 108.42 16.0361C108.42 14.9639 108.815 14.0439 109.606 13.2764C110.403 12.5088 111.388 12.125 112.56 12.125C113.767 12.125 114.76 12.5205 115.539 13.3115C116.318 14.0967 116.702 15.1162 116.69 16.3701ZM115.943 15.623C115.797 14.8086 115.41 14.1465 114.783 13.6367C114.162 13.127 113.421 12.8721 112.56 12.8721C111.698 12.8721 110.957 13.124 110.336 13.6279C109.715 14.1318 109.328 14.7969 109.176 15.623H115.943ZM126.051 20L125.137 20.0088L123.511 15.2627L121.894 20.0088L120.979 20L119.45 13.1357H119.09C118.914 13.1357 118.788 13.1006 118.712 13.0303C118.636 12.96 118.598 12.8691 118.598 12.7578C118.598 12.6523 118.636 12.5645 118.712 12.4941C118.788 12.4238 118.914 12.3887 119.09 12.3887H121.12C121.296 12.3887 121.422 12.4238 121.498 12.4941C121.574 12.5645 121.612 12.6553 121.612 12.7666C121.612 12.8721 121.574 12.96 121.498 13.0303C121.422 13.1006 121.296 13.1357 121.12 13.1357H120.18L121.489 18.9893L123.062 14.3135H123.941L125.559 18.9893L126.815 13.1357H125.884C125.708 13.1357 125.579 13.1006 125.497 13.0303C125.421 12.96 125.383 12.8691 125.383 12.7578C125.383 12.6523 125.421 12.5645 125.497 12.4941C125.573 12.4238 125.702 12.3887 125.884 12.3887H127.905C128.087 12.3887 128.216 12.4238 128.292 12.4941C128.368 12.5645 128.406 12.6553 128.406 12.7666C128.406 12.8721 128.368 12.96 128.292 13.0303C128.216 13.1006 128.087 13.1357 127.905 13.1357H127.554L126.051 20Z" fill="#333333"/>
</svg>
