<svg width="150" height="30" viewBox="0 0 150 30" fill="none" xmlns="http://www.w3.org/2000/svg">
<rect width="150" height="30" fill="white"/>
<path d="M9.97363 21L14.9219 8.11523H16.7588L22.0322 21H20.0898L18.5869 17.0977H13.1992L11.7842 21H9.97363ZM13.6914 15.709H18.0596L16.7148 12.1406C16.3047 11.0566 16 10.166 15.8008 9.46875C15.6367 10.2949 15.4053 11.1152 15.1064 11.9297L13.6914 15.709ZM23.1748 21V11.666H24.5986V13.0811C24.9619 12.4189 25.2959 11.9824 25.6006 11.7715C25.9111 11.5605 26.251 11.4551 26.6201 11.4551C27.1533 11.4551 27.6953 11.625 28.2461 11.9648L27.7012 13.4326C27.3145 13.2041 26.9277 13.0898 26.541 13.0898C26.1953 13.0898 25.8848 13.1953 25.6094 13.4062C25.334 13.6113 25.1377 13.8984 25.0205 14.2676C24.8447 14.8301 24.7568 15.4453 24.7568 16.1133V21H23.1748ZM29.1953 9.93457V8.11523H30.7773V9.93457H29.1953ZM29.1953 21V11.666H30.7773V21H29.1953ZM39.2852 19.8486C38.6992 20.3467 38.1338 20.6982 37.5889 20.9033C37.0498 21.1084 36.4697 21.2109 35.8486 21.2109C34.8232 21.2109 34.0352 20.9619 33.4844 20.4639C32.9336 19.96 32.6582 19.3184 32.6582 18.5391C32.6582 18.082 32.7607 17.666 32.9658 17.291C33.1768 16.9102 33.4492 16.6055 33.7832 16.377C34.123 16.1484 34.5039 15.9756 34.9258 15.8584C35.2363 15.7764 35.7051 15.6973 36.332 15.6211C37.6094 15.4688 38.5498 15.2871 39.1533 15.0762C39.1592 14.8594 39.1621 14.7217 39.1621 14.6631C39.1621 14.0186 39.0127 13.5645 38.7139 13.3008C38.3096 12.9434 37.709 12.7646 36.9121 12.7646C36.168 12.7646 35.6172 12.8965 35.2598 13.1602C34.9082 13.418 34.6475 13.8779 34.4775 14.54L32.9307 14.3291C33.0713 13.667 33.3027 13.1338 33.625 12.7295C33.9473 12.3193 34.4131 12.0059 35.0225 11.7891C35.6318 11.5664 36.3379 11.4551 37.1406 11.4551C37.9375 11.4551 38.585 11.5488 39.083 11.7363C39.5811 11.9238 39.9473 12.1611 40.1816 12.4482C40.416 12.7295 40.5801 13.0869 40.6738 13.5205C40.7266 13.79 40.7529 14.2764 40.7529 14.9795V17.0889C40.7529 18.5596 40.7852 19.4912 40.8496 19.8838C40.9199 20.2705 41.0547 20.6426 41.2539 21H39.6016C39.4375 20.6719 39.332 20.2881 39.2852 19.8486ZM39.1533 16.3154C38.5791 16.5498 37.7178 16.749 36.5693 16.9131C35.9189 17.0068 35.459 17.1123 35.1895 17.2295C34.9199 17.3467 34.7119 17.5195 34.5654 17.748C34.4189 17.9707 34.3457 18.2197 34.3457 18.4951C34.3457 18.917 34.5039 19.2686 34.8203 19.5498C35.1426 19.8311 35.6113 19.9717 36.2266 19.9717C36.8359 19.9717 37.3779 19.8398 37.8525 19.5762C38.3271 19.3066 38.6758 18.9404 38.8984 18.4775C39.0684 18.1201 39.1533 17.5928 39.1533 16.8955V16.3154ZM43.1787 21V8.11523H44.7607V21H43.1787Z" fill="#333333"/>
</svg>
