<svg width="150" height="30" viewBox="0 0 150 30" fill="none" xmlns="http://www.w3.org/2000/svg">
<path d="M15.922 21.054L15.994 20.352C16.606 20.304 17.026 20.232 17.254 20.136C17.482 20.04 17.596 19.884 17.596 19.668C17.596 19.428 17.542 19.14 17.434 18.804L16.84 16.842C16.552 16.83 15.928 16.824 14.968 16.824C14.392 16.824 13.738 16.872 13.006 16.968L12.34 18.84C12.232 19.164 12.178 19.398 12.178 19.542C12.178 19.806 12.262 19.998 12.43 20.118C12.598 20.226 12.874 20.28 13.258 20.28H14.284L14.32 20.352L14.212 21.126C14.068 21.114 13.738 21.09 13.222 21.054C12.706 21.018 12.202 21 11.71 21C11.266 21 10.852 21.006 10.468 21.018C10.096 21.03 9.85 21.042 9.73 21.054L9.874 20.208C10.21 20.172 10.48 20.058 10.684 19.866C10.888 19.662 11.086 19.314 11.278 18.822L14.788 9.624L15.922 9.318H16.066C16.138 9.606 16.318 10.272 16.606 11.316C16.906 12.36 17.266 13.596 17.686 15.024C18.118 16.452 18.532 17.766 18.928 18.966C19.072 19.41 19.264 19.722 19.504 19.902C19.744 20.082 20.128 20.196 20.656 20.244L20.692 20.316L20.566 21.054C20.422 21.054 20.158 21.042 19.774 21.018C19.402 21.006 19.03 21 18.658 21C18.082 21 17.524 21.024 16.984 21.072C16.456 21.12 16.12 21.156 15.976 21.18L15.922 21.054ZM14.914 16.086C15.346 16.086 15.904 16.056 16.588 15.996L15.166 11.28H15.04L13.33 16.086H14.914ZM20.7182 20.478C21.0542 20.382 21.2882 20.262 21.4202 20.118C21.5642 19.974 21.6482 19.8 21.6722 19.596C21.7082 19.392 21.7262 19.05 21.7262 18.57V9.732C21.7262 9.36 21.6842 9.108 21.6002 8.976C21.5162 8.844 21.3422 8.778 21.0782 8.778C21.0182 8.778 20.8802 8.79 20.6642 8.814L20.6102 8.778L20.6822 8.166C21.6902 8.022 22.5782 7.848 23.3462 7.644L23.4542 7.878C23.3222 8.082 23.2022 9.366 23.0942 11.73C22.9982 14.094 22.9502 16.596 22.9502 19.236C22.9502 19.596 22.9982 19.854 23.0942 20.01C23.1902 20.166 23.3522 20.244 23.5802 20.244L24.2102 20.208L24.2462 20.28L24.1022 21.054C23.3102 21.018 22.7762 21 22.5002 21C22.0922 21 21.4742 21.072 20.6462 21.216L20.7182 20.478ZM28.9827 21.216C28.2387 21.216 27.5787 21.054 27.0027 20.73C26.4267 20.394 25.9827 19.926 25.6707 19.326C25.3587 18.714 25.2027 18.018 25.2027 17.238C25.2027 16.434 25.3827 15.678 25.7427 14.97C26.1147 14.262 26.6067 13.698 27.2187 13.278C27.8307 12.858 28.4847 12.648 29.1807 12.648C30.0567 12.648 30.7227 12.87 31.1787 13.314C31.6347 13.758 31.8627 14.406 31.8627 15.258C31.8627 15.606 31.8267 15.9 31.7547 16.14L31.5207 16.356H26.5527C26.5407 17.52 26.7687 18.42 27.2367 19.056C27.7167 19.68 28.3827 19.992 29.2347 19.992C29.9067 19.992 30.6387 19.806 31.4307 19.434L31.5387 19.47L31.7367 19.992C31.3047 20.304 30.8247 20.586 30.2967 20.838C29.7807 21.09 29.3427 21.216 28.9827 21.216ZM29.8827 15.528C30.0627 15.504 30.1827 15.462 30.2427 15.402C30.3027 15.342 30.3327 15.222 30.3327 15.042C30.3327 14.562 30.2007 14.196 29.9367 13.944C29.6847 13.692 29.3187 13.566 28.8387 13.566C28.2747 13.566 27.7887 13.758 27.3807 14.142C26.9847 14.526 26.7327 15.042 26.6247 15.69L29.8827 15.528ZM40.9973 13.386C40.7693 13.422 40.2533 13.476 39.4493 13.548L39.3773 13.638C39.8573 14.166 40.0973 14.778 40.0973 15.474C40.0973 16.05 39.9353 16.584 39.6113 17.076C39.2993 17.568 38.8733 17.958 38.3333 18.246C37.7933 18.522 37.1993 18.66 36.5513 18.66C36.2033 18.66 35.8673 18.612 35.5433 18.516C35.2673 18.672 35.0693 18.816 34.9493 18.948C34.8293 19.08 34.7693 19.212 34.7693 19.344C34.7693 19.62 34.9553 19.812 35.3273 19.92C35.6993 20.028 36.2813 20.13 37.0733 20.226C37.8533 20.322 38.4833 20.424 38.9633 20.532C39.4433 20.628 39.8573 20.808 40.2053 21.072C40.5533 21.336 40.7273 21.702 40.7273 22.17C40.7273 22.698 40.5113 23.208 40.0793 23.7C39.6593 24.192 39.1013 24.588 38.4053 24.888C37.7213 25.2 37.0133 25.356 36.2813 25.356C35.4293 25.356 34.7573 25.14 34.2653 24.708C33.7853 24.288 33.5453 23.706 33.5453 22.962C33.7133 22.746 33.9533 22.494 34.2653 22.206C34.5893 21.918 34.9433 21.63 35.3273 21.342V21.234C34.7033 21.126 34.2233 20.922 33.8873 20.622C33.5513 20.322 33.3773 19.938 33.3653 19.47C33.8333 19.026 34.3373 18.642 34.8773 18.318V18.246C34.4573 18.006 34.1273 17.688 33.8873 17.292C33.6593 16.884 33.5453 16.428 33.5453 15.924C33.5453 15.336 33.6953 14.796 33.9953 14.304C34.3073 13.8 34.7153 13.398 35.2193 13.098C35.7353 12.798 36.2933 12.648 36.8933 12.648C37.1693 12.648 37.5113 12.684 37.9193 12.756C38.2193 12.816 38.4653 12.846 38.6573 12.846C39.1973 12.786 40.0253 12.606 41.1413 12.306L41.1953 12.378L40.9973 13.386ZM36.9653 17.868C37.5173 17.868 37.9493 17.694 38.2613 17.346C38.5853 16.998 38.7473 16.518 38.7473 15.906C38.7473 15.21 38.5553 14.646 38.1713 14.214C37.7873 13.782 37.2893 13.566 36.6773 13.566C36.1253 13.566 35.6873 13.746 35.3633 14.106C35.0513 14.466 34.8953 14.952 34.8953 15.564C34.8953 16.248 35.0873 16.806 35.4713 17.238C35.8553 17.658 36.3533 17.868 36.9653 17.868ZM36.1013 21.378C35.7413 21.63 35.4653 21.906 35.2733 22.206C35.0813 22.518 34.9853 22.824 34.9853 23.124C34.9853 23.532 35.1593 23.856 35.5073 24.096C35.8553 24.348 36.3173 24.474 36.8933 24.474C37.3493 24.474 37.7813 24.39 38.1893 24.222C38.6093 24.066 38.9453 23.85 39.1973 23.574C39.4493 23.298 39.5753 23.004 39.5753 22.692C39.5753 22.452 39.4853 22.26 39.3053 22.116C39.1253 21.972 38.7893 21.846 38.2973 21.738C37.8173 21.63 37.0853 21.51 36.1013 21.378ZM42.5268 20.352C42.8868 20.316 43.1268 20.202 43.2468 20.01C43.3668 19.806 43.4268 19.422 43.4268 18.858V14.898C43.4268 14.502 43.3728 14.22 43.2648 14.052C43.1568 13.884 42.9828 13.8 42.7428 13.8C42.6468 13.8 42.5628 13.806 42.4908 13.818C42.4308 13.83 42.3888 13.842 42.3648 13.854L42.2748 13.728L42.3288 13.17C42.7848 13.086 43.2648 12.984 43.7688 12.864C44.2848 12.744 44.6148 12.666 44.7588 12.63L44.8848 12.738C44.8608 12.846 44.8248 13.098 44.7768 13.494C44.7288 13.878 44.7108 14.244 44.7228 14.592L44.7948 14.646C45.1548 14.082 45.5748 13.62 46.0548 13.26C46.5468 12.9 46.9728 12.72 47.3328 12.72C47.5008 12.72 47.6268 12.732 47.7108 12.756C47.8068 12.768 47.8668 12.78 47.8908 12.792L47.9448 12.864C47.9208 13.032 47.8668 13.392 47.7828 13.944C47.7108 14.484 47.6688 14.982 47.6568 15.438L46.9548 15.492C46.9548 15 46.9188 14.676 46.8468 14.52C46.7868 14.352 46.6608 14.268 46.4688 14.268C46.2048 14.268 45.9228 14.382 45.6228 14.61C45.3228 14.826 45.0468 15.12 44.7948 15.492C44.7828 15.84 44.7588 16.416 44.7228 17.22C44.6868 18.024 44.6628 18.672 44.6508 19.164C44.6508 19.572 44.7108 19.848 44.8308 19.992C44.9508 20.136 45.1788 20.208 45.5148 20.208C45.6708 20.208 45.8268 20.202 45.9828 20.19C46.1388 20.178 46.2468 20.172 46.3068 20.172L46.3248 20.244L46.1628 21.036C46.0428 21.036 45.8028 21.03 45.4428 21.018C45.0828 21.006 44.7108 21 44.3268 21C43.8828 21 43.4808 21.006 43.1208 21.018C42.7608 21.042 42.5328 21.06 42.4368 21.072L42.5268 20.352ZM52.6077 21.216C51.8637 21.216 51.2037 21.054 50.6277 20.73C50.0517 20.394 49.6077 19.926 49.2957 19.326C48.9837 18.714 48.8277 18.018 48.8277 17.238C48.8277 16.434 49.0077 15.678 49.3677 14.97C49.7397 14.262 50.2317 13.698 50.8437 13.278C51.4557 12.858 52.1097 12.648 52.8057 12.648C53.6817 12.648 54.3477 12.87 54.8037 13.314C55.2597 13.758 55.4877 14.406 55.4877 15.258C55.4877 15.606 55.4517 15.9 55.3797 16.14L55.1457 16.356H50.1777C50.1657 17.52 50.3937 18.42 50.8617 19.056C51.3417 19.68 52.0077 19.992 52.8597 19.992C53.5317 19.992 54.2637 19.806 55.0557 19.434L55.1637 19.47L55.3617 19.992C54.9297 20.304 54.4497 20.586 53.9217 20.838C53.4057 21.09 52.9677 21.216 52.6077 21.216ZM53.5077 15.528C53.6877 15.504 53.8077 15.462 53.8677 15.402C53.9277 15.342 53.9577 15.222 53.9577 15.042C53.9577 14.562 53.8257 14.196 53.5617 13.944C53.3097 13.692 52.9437 13.566 52.4637 13.566C51.8997 13.566 51.4137 13.758 51.0057 14.142C50.6097 14.526 50.3577 15.042 50.2497 15.69L53.5077 15.528ZM56.896 25.338C56.8 25.338 56.644 25.194 56.428 24.906C56.212 24.63 56.104 24.432 56.104 24.312L56.194 24.186C56.866 24.186 57.49 23.904 58.066 23.34C58.654 22.788 59.158 22.008 59.578 21C58.654 18.072 57.91 15.864 57.346 14.376C57.238 14.076 57.082 13.86 56.878 13.728C56.686 13.596 56.434 13.524 56.122 13.512L56.086 13.44L56.194 12.846L57.688 12.864C58.132 12.864 58.57 12.846 59.002 12.81C59.446 12.774 59.728 12.75 59.848 12.738L59.884 12.828L59.776 13.386C59.368 13.398 59.092 13.44 58.948 13.512C58.816 13.572 58.75 13.686 58.75 13.854C58.75 14.046 58.864 14.544 59.092 15.348C59.332 16.152 59.578 16.956 59.83 17.76C60.082 18.552 60.25 19.068 60.334 19.308H60.406C61.786 16.008 62.476 14.214 62.476 13.926C62.476 13.614 62.248 13.458 61.792 13.458H60.964L60.928 13.386L61.036 12.792C61.144 12.804 61.384 12.822 61.756 12.846C62.128 12.858 62.5 12.864 62.872 12.864L64.402 12.846L64.276 13.512C64.012 13.56 63.808 13.656 63.664 13.8C63.532 13.932 63.4 14.178 63.268 14.538L60.982 20.01C60.358 21.522 59.848 22.644 59.452 23.376C59.056 24.108 58.666 24.618 58.282 24.906C57.898 25.206 57.436 25.35 56.896 25.338ZM70.696 21.216C69.724 21.216 69.19 20.73 69.094 19.758L69.022 19.74C68.59 20.172 68.194 20.514 67.834 20.766C67.486 21.018 67.222 21.144 67.042 21.144C66.37 21.144 65.818 20.934 65.386 20.514C64.954 20.094 64.738 19.56 64.738 18.912C64.738 18.564 64.822 18.258 64.99 17.994C65.17 17.73 65.404 17.556 65.692 17.472L69.112 16.536L69.13 15.744C69.13 15.144 68.992 14.676 68.716 14.34C68.44 14.004 68.05 13.836 67.546 13.836C67.21 13.836 66.856 13.914 66.484 14.07C66.112 14.226 65.746 14.448 65.386 14.736L65.296 14.682L65.08 13.908C65.644 13.584 66.208 13.296 66.772 13.044C67.348 12.78 67.762 12.648 68.014 12.648C68.794 12.648 69.406 12.852 69.85 13.26C70.294 13.668 70.516 14.238 70.516 14.97C70.516 15.234 70.474 15.774 70.39 16.59C70.258 17.91 70.192 18.75 70.192 19.11C70.192 19.374 70.258 19.578 70.39 19.722C70.522 19.866 70.702 19.938 70.93 19.938C71.122 19.938 71.32 19.896 71.524 19.812C71.728 19.716 71.89 19.608 72.01 19.488L72.262 19.776C72.082 20.076 71.848 20.37 71.56 20.658C71.284 20.934 70.996 21.12 70.696 21.216ZM67.348 19.92C67.576 19.92 67.84 19.842 68.14 19.686C68.452 19.518 68.734 19.308 68.986 19.056L69.076 17.22L66.628 17.958C66.28 18.066 66.106 18.318 66.106 18.714C66.106 19.062 66.22 19.35 66.448 19.578C66.688 19.806 66.988 19.92 67.348 19.92Z" fill="#333333"/>
</svg>
