<svg width="150" height="30" viewBox="0 0 150 30" fill="none" xmlns="http://www.w3.org/2000/svg">
<path d="M10.234 10.786V9.544H19.234V10.786H15.436V22H14.068V10.786H10.234ZM20.7706 22V13H22.1206V22H20.7706ZM20.7706 10.966V9.4H22.1206V10.966H20.7706ZM29.3701 14.17H26.5081V18.472C26.5081 19.504 26.5801 20.182 26.7241 20.506C26.8801 20.83 27.2401 20.992 27.8041 20.992L29.4061 20.884L29.4961 22C28.6921 22.132 28.0801 22.198 27.6601 22.198C26.7241 22.198 26.0761 21.97 25.7161 21.514C25.3561 21.058 25.1761 20.188 25.1761 18.904V14.17H23.8981V13H25.1761V10.246H26.5081V13H29.3701V14.17ZM31.0187 22V13H32.3687V22H31.0187ZM31.0187 10.966V9.4H32.3687V10.966H31.0187ZM35.0642 22V9.076H36.4142V22H35.0642ZM39.2302 22V9.076H40.5802V22H39.2302ZM43.2882 22V13H44.6382V22H43.2882ZM43.2882 10.966V9.4H44.6382V10.966H43.2882ZM52.8417 13H54.1917V22H52.8417V21.37C51.9417 21.91 51.0537 22.18 50.1777 22.18C48.9537 22.18 48.1377 21.862 47.7297 21.226C47.3337 20.59 47.1357 19.414 47.1357 17.698V13H48.4857V17.68C48.4857 18.988 48.5997 19.864 48.8277 20.308C49.0557 20.752 49.5717 20.974 50.3757 20.974C50.7717 20.974 51.1737 20.92 51.5817 20.812C51.9897 20.692 52.3017 20.578 52.5177 20.47L52.8417 20.308V13ZM58.1382 22H56.7882V13H58.1202V13.63C59.0202 13.09 59.8962 12.82 60.7482 12.82C61.8642 12.82 62.6442 13.126 63.0882 13.738C63.4842 13.498 63.9942 13.288 64.6182 13.108C65.2542 12.916 65.8122 12.82 66.2922 12.82C67.4922 12.82 68.2962 13.144 68.7042 13.792C69.1242 14.428 69.3342 15.58 69.3342 17.248V22H67.9842V17.284C67.9842 16.036 67.8642 15.184 67.6242 14.728C67.3842 14.26 66.8742 14.026 66.0942 14.026C65.6982 14.026 65.2902 14.086 64.8702 14.206C64.4502 14.314 64.1262 14.422 63.8982 14.53L63.5562 14.692C63.7122 15.088 63.7902 15.964 63.7902 17.32V22H62.4402V17.356C62.4402 16.06 62.3202 15.184 62.0802 14.728C61.8522 14.26 61.3422 14.026 60.5502 14.026C60.1662 14.026 59.7702 14.086 59.3622 14.206C58.9662 14.314 58.6602 14.422 58.4442 14.53L58.1382 14.692V22ZM75.0341 9.544H76.4741L78.5981 20.776H79.1201L81.6581 9.652H83.2781L85.8161 20.776H86.3381L88.4621 9.544H89.8841L87.3641 22H84.8261L82.4681 11.362L80.1101 22H77.5721L75.0341 9.544ZM97.5019 20.884L98.0239 20.83L98.0599 21.892C96.6919 22.084 95.5219 22.18 94.5499 22.18C93.2539 22.18 92.3359 21.808 91.7959 21.064C91.2559 20.308 90.9859 19.138 90.9859 17.554C90.9859 14.398 92.2399 12.82 94.7479 12.82C95.9599 12.82 96.8659 13.162 97.4659 13.846C98.0659 14.518 98.3659 15.58 98.3659 17.032L98.2939 18.058H92.3539C92.3539 19.054 92.5339 19.792 92.8939 20.272C93.2539 20.752 93.8779 20.992 94.7659 20.992C95.6659 20.992 96.5779 20.956 97.5019 20.884ZM97.0159 16.978C97.0159 15.874 96.8359 15.094 96.4759 14.638C96.1279 14.182 95.5519 13.954 94.7479 13.954C93.9559 13.954 93.3559 14.194 92.9479 14.674C92.5519 15.154 92.3479 15.922 92.3359 16.978H97.0159ZM104.448 12.82C105.66 12.82 106.506 13.168 106.986 13.864C107.478 14.548 107.724 15.754 107.724 17.482C107.724 19.21 107.418 20.428 106.806 21.136C106.206 21.832 105.096 22.18 103.476 22.18C102.972 22.18 102.138 22.132 100.974 22.036L100.47 21.982V9.076H101.802V13.45C102.714 13.03 103.596 12.82 104.448 12.82ZM103.458 20.974C104.634 20.974 105.408 20.71 105.78 20.182C106.164 19.642 106.356 18.736 106.356 17.464C106.356 16.192 106.206 15.304 105.906 14.8C105.606 14.284 105.072 14.026 104.304 14.026C103.608 14.026 102.894 14.158 102.162 14.422L101.802 14.548V20.884C102.582 20.944 103.134 20.974 103.458 20.974Z" fill="#333333"/>
</svg>
