<svg width="150" height="30" viewBox="0 0 150 30" fill="none" xmlns="http://www.w3.org/2000/svg">
<path d="M22.9199 15.5576C22.9199 17.6143 22.3984 19.2314 21.3555 20.4092C20.3184 21.5869 18.874 22.1758 17.0225 22.1758C15.1299 22.1758 13.668 21.5986 12.6367 20.4443C11.6113 19.2842 11.0986 17.6494 11.0986 15.54C11.0986 13.4482 11.6143 11.8281 12.6455 10.6797C13.6768 9.52539 15.1416 8.94824 17.04 8.94824C18.8857 8.94824 20.3271 9.53418 21.3643 10.7061C22.4014 11.8779 22.9199 13.4951 22.9199 15.5576ZM12.6807 15.5576C12.6807 17.2979 13.0498 18.6191 13.7881 19.5215C14.5322 20.418 15.6104 20.8662 17.0225 20.8662C18.4463 20.8662 19.5215 20.418 20.248 19.5215C20.9746 18.625 21.3379 17.3037 21.3379 15.5576C21.3379 13.8291 20.9746 12.5195 20.248 11.6289C19.5273 10.7324 18.458 10.2842 17.04 10.2842C15.6162 10.2842 14.5322 10.7354 13.7881 11.6377C13.0498 12.5342 12.6807 13.8408 12.6807 15.5576ZM30.0566 22.1758C29.4297 22.1758 28.8555 22.0615 28.334 21.833C27.8184 21.5986 27.3848 21.2412 27.0332 20.7607H26.9277C26.998 21.3232 27.0332 21.8564 27.0332 22.3604V26.3242H25.5742V12.3672H26.7607L26.9629 13.6855H27.0332C27.4082 13.1582 27.8447 12.7773 28.3428 12.543C28.8408 12.3086 29.4121 12.1914 30.0566 12.1914C31.334 12.1914 32.3184 12.6279 33.0098 13.501C33.707 14.374 34.0557 15.5986 34.0557 17.1748C34.0557 18.7568 33.7012 19.9873 32.9922 20.8662C32.2891 21.7393 31.3105 22.1758 30.0566 22.1758ZM29.8457 13.4307C28.8613 13.4307 28.1494 13.7031 27.71 14.248C27.2705 14.793 27.0449 15.6602 27.0332 16.8496V17.1748C27.0332 18.5283 27.2588 19.498 27.71 20.084C28.1611 20.6641 28.8848 20.9541 29.8809 20.9541C30.7129 20.9541 31.3633 20.6172 31.832 19.9434C32.3066 19.2695 32.5439 18.3408 32.5439 17.1572C32.5439 15.9561 32.3066 15.0361 31.832 14.3975C31.3633 13.7529 30.7012 13.4307 29.8457 13.4307ZM40.6826 22.1758C39.2588 22.1758 38.1338 21.7422 37.3076 20.875C36.4873 20.0078 36.0771 18.8037 36.0771 17.2627C36.0771 15.71 36.458 14.4766 37.2197 13.5625C37.9873 12.6484 39.0156 12.1914 40.3047 12.1914C41.5117 12.1914 42.4668 12.5898 43.1699 13.3867C43.873 14.1777 44.2246 15.2236 44.2246 16.5244V17.4473H37.5889C37.6182 18.5781 37.9023 19.4365 38.4414 20.0225C38.9863 20.6084 39.751 20.9014 40.7354 20.9014C41.7725 20.9014 42.7979 20.6846 43.8115 20.251V21.5518C43.2959 21.7744 42.8066 21.9326 42.3438 22.0264C41.8867 22.126 41.333 22.1758 40.6826 22.1758ZM40.2871 13.4131C39.5137 13.4131 38.8955 13.665 38.4326 14.1689C37.9756 14.6729 37.7061 15.3701 37.624 16.2607H42.6602C42.6602 15.3408 42.4551 14.6377 42.0449 14.1514C41.6348 13.6592 41.0488 13.4131 40.2871 13.4131ZM53.3125 22V15.7686C53.3125 14.9834 53.1338 14.3975 52.7764 14.0107C52.4189 13.624 51.8594 13.4307 51.0977 13.4307C50.0898 13.4307 49.3516 13.7031 48.8828 14.248C48.4141 14.793 48.1797 15.6924 48.1797 16.9463V22H46.7207V12.3672H47.9072L48.1445 13.6855H48.2148C48.5137 13.2109 48.9326 12.8447 49.4717 12.5869C50.0107 12.3232 50.6113 12.1914 51.2734 12.1914C52.4336 12.1914 53.3066 12.4727 53.8926 13.0352C54.4785 13.5918 54.7715 14.4854 54.7715 15.7158V22H53.3125ZM68.667 19.3721C68.667 20.2686 68.333 20.96 67.665 21.4463C66.9971 21.9326 66.0596 22.1758 64.8525 22.1758C63.5752 22.1758 62.5791 21.9736 61.8643 21.5693V20.2158C62.3271 20.4502 62.8223 20.6348 63.3496 20.7695C63.8828 20.9043 64.3955 20.9717 64.8877 20.9717C65.6494 20.9717 66.2354 20.8516 66.6455 20.6113C67.0557 20.3652 67.2607 19.9932 67.2607 19.4951C67.2607 19.1201 67.0967 18.8008 66.7686 18.5371C66.4463 18.2676 65.8135 17.9512 64.8701 17.5879C63.9736 17.2539 63.335 16.9639 62.9541 16.7178C62.5791 16.4658 62.2979 16.1816 62.1104 15.8652C61.9287 15.5488 61.8379 15.1709 61.8379 14.7314C61.8379 13.9463 62.1572 13.3281 62.7959 12.877C63.4346 12.4199 64.3105 12.1914 65.4238 12.1914C66.4609 12.1914 67.4746 12.4023 68.4648 12.8242L67.9463 14.0107C66.9795 13.6123 66.1035 13.4131 65.3184 13.4131C64.627 13.4131 64.1055 13.5215 63.7539 13.7383C63.4023 13.9551 63.2266 14.2539 63.2266 14.6348C63.2266 14.8926 63.291 15.1123 63.4199 15.2939C63.5547 15.4756 63.7686 15.6484 64.0615 15.8125C64.3545 15.9766 64.917 16.2139 65.749 16.5244C66.8916 16.9404 67.6621 17.3594 68.0605 17.7812C68.4648 18.2031 68.667 18.7334 68.667 19.3721ZM76.9727 22L76.6826 20.6289H76.6123C76.1318 21.2324 75.6514 21.6426 75.1709 21.8594C74.6963 22.0703 74.1016 22.1758 73.3867 22.1758C72.4316 22.1758 71.6816 21.9297 71.1367 21.4375C70.5977 20.9453 70.3281 20.2451 70.3281 19.3369C70.3281 17.3916 71.8838 16.3721 74.9951 16.2783L76.6299 16.2256V15.6279C76.6299 14.8721 76.4658 14.3154 76.1377 13.958C75.8154 13.5947 75.2969 13.4131 74.582 13.4131C73.7793 13.4131 72.8711 13.6592 71.8574 14.1514L71.4092 13.0352C71.8838 12.7773 72.4023 12.5752 72.9648 12.4287C73.5332 12.2822 74.1016 12.209 74.6699 12.209C75.8184 12.209 76.668 12.4639 77.2188 12.9736C77.7754 13.4834 78.0537 14.3008 78.0537 15.4258V22H76.9727ZM73.6768 20.9717C74.585 20.9717 75.2969 20.7227 75.8125 20.2246C76.334 19.7266 76.5947 19.0293 76.5947 18.1328V17.2627L75.1357 17.3242C73.9756 17.3652 73.1377 17.5469 72.6221 17.8691C72.1123 18.1855 71.8574 18.6807 71.8574 19.3545C71.8574 19.8818 72.0156 20.2832 72.332 20.5586C72.6543 20.834 73.1025 20.9717 73.6768 20.9717ZM87.6602 22V15.7686C87.6602 14.9834 87.4814 14.3975 87.124 14.0107C86.7666 13.624 86.207 13.4307 85.4453 13.4307C84.4375 13.4307 83.6992 13.7031 83.2305 14.248C82.7617 14.793 82.5273 15.6924 82.5273 16.9463V22H81.0684V12.3672H82.2549L82.4922 13.6855H82.5625C82.8613 13.2109 83.2803 12.8447 83.8193 12.5869C84.3584 12.3232 84.959 12.1914 85.6211 12.1914C86.7812 12.1914 87.6543 12.4727 88.2402 13.0352C88.8262 13.5918 89.1191 14.4854 89.1191 15.7158V22H87.6602ZM98.3389 19.3721C98.3389 20.2686 98.0049 20.96 97.3369 21.4463C96.6689 21.9326 95.7314 22.1758 94.5244 22.1758C93.2471 22.1758 92.251 21.9736 91.5361 21.5693V20.2158C91.999 20.4502 92.4941 20.6348 93.0215 20.7695C93.5547 20.9043 94.0674 20.9717 94.5596 20.9717C95.3213 20.9717 95.9072 20.8516 96.3174 20.6113C96.7275 20.3652 96.9326 19.9932 96.9326 19.4951C96.9326 19.1201 96.7686 18.8008 96.4404 18.5371C96.1182 18.2676 95.4854 17.9512 94.542 17.5879C93.6455 17.2539 93.0068 16.9639 92.626 16.7178C92.251 16.4658 91.9697 16.1816 91.7822 15.8652C91.6006 15.5488 91.5098 15.1709 91.5098 14.7314C91.5098 13.9463 91.8291 13.3281 92.4678 12.877C93.1064 12.4199 93.9824 12.1914 95.0957 12.1914C96.1328 12.1914 97.1465 12.4023 98.1367 12.8242L97.6182 14.0107C96.6514 13.6123 95.7754 13.4131 94.9902 13.4131C94.2988 13.4131 93.7773 13.5215 93.4258 13.7383C93.0742 13.9551 92.8984 14.2539 92.8984 14.6348C92.8984 14.8926 92.9629 15.1123 93.0918 15.2939C93.2266 15.4756 93.4404 15.6484 93.7334 15.8125C94.0264 15.9766 94.5889 16.2139 95.4209 16.5244C96.5635 16.9404 97.334 17.3594 97.7324 17.7812C98.1367 18.2031 98.3389 18.7334 98.3389 19.3721Z" fill="#333333"/>
</svg>
