<svg width="150" height="30" viewBox="0 0 150 30" fill="none" xmlns="http://www.w3.org/2000/svg">
<path d="M22.9287 16.0166C22.7881 16.0342 22.5977 16.0635 22.3574 16.1045C22.123 16.1396 21.9326 16.1924 21.7861 16.2627C21.6104 16.3506 21.4844 16.4766 21.4082 16.6406C21.3379 16.7988 21.3027 16.9863 21.3027 17.2031V18.1699C21.3027 18.873 21.3057 19.3477 21.3115 19.5938C21.3232 19.8398 21.335 20.042 21.3467 20.2002C20.5674 20.5518 19.791 20.8213 19.0176 21.0088C18.2441 21.1963 17.4854 21.29 16.7412 21.29C15.9443 21.29 15.1768 21.1406 14.4385 20.8418C13.7002 20.543 13.0557 20.1182 12.5049 19.5674C11.9482 19.0107 11.5059 18.334 11.1777 17.5371C10.8496 16.7402 10.6855 15.8496 10.6855 14.8652C10.6855 13.916 10.8408 13.0371 11.1514 12.2285C11.4678 11.4141 11.9131 10.708 12.4873 10.1104C13.0439 9.52441 13.7061 9.07031 14.4736 8.74805C15.2471 8.41992 16.0732 8.25586 16.9521 8.25586C17.6553 8.25586 18.2676 8.34082 18.7891 8.51074C19.3105 8.68066 19.7705 8.88574 20.1689 9.12598L20.5293 8.52832H21.2324L21.3115 12.8877H20.5908C20.4678 12.4072 20.3154 11.9355 20.1338 11.4727C19.9521 11.0039 19.7178 10.585 19.4307 10.2158C19.1436 9.84668 18.792 9.55371 18.376 9.33691C17.9658 9.11426 17.4736 9.00293 16.8994 9.00293C16.2725 9.00293 15.7129 9.13184 15.2207 9.38965C14.7285 9.6416 14.3008 10.0195 13.9375 10.5234C13.5801 11.0098 13.3047 11.6162 13.1113 12.3428C12.918 13.0693 12.8213 13.8809 12.8213 14.7773C12.8213 15.5684 12.915 16.3154 13.1025 17.0186C13.2959 17.7158 13.5742 18.3193 13.9375 18.8291C14.3008 19.3506 14.7549 19.7607 15.2998 20.0596C15.8447 20.3584 16.4629 20.5078 17.1543 20.5078C17.6699 20.5078 18.1387 20.4287 18.5605 20.2705C18.9883 20.1123 19.29 19.9453 19.4658 19.7695C19.5127 19.4648 19.5361 19.1572 19.5361 18.8467C19.542 18.5361 19.5449 18.2725 19.5449 18.0557V17.3701C19.5449 17.124 19.5098 16.9072 19.4395 16.7197C19.375 16.5264 19.2373 16.3857 19.0264 16.2979C18.833 16.21 18.5693 16.1455 18.2354 16.1045C17.9072 16.0576 17.6494 16.0283 17.4619 16.0166V15.375H22.9287V16.0166ZM31.3926 18.9609C31.0293 19.6523 30.543 20.2031 29.9336 20.6133C29.3242 21.0234 28.624 21.2285 27.833 21.2285C27.1357 21.2285 26.5234 21.1055 25.9961 20.8594C25.4746 20.6133 25.0439 20.2793 24.7041 19.8574C24.3643 19.4355 24.1094 18.9434 23.9395 18.3809C23.7754 17.8184 23.6934 17.2236 23.6934 16.5967C23.6934 16.0342 23.7812 15.4834 23.957 14.9443C24.1387 14.3994 24.4023 13.9102 24.748 13.4766C25.082 13.0605 25.4951 12.7266 25.9873 12.4746C26.4854 12.2168 27.042 12.0879 27.6572 12.0879C28.29 12.0879 28.832 12.1875 29.2832 12.3867C29.7344 12.5859 30.1006 12.8584 30.3818 13.2041C30.6514 13.5322 30.8506 13.9189 30.9795 14.3643C31.1143 14.8096 31.1816 15.293 31.1816 15.8145V16.3945H25.4424C25.4424 16.9629 25.4951 17.4785 25.6006 17.9414C25.7119 18.4043 25.8848 18.8115 26.1191 19.1631C26.3477 19.5029 26.6465 19.7725 27.0156 19.9717C27.3848 20.165 27.8242 20.2617 28.334 20.2617C28.8555 20.2617 29.3037 20.1416 29.6787 19.9014C30.0596 19.6553 30.4258 19.2158 30.7773 18.583L31.3926 18.9609ZM29.4502 15.6562C29.4502 15.3281 29.4209 14.9766 29.3623 14.6016C29.3096 14.2266 29.2217 13.9131 29.0986 13.6611C28.9639 13.3916 28.7793 13.1719 28.5449 13.002C28.3105 12.832 28.0088 12.7471 27.6396 12.7471C27.0244 12.7471 26.5117 13.0049 26.1016 13.5205C25.6973 14.0303 25.4775 14.7422 25.4424 15.6562H29.4502ZM40.8408 16.5791C40.8408 17.1885 40.7441 17.7891 40.5508 18.3809C40.3574 18.9668 40.082 19.4648 39.7246 19.875C39.3203 20.3438 38.8516 20.6924 38.3184 20.9209C37.7852 21.1494 37.1875 21.2637 36.5254 21.2637C35.9746 21.2637 35.4502 21.1611 34.9521 20.9561C34.4541 20.7451 34.0117 20.4404 33.625 20.042C33.2441 19.6494 32.9395 19.1719 32.7109 18.6094C32.4883 18.041 32.377 17.4053 32.377 16.7021C32.377 15.3486 32.7695 14.2412 33.5547 13.3799C34.3457 12.5186 35.3799 12.0879 36.6572 12.0879C37.8701 12.0879 38.8691 12.498 39.6543 13.3184C40.4453 14.1328 40.8408 15.2197 40.8408 16.5791ZM39.0215 16.5967C39.0215 16.1572 38.9775 15.6943 38.8896 15.208C38.8018 14.7158 38.6699 14.2998 38.4941 13.96C38.3066 13.5967 38.0605 13.3066 37.7559 13.0898C37.4512 12.8672 37.0791 12.7559 36.6396 12.7559C36.1885 12.7559 35.8018 12.8672 35.4795 13.0898C35.1631 13.3125 34.9053 13.6172 34.7061 14.0039C34.5186 14.3613 34.3867 14.7686 34.3105 15.2256C34.2344 15.6826 34.1963 16.125 34.1963 16.5527C34.1963 17.1152 34.2402 17.6367 34.3281 18.1172C34.4219 18.5918 34.5684 19.0166 34.7676 19.3916C34.9668 19.7666 35.2158 20.0625 35.5146 20.2793C35.8193 20.4902 36.1943 20.5957 36.6396 20.5957C37.3721 20.5957 37.9521 20.2412 38.3799 19.5322C38.8076 18.8232 39.0215 17.8447 39.0215 16.5967ZM48.7334 13.4502C48.7334 13.749 48.6602 14.0156 48.5137 14.25C48.3672 14.4785 48.1416 14.5928 47.8369 14.5928C47.5088 14.5928 47.2568 14.5078 47.0811 14.3379C46.9111 14.168 46.8262 13.9805 46.8262 13.7754C46.8262 13.6465 46.835 13.5293 46.8525 13.4238C46.876 13.3184 46.8965 13.2129 46.9141 13.1074C46.6387 13.1074 46.3164 13.2188 45.9473 13.4414C45.5781 13.6641 45.2646 13.9805 45.0068 14.3906V19.4355C45.0068 19.6406 45.0449 19.8076 45.1211 19.9365C45.2031 20.0654 45.3291 20.1621 45.499 20.2266C45.6455 20.2852 45.833 20.3291 46.0615 20.3584C46.2959 20.3877 46.498 20.4082 46.668 20.4199V21H42.0977V20.4199C42.2324 20.4082 42.3701 20.3965 42.5107 20.3848C42.6572 20.373 42.7832 20.3496 42.8887 20.3145C43.0527 20.2617 43.1729 20.1709 43.249 20.042C43.3311 19.9072 43.3721 19.7344 43.3721 19.5234V14.1709C43.3721 13.9893 43.3281 13.8105 43.2402 13.6348C43.1582 13.459 43.041 13.3184 42.8887 13.2129C42.7773 13.1426 42.6455 13.0928 42.4932 13.0635C42.3408 13.0283 42.1768 13.0049 42.001 12.9932V12.4219L44.8838 12.2285L45.0068 12.3516V13.5732H45.0508C45.4141 13.0986 45.8184 12.7383 46.2637 12.4922C46.709 12.2461 47.1162 12.123 47.4854 12.123C47.8545 12.123 48.1533 12.2432 48.3818 12.4834C48.6162 12.7236 48.7334 13.0459 48.7334 13.4502ZM56.9072 20.1035C57.1416 20.3262 57.3262 20.5781 57.4609 20.8594C57.5957 21.1406 57.6631 21.4893 57.6631 21.9053C57.6631 22.3213 57.5723 22.7109 57.3906 23.0742C57.209 23.4434 56.9336 23.7627 56.5645 24.0322C56.1719 24.3076 55.7031 24.5215 55.1582 24.6738C54.6133 24.8262 53.9395 24.9023 53.1367 24.9023C51.8242 24.9023 50.8428 24.709 50.1924 24.3223C49.542 23.9414 49.2168 23.3818 49.2168 22.6436C49.2168 22.0459 49.4512 21.5742 49.9199 21.2285C50.3887 20.8828 50.9863 20.6953 51.7129 20.666V20.543C51.5371 20.4902 51.3555 20.4258 51.168 20.3496C50.9805 20.2676 50.8193 20.1738 50.6846 20.0684C50.5322 19.9453 50.4092 19.8018 50.3154 19.6377C50.2217 19.4678 50.1748 19.2598 50.1748 19.0137C50.1748 18.7031 50.2832 18.4189 50.5 18.1611C50.7227 17.8975 51.0566 17.6719 51.502 17.4844V17.3525C50.9395 17.0889 50.5029 16.752 50.1924 16.3418C49.8818 15.9258 49.7266 15.4453 49.7266 14.9004C49.7266 14.0801 50.0312 13.4062 50.6406 12.8789C51.2559 12.3516 52.041 12.0879 52.9961 12.0879C53.2598 12.0879 53.5205 12.1143 53.7783 12.167C54.042 12.2197 54.3086 12.2871 54.5781 12.3691H57.6016V13.2129H55.5625V13.2656C55.7793 13.5176 55.9404 13.7959 56.0459 14.1006C56.1514 14.4053 56.2041 14.7041 56.2041 14.9971C56.2041 15.7588 55.8936 16.4033 55.2725 16.9307C54.6572 17.458 53.9395 17.7217 53.1191 17.7217H52.0557C51.9209 17.7686 51.7803 17.8535 51.6338 17.9766C51.4873 18.0996 51.4141 18.2666 51.4141 18.4775C51.4141 18.6943 51.4756 18.8613 51.5986 18.9785C51.7217 19.0898 51.8711 19.166 52.0469 19.207C52.2168 19.2539 52.4131 19.2832 52.6357 19.2949C52.8643 19.3066 53.0986 19.3154 53.3389 19.3213C53.5967 19.3271 53.9482 19.3447 54.3936 19.374C54.8447 19.4033 55.1641 19.4209 55.3516 19.4268C55.6211 19.4385 55.8906 19.5029 56.1602 19.6201C56.4355 19.7373 56.6846 19.8984 56.9072 20.1035ZM54.5342 14.9619C54.5342 14.2764 54.3936 13.7314 54.1123 13.3271C53.8369 12.917 53.4473 12.7119 52.9434 12.7119C52.668 12.7119 52.4307 12.7705 52.2314 12.8877C52.0381 12.999 51.8799 13.1602 51.7568 13.3711C51.6396 13.5645 51.5547 13.7988 51.502 14.0742C51.4551 14.3438 51.4316 14.6221 51.4316 14.9092C51.4316 15.5596 51.5723 16.0898 51.8535 16.5C52.1406 16.9102 52.5098 17.1152 52.9609 17.1152C53.4648 17.1152 53.8516 16.9131 54.1211 16.5088C54.3965 16.0986 54.5342 15.583 54.5342 14.9619ZM56.2217 22.2305C56.2217 21.9023 56.1455 21.6328 55.9932 21.4219C55.8408 21.2109 55.6094 21.0674 55.2988 20.9912C55.1348 20.9678 54.7979 20.9414 54.2881 20.9121C53.7783 20.8828 53.1865 20.8682 52.5127 20.8682C51.8799 20.9912 51.4287 21.1963 51.1592 21.4834C50.8955 21.7764 50.7637 22.1514 50.7637 22.6084C50.7637 22.8135 50.8076 23.0098 50.8955 23.1973C50.9834 23.3848 51.1357 23.5576 51.3525 23.7158C51.5576 23.8682 51.833 23.9912 52.1787 24.085C52.5244 24.1846 52.9463 24.2344 53.4443 24.2344C54.3057 24.2344 54.9824 24.0674 55.4746 23.7334C55.9727 23.4053 56.2217 22.9043 56.2217 22.2305ZM62.8662 21H58.6738V20.4199C58.8086 20.4082 58.9463 20.3965 59.0869 20.3848C59.2334 20.373 59.3594 20.3496 59.4648 20.3145C59.6289 20.2617 59.749 20.1709 59.8252 20.042C59.9072 19.9072 59.9482 19.7344 59.9482 19.5234V14.1709C59.9482 13.9834 59.9043 13.8135 59.8164 13.6611C59.7344 13.5029 59.6172 13.3711 59.4648 13.2656C59.3535 13.1953 59.1924 13.1367 58.9814 13.0898C58.7705 13.0371 58.5771 13.0049 58.4014 12.9932V12.4219L61.46 12.2285L61.583 12.3516V19.418C61.583 19.623 61.6211 19.793 61.6973 19.9277C61.7793 20.0625 61.9053 20.1621 62.0752 20.2266C62.2041 20.2793 62.3301 20.3232 62.4531 20.3584C62.5762 20.3877 62.7139 20.4082 62.8662 20.4199V21ZM61.7588 8.80957C61.7588 9.14355 61.6475 9.43652 61.4248 9.68848C61.208 9.93457 60.9385 10.0576 60.6162 10.0576C60.3174 10.0576 60.0566 9.94043 59.834 9.70605C59.6172 9.46582 59.5088 9.19336 59.5088 8.88867C59.5088 8.56641 59.6172 8.28516 59.834 8.04492C60.0566 7.80469 60.3174 7.68457 60.6162 7.68457C60.9502 7.68457 61.2227 7.79883 61.4336 8.02734C61.6504 8.25 61.7588 8.51074 61.7588 8.80957ZM72.1387 20.8418C71.8633 20.9414 71.6201 21.0205 71.4092 21.0791C71.2041 21.1436 70.9697 21.1758 70.7061 21.1758C70.249 21.1758 69.8828 21.0703 69.6074 20.8594C69.3379 20.6426 69.165 20.3291 69.0889 19.9189H69.0361C68.6553 20.3408 68.2451 20.6631 67.8057 20.8857C67.3721 21.1084 66.8477 21.2197 66.2324 21.2197C65.582 21.2197 65.0459 21.0205 64.624 20.6221C64.208 20.2236 64 19.7021 64 19.0576C64 18.7236 64.0469 18.4248 64.1406 18.1611C64.2344 17.8975 64.375 17.6602 64.5625 17.4492C64.709 17.2734 64.9023 17.1182 65.1426 16.9834C65.3828 16.8428 65.6084 16.7314 65.8193 16.6494C66.083 16.5498 66.6162 16.3652 67.4189 16.0957C68.2275 15.8262 68.7725 15.6152 69.0537 15.4629V14.5928C69.0537 14.5166 69.0361 14.3701 69.001 14.1533C68.9717 13.9365 68.9043 13.7314 68.7988 13.5381C68.6816 13.3213 68.5146 13.1338 68.2979 12.9756C68.0869 12.8115 67.7852 12.7295 67.3926 12.7295C67.123 12.7295 66.8711 12.7764 66.6367 12.8701C66.4082 12.958 66.2471 13.0518 66.1533 13.1514C66.1533 13.2686 66.1797 13.4414 66.2324 13.6699C66.291 13.8984 66.3203 14.1094 66.3203 14.3027C66.3203 14.5078 66.2266 14.6953 66.0391 14.8652C65.8574 15.0352 65.6025 15.1201 65.2744 15.1201C64.9814 15.1201 64.7646 15.0176 64.624 14.8125C64.4893 14.6016 64.4219 14.3672 64.4219 14.1094C64.4219 13.8398 64.5156 13.582 64.7031 13.3359C64.8965 13.0898 65.1455 12.8701 65.4502 12.6768C65.7139 12.5127 66.0332 12.375 66.4082 12.2637C66.7832 12.1465 67.1494 12.0879 67.5068 12.0879C67.999 12.0879 68.4268 12.123 68.79 12.1934C69.1592 12.2578 69.4932 12.4014 69.792 12.624C70.0908 12.8408 70.3164 13.1367 70.4688 13.5117C70.627 13.8809 70.7061 14.3584 70.7061 14.9443C70.7061 15.7822 70.6973 16.5264 70.6797 17.1768C70.6621 17.8213 70.6533 18.5273 70.6533 19.2949C70.6533 19.5234 70.6914 19.7051 70.7676 19.8398C70.8496 19.9746 70.9727 20.0889 71.1367 20.1826C71.2246 20.2354 71.3623 20.2646 71.5498 20.2705C71.7432 20.2764 71.9395 20.2793 72.1387 20.2793V20.8418ZM69.0713 16.2012C68.5732 16.3477 68.1367 16.4912 67.7617 16.6318C67.3867 16.7725 67.0381 16.9482 66.7158 17.1592C66.4229 17.3584 66.1914 17.5957 66.0215 17.8711C65.8516 18.1406 65.7666 18.4629 65.7666 18.8379C65.7666 19.3242 65.8926 19.6816 66.1445 19.9102C66.4023 20.1387 66.7275 20.2529 67.1201 20.2529C67.5361 20.2529 67.9023 20.1533 68.2188 19.9541C68.5352 19.749 68.8018 19.5088 69.0186 19.2334L69.0713 16.2012Z" fill="#333333"/>
</svg>
