<svg width="150" height="30" viewBox="0 0 150 30" fill="none" xmlns="http://www.w3.org/2000/svg">
<path d="M12.25 8.516L15.346 13.394L18.298 8.012L20.8 8.534L16.912 15.608L16.948 20.522L14.428 20V15.05L10 7.994L12.25 8.516ZM22.5428 13.682L21.5708 12.044C22.4108 11.828 23.3408 11.624 24.3608 11.432C25.3928 11.24 26.0408 11.15 26.3048 11.162C26.5688 11.174 27.0968 11.57 27.8888 12.35C28.6808 13.118 29.2148 13.706 29.4908 14.114C29.5868 14.258 29.6348 14.744 29.6348 15.572C29.6348 16.388 29.6168 17.324 29.5808 18.38C29.5568 19.436 29.5508 20.15 29.5628 20.522L27.3308 20L27.3488 19.082C26.3768 20.054 25.5848 20.54 24.9728 20.54C24.3968 20.528 23.6648 19.982 22.7768 18.902C21.8888 17.822 21.4448 17.048 21.4448 16.58C21.4448 16.208 21.6968 15.866 22.2008 15.554C22.7048 15.242 23.3168 15.002 24.0368 14.834C24.7688 14.654 25.4168 14.516 25.9808 14.42C26.5448 14.324 27.0248 14.258 27.4208 14.222L27.4388 13.736C27.4508 13.16 27.1448 12.848 26.5208 12.8C25.9448 12.764 24.7328 13.022 22.8848 13.574H22.8668L22.8488 13.592H22.8308H22.8128L22.7948 13.61H22.7768H22.7588L22.7408 13.628H22.7228H22.7048L22.6868 13.646H22.6688H22.6508H22.6328L22.6148 13.664H22.5968H22.5788L22.5608 13.682H22.5428ZM23.4428 18.2C23.5508 18.368 23.7548 18.476 24.0548 18.524C24.3548 18.572 24.8048 18.494 25.4048 18.29C26.0168 18.074 26.6768 17.702 27.3848 17.174L27.4028 15.59C24.2348 16.514 22.9148 17.384 23.4428 18.2ZM31.3567 12.656L30.8167 11.396H32.2927V9.452L34.5067 9.956V11.396H36.7027L37.2427 12.656H34.5067V14.942C34.5067 15.074 34.5067 15.272 34.5067 15.536C34.5067 15.86 34.5007 16.184 34.4887 16.508C34.4887 16.832 34.5067 17.138 34.5427 17.426C34.5907 17.714 34.6447 17.978 34.7047 18.218C34.7647 18.458 34.8667 18.65 35.0107 18.794C35.1547 18.938 35.3287 19.034 35.5327 19.082C35.7367 19.13 35.9947 19.1 36.3067 18.992C36.6307 18.872 36.9967 18.68 37.4047 18.416L37.8907 18.974C37.1947 19.61 36.6127 20.054 36.1447 20.306C35.7847 20.51 35.2867 20.474 34.6507 20.198C34.0267 19.934 33.4747 19.562 32.9947 19.082C32.5267 18.59 32.2927 18.164 32.2927 17.804V12.656H31.3567ZM41.65 11.9V13.232C42.526 11.852 43.27 11.162 43.882 11.162C44.182 11.162 44.686 11.318 45.394 11.63C46.102 11.93 46.696 12.242 47.176 12.566L45.934 14.366C45.19 13.814 44.542 13.514 43.99 13.466C43.45 13.406 43.018 13.514 42.694 13.79C42.37 14.054 42.022 14.486 41.65 15.086V20.522L39.4 20.018V11.396L41.65 11.9ZM49.033 13.682L48.061 12.044C48.901 11.828 49.831 11.624 50.851 11.432C51.883 11.24 52.531 11.15 52.795 11.162C53.059 11.174 53.587 11.57 54.379 12.35C55.171 13.118 55.705 13.706 55.981 14.114C56.077 14.258 56.125 14.744 56.125 15.572C56.125 16.388 56.107 17.324 56.071 18.38C56.047 19.436 56.041 20.15 56.053 20.522L53.821 20L53.839 19.082C52.867 20.054 52.075 20.54 51.463 20.54C50.887 20.528 50.155 19.982 49.267 18.902C48.379 17.822 47.935 17.048 47.935 16.58C47.935 16.208 48.187 15.866 48.691 15.554C49.195 15.242 49.807 15.002 50.527 14.834C51.259 14.654 51.907 14.516 52.471 14.42C53.035 14.324 53.515 14.258 53.911 14.222L53.929 13.736C53.941 13.16 53.635 12.848 53.011 12.8C52.435 12.764 51.223 13.022 49.375 13.574H49.357L49.339 13.592H49.321H49.303L49.285 13.61H49.267H49.249L49.231 13.628H49.213H49.195L49.177 13.646H49.159H49.141H49.123L49.105 13.664H49.087H49.069L49.051 13.682H49.033ZM49.933 18.2C50.041 18.368 50.245 18.476 50.545 18.524C50.845 18.572 51.295 18.494 51.895 18.29C52.507 18.074 53.167 17.702 53.875 17.174L53.893 15.59C50.725 16.514 49.405 17.384 49.933 18.2ZM72.7979 9.704C71.5979 8.912 70.4099 8.954 69.2339 9.83C68.2859 10.55 67.5959 11.588 67.1639 12.944C66.6959 14.456 66.7439 15.758 67.3079 16.85C67.5839 17.402 67.9919 17.84 68.5319 18.164C69.7439 18.896 70.9319 18.812 72.0959 17.912C73.0439 17.18 73.7219 16.13 74.1299 14.762C74.5739 13.25 74.4899 11.954 73.8779 10.874C73.6139 10.394 73.2539 10.004 72.7979 9.704ZM75.6059 10.586C76.0619 11.03 76.4039 11.558 76.6319 12.17C76.8599 12.77 76.9679 13.388 76.9559 14.024C76.9559 14.648 76.8539 15.284 76.6499 15.932C76.4579 16.58 76.1879 17.186 75.8399 17.75C75.5039 18.302 75.0959 18.8 74.6159 19.244C74.1359 19.676 73.6199 20.006 73.0679 20.234C72.5159 20.462 71.9159 20.558 71.2679 20.522C70.6199 20.486 69.9839 20.288 69.3599 19.928C69.2639 19.868 69.0899 19.772 68.8379 19.64C68.5979 19.508 68.4239 19.418 68.3159 19.37C68.2199 19.31 68.0699 19.22 67.8659 19.1C67.6619 18.968 67.4879 18.854 67.3439 18.758C67.2119 18.65 67.0439 18.524 66.8399 18.38C66.6479 18.224 66.4499 18.056 66.2459 17.876C66.0419 17.696 65.8259 17.492 65.5979 17.264C65.1539 16.844 64.8239 16.34 64.6079 15.752C64.4039 15.164 64.3079 14.558 64.3199 13.934C64.3439 13.31 64.4519 12.68 64.6439 12.044C64.8359 11.396 65.0999 10.79 65.4359 10.226C65.7839 9.65 66.1919 9.14 66.6599 8.696C67.1279 8.24 67.6199 7.886 68.1359 7.634C68.6639 7.37 69.2279 7.238 69.8279 7.238C70.4279 7.238 71.0159 7.394 71.5919 7.706C73.1519 8.546 74.4899 9.506 75.6059 10.586ZM81.3431 11.9V12.638C82.4111 11.642 83.3471 11.168 84.1511 11.216C84.5351 11.24 85.2071 11.72 86.1671 12.656C87.1391 13.58 87.6551 14.21 87.7151 14.546C87.7631 14.858 87.7871 16.85 87.7871 20.522L85.5551 20.018C85.6271 15.902 85.5971 13.724 85.4651 13.484C85.2491 13.076 84.8891 12.956 84.3851 13.124C83.8931 13.28 83.3771 13.568 82.8371 13.988C82.3091 14.408 81.8111 14.9 81.3431 15.464V20.522L79.0031 20.018V11.396L81.3431 11.9ZM91.5794 16.418L95.6654 13.628C94.8014 13.076 94.0634 12.872 93.4514 13.016C92.8514 13.16 92.3894 13.538 92.0654 14.15C91.7414 14.75 91.5794 15.506 91.5794 16.418ZM91.9934 18.146C92.3294 18.554 92.7074 18.806 93.1274 18.902C93.5474 18.998 93.9854 18.944 94.4414 18.74C94.9094 18.524 95.2994 18.314 95.6114 18.11C95.9234 17.894 96.2894 17.612 96.7094 17.264L97.0694 17.624C97.2974 17.876 97.5254 18.128 97.7534 18.38L98.1134 18.74C97.0694 19.508 96.1874 20.018 95.4674 20.27C94.7474 20.534 94.0334 20.534 93.3254 20.27C92.2934 19.874 91.3214 19.178 90.4094 18.182C89.8694 17.582 89.5574 16.874 89.4734 16.058C89.3894 15.23 89.4914 14.462 89.7794 13.754C90.0794 13.046 90.5354 12.446 91.1474 11.954C91.7714 11.45 92.4494 11.198 93.1814 11.198C93.6614 11.198 94.3694 11.51 95.3054 12.134C96.2534 12.746 97.0394 13.346 97.6634 13.934C97.6514 13.97 97.1714 14.342 96.2234 15.05C95.2874 15.746 94.3454 16.436 93.3974 17.12L91.9934 18.146Z" fill="#333333"/>
</svg>
