<svg width="150" height="30" viewBox="0 0 150 30" fill="none" xmlns="http://www.w3.org/2000/svg">
<rect width="150" height="30" fill="white"/>
<path d="M14.8867 11.625C15.5312 11.625 16.085 11.6982 16.5479 11.8447C17.0166 11.9912 17.4092 12.1816 17.7256 12.416C18.0479 12.6504 18.3057 12.917 18.499 13.2158C18.6924 13.5088 18.8389 13.8076 18.9385 14.1123C19.0439 14.417 19.1113 14.71 19.1406 14.9912C19.1758 15.2725 19.1934 15.5156 19.1934 15.7207C19.1934 15.8086 19.1846 15.917 19.167 16.0459C19.1553 16.1689 19.1055 16.2891 19.0176 16.4062C18.9297 16.5234 18.7891 16.623 18.5957 16.7051C18.4082 16.7871 18.1387 16.8281 17.7871 16.8281C17.6699 16.8281 17.5234 16.8223 17.3477 16.8105C17.1719 16.793 17.002 16.7549 16.8379 16.6963C16.6738 16.6318 16.5332 16.5439 16.416 16.4326C16.2988 16.3154 16.2402 16.1543 16.2402 15.9492C16.2402 15.6328 16.2197 15.3486 16.1787 15.0967C16.1436 14.8447 16.0762 14.6309 15.9766 14.4551C15.877 14.2793 15.7393 14.1445 15.5635 14.0508C15.3877 13.957 15.1621 13.9102 14.8867 13.9102C14.5996 13.9102 14.377 13.9717 14.2188 14.0947C14.0664 14.2119 13.9551 14.3408 13.8848 14.4814C13.8027 14.6514 13.7559 14.8418 13.7441 15.0527V20.625C13.7559 20.8828 13.8027 21.1084 13.8848 21.3018C13.9551 21.4717 14.0664 21.627 14.2188 21.7676C14.377 21.9082 14.5996 21.9785 14.8867 21.9785C15.1621 21.9785 15.3877 21.9229 15.5635 21.8115C15.7393 21.6943 15.877 21.5391 15.9766 21.3457C16.0762 21.1523 16.1436 20.9297 16.1787 20.6777C16.2197 20.4258 16.2402 20.1621 16.2402 19.8867C16.2402 19.7988 16.2549 19.708 16.2842 19.6143C16.3135 19.5205 16.3809 19.4355 16.4863 19.3594C16.5918 19.2773 16.7471 19.21 16.9521 19.1572C17.1572 19.1045 17.4355 19.0781 17.7871 19.0781C18.1387 19.0781 18.4082 19.1191 18.5957 19.2012C18.7891 19.2773 18.9297 19.3682 19.0176 19.4736C19.1055 19.5732 19.1553 19.6729 19.167 19.7725C19.1846 19.8662 19.1934 19.9277 19.1934 19.957C19.1934 20.6016 19.085 21.1787 18.8682 21.6885C18.6514 22.1924 18.3438 22.6201 17.9453 22.9717C17.5527 23.3232 17.0811 23.5928 16.5303 23.7803C15.9854 23.9619 15.3848 24.0527 14.7285 24.0527C14.623 24.0527 14.4502 24.0439 14.21 24.0264C13.9756 24.0088 13.7119 23.9619 13.4189 23.8857C13.126 23.8096 12.8242 23.6953 12.5137 23.543C12.2031 23.3906 11.9189 23.1797 11.6611 22.9102C11.4092 22.6348 11.2012 22.2949 11.0371 21.8906C10.873 21.4805 10.791 20.9824 10.791 20.3965V15.4922C10.791 15.0117 10.8496 14.5869 10.9668 14.2178C11.084 13.8486 11.2363 13.5293 11.4238 13.2598C11.6172 12.9844 11.8369 12.7559 12.083 12.5742C12.3291 12.3867 12.5811 12.2314 12.8389 12.1084C13.4365 11.8271 14.1191 11.666 14.8867 11.625ZM20.4414 18.5156C20.4414 17.9766 20.5146 17.5195 20.6611 17.1445C20.8076 16.7695 20.9951 16.4561 21.2236 16.2041C21.458 15.9521 21.7158 15.7559 21.9971 15.6152C22.2842 15.4746 22.5654 15.3691 22.8408 15.2988C23.1162 15.2285 23.3711 15.1846 23.6055 15.167C23.8457 15.1494 24.0332 15.1406 24.168 15.1406C24.3027 15.1406 24.4873 15.1494 24.7217 15.167C24.9561 15.1846 25.2051 15.2285 25.4688 15.2988C25.7383 15.3691 26.0078 15.4746 26.2773 15.6152C26.5527 15.7559 26.7988 15.9521 27.0156 16.2041C27.2383 16.4561 27.4199 16.7695 27.5605 17.1445C27.7012 17.5195 27.7715 17.9766 27.7715 18.5156V20.6953C27.7715 21.2344 27.7012 21.6914 27.5605 22.0664C27.4199 22.4414 27.2383 22.7549 27.0156 23.0068C26.7988 23.2588 26.5527 23.4551 26.2773 23.5957C26.0078 23.7363 25.7383 23.8418 25.4688 23.9121C25.2051 23.9824 24.9561 24.0264 24.7217 24.0439C24.4873 24.0615 24.3027 24.0703 24.168 24.0703C24.0332 24.0703 23.8457 24.0615 23.6055 24.0439C23.3711 24.0264 23.1162 23.9824 22.8408 23.9121C22.5654 23.8418 22.2842 23.7363 21.9971 23.5957C21.7158 23.4551 21.458 23.2588 21.2236 23.0068C20.9951 22.7549 20.8076 22.4414 20.6611 22.0664C20.5146 21.6914 20.4414 21.2344 20.4414 20.6953V18.5156ZM23.1484 21.3105C23.1543 21.4805 23.1953 21.6299 23.2715 21.7588C23.3359 21.876 23.4355 21.9814 23.5703 22.0752C23.7109 22.1631 23.9102 22.207 24.168 22.207C24.4141 22.207 24.6016 22.1631 24.7305 22.0752C24.8652 21.9814 24.9648 21.876 25.0293 21.7588C25.0996 21.6299 25.1406 21.4805 25.1523 21.3105V18.1289C25.1406 17.9531 25.0996 17.792 25.0293 17.6455C24.9648 17.5283 24.8652 17.4199 24.7305 17.3203C24.6016 17.2148 24.4141 17.1621 24.168 17.1621C23.9102 17.1621 23.7109 17.2148 23.5703 17.3203C23.4355 17.4199 23.3359 17.5283 23.2715 17.6455C23.1953 17.792 23.1543 17.9531 23.1484 18.1289V21.3105ZM36.9473 21.9961C36.9473 22.248 36.9326 22.4941 36.9033 22.7344C36.874 22.9746 36.8096 23.1885 36.71 23.376C36.6162 23.5635 36.4785 23.7158 36.2969 23.833C36.1211 23.9443 35.8809 24 35.5762 24C35.2773 24 35.04 23.9443 34.8643 23.833C34.6885 23.7158 34.5537 23.5635 34.46 23.376C34.3662 23.1885 34.3047 22.9746 34.2754 22.7344C34.252 22.4941 34.2402 22.248 34.2402 21.9961V18.5684C34.2402 18.4043 34.2314 18.2432 34.2139 18.085C34.2021 17.9268 34.1699 17.7891 34.1172 17.6719C34.0645 17.5488 33.9854 17.4521 33.8799 17.3818C33.7803 17.3057 33.6426 17.2676 33.4668 17.2676C33.2266 17.2676 33.0332 17.3467 32.8867 17.5049C32.7402 17.6631 32.623 17.8799 32.5352 18.1553C32.4531 18.4307 32.3975 18.7559 32.3682 19.1309C32.3389 19.5 32.3242 19.8984 32.3242 20.3262V21.9961C32.3242 22.248 32.3096 22.4941 32.2803 22.7344C32.251 22.9746 32.1865 23.1885 32.0869 23.376C31.9932 23.5635 31.8555 23.7158 31.6738 23.833C31.498 23.9443 31.2578 24 30.9531 24C30.6543 24 30.417 23.9443 30.2412 23.833C30.0654 23.7158 29.9307 23.5635 29.8369 23.376C29.7432 23.1885 29.6816 22.9746 29.6523 22.7344C29.6289 22.4941 29.6172 22.248 29.6172 21.9961V17.1973C29.6172 16.9453 29.626 16.7021 29.6436 16.4678C29.6611 16.2275 29.7139 16.0166 29.8018 15.835C29.8896 15.6475 30.0215 15.498 30.1973 15.3867C30.3789 15.2695 30.6309 15.2109 30.9531 15.2109C31.2754 15.2109 31.5273 15.2666 31.709 15.3779C31.8906 15.4834 32.0254 15.6123 32.1133 15.7646C32.207 15.917 32.2656 16.0781 32.2891 16.248C32.3125 16.418 32.3242 16.5645 32.3242 16.6875C32.3711 16.5176 32.4443 16.3447 32.5439 16.1689C32.6436 15.9932 32.7695 15.835 32.9219 15.6943C33.0801 15.5537 33.2676 15.4395 33.4844 15.3516C33.7012 15.2578 33.9531 15.2109 34.2402 15.2109C34.5625 15.2109 34.8848 15.2637 35.207 15.3691C35.5293 15.4746 35.8193 15.6504 36.0771 15.8965C36.335 16.1426 36.543 16.4648 36.7012 16.8633C36.8652 17.2617 36.9473 17.7539 36.9473 18.3398V21.9961ZM41.377 20.959C41.377 21.0527 41.3857 21.1729 41.4033 21.3193C41.4209 21.46 41.4619 21.6006 41.5264 21.7412C41.5908 21.876 41.6846 21.9932 41.8076 22.0928C41.9365 22.1924 42.1094 22.2422 42.3262 22.2422C42.584 22.2422 42.7861 22.2129 42.9326 22.1543C43.0791 22.0957 43.1875 22.0166 43.2578 21.917C43.3281 21.8115 43.3721 21.6914 43.3896 21.5566C43.4072 21.416 43.416 21.2695 43.416 21.1172C43.416 21.041 43.4277 20.9561 43.4512 20.8623C43.4805 20.7627 43.5449 20.6719 43.6445 20.5898C43.7441 20.502 43.8906 20.4316 44.084 20.3789C44.2832 20.3203 44.5527 20.291 44.8926 20.291C45.2031 20.291 45.4434 20.3262 45.6133 20.3965C45.7832 20.4668 45.9062 20.5518 45.9824 20.6514C46.0645 20.7451 46.1113 20.8447 46.123 20.9502C46.1348 21.0498 46.1406 21.1289 46.1406 21.1875C46.1406 21.5625 46.082 21.8936 45.9648 22.1807C45.8535 22.4619 45.7012 22.708 45.5078 22.9189C45.3145 23.124 45.0918 23.2969 44.8398 23.4375C44.5879 23.5781 44.3184 23.6895 44.0312 23.7715C43.75 23.8535 43.4629 23.9121 43.1699 23.9473C42.877 23.9824 42.5957 24 42.3262 24C41.8633 24 41.415 23.9385 40.9814 23.8154C40.5479 23.6924 40.1611 23.499 39.8213 23.2354C39.4873 22.9717 39.2178 22.6348 39.0127 22.2246C38.8076 21.8086 38.7051 21.3105 38.7051 20.7305V18.6738C38.7051 18.1172 38.7695 17.6455 38.8984 17.2588C39.0332 16.8721 39.2061 16.5498 39.417 16.292C39.6279 16.0342 39.8652 15.835 40.1289 15.6943C40.3926 15.5479 40.6592 15.4395 40.9287 15.3691C41.1982 15.2988 41.4531 15.2549 41.6934 15.2373C41.9395 15.2197 42.1504 15.2109 42.3262 15.2109C42.8477 15.2109 43.3018 15.2549 43.6885 15.3428C44.0811 15.4307 44.418 15.5479 44.6992 15.6943C44.9805 15.8408 45.2119 16.0107 45.3936 16.2041C45.5811 16.3916 45.7275 16.5908 45.833 16.8018C45.9385 17.0127 46.0117 17.2236 46.0527 17.4346C46.0996 17.6455 46.123 17.8418 46.123 18.0234C46.123 18.1172 46.1172 18.2285 46.1055 18.3574C46.0938 18.4805 46.0469 18.6006 45.9648 18.7178C45.8887 18.8291 45.7656 18.9258 45.5957 19.0078C45.4258 19.0898 45.1855 19.1309 44.875 19.1309C44.7637 19.1309 44.623 19.1279 44.4531 19.1221C44.2891 19.1104 44.1279 19.0781 43.9697 19.0254C43.8115 18.9727 43.6768 18.8906 43.5654 18.7793C43.4541 18.668 43.3984 18.5098 43.3984 18.3047C43.3984 18.1641 43.3896 18.0293 43.3721 17.9004C43.3604 17.7656 43.3193 17.6484 43.249 17.5488C43.1787 17.4492 43.0703 17.3701 42.9238 17.3115C42.7832 17.2471 42.584 17.2148 42.3262 17.2148C42.1094 17.2148 41.9365 17.25 41.8076 17.3203C41.6846 17.3906 41.5908 17.4785 41.5264 17.584C41.4619 17.6895 41.4209 17.8008 41.4033 17.918C41.3857 18.0352 41.377 18.1406 41.377 18.2344V20.959ZM54.9824 18.9902C54.9824 19.084 54.9766 19.1953 54.9648 19.3242C54.9531 19.4473 54.9062 19.5674 54.8242 19.6846C54.748 19.7959 54.625 19.8926 54.4551 19.9746C54.2852 20.0566 54.0449 20.0977 53.7344 20.0977H50.2363V20.9414C50.2363 21.082 50.2539 21.2285 50.2891 21.3809C50.3242 21.5332 50.3828 21.6738 50.4648 21.8027C50.5527 21.9316 50.667 22.0371 50.8076 22.1191C50.9482 22.2012 51.1211 22.2422 51.3262 22.2422C51.5605 22.2422 51.7393 22.2158 51.8623 22.1631C51.9912 22.1045 52.0908 22.0342 52.1611 21.9521C52.2373 21.8701 52.3047 21.7822 52.3633 21.6885C52.4219 21.5947 52.498 21.5068 52.5918 21.4248C52.6914 21.3428 52.8262 21.2754 52.9961 21.2227C53.1719 21.1641 53.4121 21.1348 53.7168 21.1348C53.8633 21.1348 54.0039 21.1465 54.1387 21.1699C54.2793 21.1934 54.4023 21.2373 54.5078 21.3018C54.6133 21.3662 54.6982 21.457 54.7627 21.5742C54.8271 21.6855 54.8594 21.832 54.8594 22.0137C54.8594 22.3945 54.7393 22.7139 54.499 22.9717C54.2588 23.2236 53.957 23.4258 53.5938 23.5781C53.2305 23.7305 52.835 23.8389 52.4072 23.9033C51.9854 23.9678 51.5898 24 51.2207 24C50.7344 23.9941 50.2715 23.9326 49.832 23.8154C49.3926 23.6982 49.0029 23.5107 48.6631 23.2529C48.3291 22.9951 48.0625 22.6582 47.8633 22.2422C47.6641 21.8262 47.5645 21.3164 47.5645 20.7129V18.6562C47.5645 18.0996 47.6289 17.6279 47.7578 17.2412C47.8926 16.8545 48.0654 16.5322 48.2764 16.2744C48.4873 16.0166 48.7246 15.8174 48.9883 15.6768C49.252 15.5303 49.5186 15.4219 49.7881 15.3516C50.0576 15.2812 50.3125 15.2373 50.5527 15.2197C50.7988 15.2021 51.0098 15.1934 51.1855 15.1934C51.7773 15.1934 52.2812 15.2461 52.6973 15.3516C53.1191 15.457 53.4707 15.5947 53.752 15.7646C54.0332 15.9346 54.2559 16.1309 54.4199 16.3535C54.584 16.5762 54.707 16.8076 54.7891 17.0479C54.8711 17.2822 54.9238 17.5225 54.9473 17.7686C54.9707 18.0088 54.9824 18.2344 54.9824 18.4453V18.9902ZM50.2363 18.7793H52.4336C52.4336 18.5039 52.4248 18.2607 52.4072 18.0498C52.3955 17.833 52.3516 17.6514 52.2754 17.5049C52.2051 17.3584 52.0908 17.2471 51.9326 17.1709C51.7803 17.0947 51.5605 17.0566 51.2734 17.0566C51.0332 17.0566 50.8428 17.0947 50.7021 17.1709C50.5674 17.2471 50.4648 17.3438 50.3945 17.4609C50.3242 17.5723 50.2803 17.6924 50.2627 17.8213C50.2451 17.9502 50.2363 18.0645 50.2363 18.1641V18.7793ZM62.4883 16.5293C62.4883 16.9863 62.374 17.3203 62.1455 17.5312C61.9229 17.7422 61.6035 17.8477 61.1875 17.8477C61.1289 17.8477 61.0439 17.8535 60.9326 17.8652C60.8271 17.8711 60.7129 17.8945 60.5898 17.9355C60.4668 17.9707 60.3408 18.0264 60.2119 18.1025C60.0889 18.1729 59.9746 18.2725 59.8691 18.4014C59.7637 18.5244 59.6787 18.6826 59.6143 18.876C59.5498 19.0693 59.5176 19.3008 59.5176 19.5703V22.084C59.5176 22.3242 59.5029 22.5586 59.4736 22.7871C59.4502 23.0156 59.3916 23.2207 59.2979 23.4023C59.2041 23.5781 59.0693 23.7217 58.8936 23.833C58.7178 23.9443 58.4805 24 58.1816 24C57.8887 24 57.6572 23.9443 57.4873 23.833C57.3174 23.7217 57.1855 23.5781 57.0918 23.4023C57.0039 23.2207 56.9453 23.0156 56.916 22.7871C56.8926 22.5586 56.8809 22.3242 56.8809 22.084V17.1621C56.8809 16.916 56.8926 16.6787 56.916 16.4502C56.9453 16.2158 57.0039 16.0078 57.0918 15.8262C57.1855 15.6445 57.3174 15.501 57.4873 15.3955C57.6572 15.2842 57.8887 15.2285 58.1816 15.2285C58.4805 15.2285 58.709 15.2959 58.8672 15.4307C59.0312 15.5596 59.1514 15.7295 59.2275 15.9404C59.3037 16.1455 59.3477 16.377 59.3594 16.6348C59.3711 16.8867 59.377 17.1328 59.377 17.373H59.5176C59.5996 17.0449 59.708 16.749 59.8428 16.4854C59.9775 16.2158 60.127 15.9902 60.291 15.8086C60.4551 15.6211 60.6309 15.4775 60.8184 15.3779C61.0059 15.2783 61.1934 15.2285 61.3809 15.2285C61.6094 15.2285 61.7939 15.2549 61.9346 15.3076C62.0811 15.3545 62.1953 15.4307 62.2773 15.5361C62.3594 15.6416 62.415 15.7764 62.4443 15.9404C62.4736 16.1045 62.4883 16.3008 62.4883 16.5293ZM64.9492 15.2109V13.6641C64.9492 13.418 64.9609 13.1777 64.9844 12.9434C65.0137 12.709 65.0752 12.501 65.1689 12.3193C65.2627 12.1318 65.3975 11.9824 65.5732 11.8711C65.749 11.7539 65.9863 11.6953 66.2852 11.6953C66.5781 11.6953 66.8125 11.7539 66.9883 11.8711C67.1641 11.9824 67.2959 12.1318 67.3838 12.3193C67.4775 12.501 67.5361 12.709 67.5596 12.9434C67.5889 13.1777 67.6035 13.418 67.6035 13.6641V15.2109H68.3242C68.4766 15.2109 68.6289 15.2197 68.7812 15.2373C68.9336 15.249 69.0684 15.29 69.1855 15.3604C69.3086 15.4307 69.4053 15.5361 69.4756 15.6768C69.5518 15.8174 69.5898 16.0137 69.5898 16.2656C69.5898 16.5059 69.5518 16.6963 69.4756 16.8369C69.4053 16.9775 69.3086 17.083 69.1855 17.1533C69.0684 17.2236 68.9336 17.2705 68.7812 17.2939C68.6289 17.3115 68.4766 17.3203 68.3242 17.3203H67.6035V20.3965C67.6035 20.5137 67.6064 20.6396 67.6123 20.7744C67.624 20.9033 67.6562 21.0234 67.709 21.1348C67.7617 21.2461 67.8408 21.3398 67.9463 21.416C68.0518 21.4863 68.2012 21.5215 68.3945 21.5215C68.6055 21.5215 68.7842 21.5391 68.9307 21.5742C69.083 21.6035 69.2061 21.6592 69.2998 21.7412C69.3994 21.8232 69.4727 21.9375 69.5195 22.084C69.5664 22.2305 69.5898 22.418 69.5898 22.6465C69.5898 22.8809 69.5342 23.083 69.4229 23.2529C69.3174 23.4229 69.1738 23.5635 68.9922 23.6748C68.8105 23.7861 68.5996 23.8682 68.3594 23.9209C68.1191 23.9736 67.8672 24 67.6035 24C67.1875 24 66.8301 23.9561 66.5312 23.8682C66.2383 23.7803 65.9922 23.6572 65.793 23.499C65.5996 23.335 65.4443 23.1416 65.3271 22.9189C65.2158 22.6904 65.1309 22.4355 65.0723 22.1543C65.0195 21.873 64.9844 21.5713 64.9668 21.249C64.9551 20.9209 64.9492 20.5781 64.9492 20.2207V17.3203H64.457C64.3047 17.3203 64.1523 17.3115 64 17.2939C63.8535 17.2705 63.7217 17.2236 63.6045 17.1533C63.4873 17.083 63.3906 16.9775 63.3145 16.8369C63.2441 16.6963 63.209 16.5059 63.209 16.2656C63.209 16.0137 63.2441 15.8174 63.3145 15.6768C63.3906 15.5361 63.4873 15.4307 63.6045 15.3604C63.7217 15.29 63.8535 15.249 64 15.2373C64.1523 15.2197 64.3047 15.2109 64.457 15.2109H64.9492ZM78.2559 15.1758C78.2559 14.6133 78.3379 14.1357 78.502 13.7432C78.666 13.3447 78.874 13.0137 79.126 12.75C79.3838 12.4863 79.665 12.2812 79.9697 12.1348C80.2803 11.9824 80.5791 11.8682 80.8662 11.792C81.1592 11.7158 81.4229 11.6689 81.6572 11.6514C81.8916 11.6338 82.0645 11.625 82.1758 11.625H82.4746C82.5859 11.625 82.7588 11.6338 82.9932 11.6514C83.2275 11.6689 83.4883 11.7158 83.7754 11.792C84.0625 11.8682 84.3584 11.9824 84.6631 12.1348C84.9736 12.2812 85.252 12.4863 85.498 12.75C85.75 13.0137 85.9551 13.3447 86.1133 13.7432C86.2773 14.1357 86.3594 14.6133 86.3594 15.1758V20.4316C86.3594 21.0117 86.2773 21.5039 86.1133 21.9082C85.9551 22.3125 85.75 22.6494 85.498 22.9189C85.252 23.1885 84.9736 23.4023 84.6631 23.5605C84.3584 23.7129 84.0625 23.8271 83.7754 23.9033C83.4883 23.9795 83.2275 24.0264 82.9932 24.0439C82.7588 24.0615 82.5859 24.0703 82.4746 24.0703H82.1758C82.0645 24.0703 81.8916 24.0615 81.6572 24.0439C81.4229 24.0264 81.1592 23.9795 80.8662 23.9033C80.5791 23.8271 80.2803 23.7129 79.9697 23.5605C79.665 23.4023 79.3838 23.1885 79.126 22.9189C78.874 22.6494 78.666 22.3125 78.502 21.9082C78.3379 21.5039 78.2559 21.0117 78.2559 20.4316V15.1758ZM81.1738 20.7656C81.1855 20.9824 81.2354 21.1729 81.3232 21.3369C81.3994 21.4834 81.5137 21.6152 81.666 21.7324C81.8242 21.8496 82.0469 21.9082 82.334 21.9082C82.6152 21.9082 82.832 21.8496 82.9844 21.7324C83.1367 21.6152 83.251 21.4834 83.3271 21.3369C83.4092 21.1729 83.459 20.9824 83.4766 20.7656V15.0352C83.459 14.8242 83.4092 14.6338 83.3271 14.4639C83.251 14.3232 83.1367 14.1943 82.9844 14.0771C82.832 13.9541 82.6152 13.8926 82.334 13.8926C82.0469 13.8926 81.8242 13.9541 81.666 14.0771C81.5137 14.1943 81.3994 14.3232 81.3232 14.4639C81.2354 14.6338 81.1855 14.8242 81.1738 15.0352V20.7656ZM95.7461 21.9961C95.7461 22.248 95.7314 22.4941 95.7021 22.7344C95.6729 22.9746 95.6084 23.1885 95.5088 23.376C95.415 23.5635 95.2773 23.7158 95.0957 23.833C94.9199 23.9443 94.6797 24 94.375 24C94.0762 24 93.8389 23.9443 93.6631 23.833C93.4873 23.7158 93.3525 23.5635 93.2588 23.376C93.165 23.1885 93.1035 22.9746 93.0742 22.7344C93.0508 22.4941 93.0391 22.248 93.0391 21.9961V18.5684C93.0391 18.4043 93.0303 18.2432 93.0127 18.085C93.001 17.9268 92.9688 17.7891 92.916 17.6719C92.8633 17.5488 92.7842 17.4521 92.6787 17.3818C92.5791 17.3057 92.4414 17.2676 92.2656 17.2676C92.0254 17.2676 91.832 17.3467 91.6855 17.5049C91.5391 17.6631 91.4219 17.8799 91.334 18.1553C91.252 18.4307 91.1963 18.7559 91.167 19.1309C91.1377 19.5 91.123 19.8984 91.123 20.3262V21.9961C91.123 22.248 91.1084 22.4941 91.0791 22.7344C91.0498 22.9746 90.9854 23.1885 90.8857 23.376C90.792 23.5635 90.6543 23.7158 90.4727 23.833C90.2969 23.9443 90.0566 24 89.752 24C89.4531 24 89.2158 23.9443 89.04 23.833C88.8643 23.7158 88.7295 23.5635 88.6357 23.376C88.542 23.1885 88.4805 22.9746 88.4512 22.7344C88.4277 22.4941 88.416 22.248 88.416 21.9961V17.1973C88.416 16.9453 88.4248 16.7021 88.4424 16.4678C88.46 16.2275 88.5127 16.0166 88.6006 15.835C88.6885 15.6475 88.8203 15.498 88.9961 15.3867C89.1777 15.2695 89.4297 15.2109 89.752 15.2109C90.0742 15.2109 90.3262 15.2666 90.5078 15.3779C90.6895 15.4834 90.8242 15.6123 90.9121 15.7646C91.0059 15.917 91.0645 16.0781 91.0879 16.248C91.1113 16.418 91.123 16.5645 91.123 16.6875C91.1699 16.5176 91.2432 16.3447 91.3428 16.1689C91.4424 15.9932 91.5684 15.835 91.7207 15.6943C91.8789 15.5537 92.0664 15.4395 92.2832 15.3516C92.5 15.2578 92.752 15.2109 93.0391 15.2109C93.3613 15.2109 93.6836 15.2637 94.0059 15.3691C94.3281 15.4746 94.6182 15.6504 94.876 15.8965C95.1338 16.1426 95.3418 16.4648 95.5 16.8633C95.6641 17.2617 95.7461 17.7539 95.7461 18.3398V21.9961ZM104.992 18.9902C104.992 19.084 104.986 19.1953 104.975 19.3242C104.963 19.4473 104.916 19.5674 104.834 19.6846C104.758 19.7959 104.635 19.8926 104.465 19.9746C104.295 20.0566 104.055 20.0977 103.744 20.0977H100.246V20.9414C100.246 21.082 100.264 21.2285 100.299 21.3809C100.334 21.5332 100.393 21.6738 100.475 21.8027C100.562 21.9316 100.677 22.0371 100.817 22.1191C100.958 22.2012 101.131 22.2422 101.336 22.2422C101.57 22.2422 101.749 22.2158 101.872 22.1631C102.001 22.1045 102.101 22.0342 102.171 21.9521C102.247 21.8701 102.314 21.7822 102.373 21.6885C102.432 21.5947 102.508 21.5068 102.602 21.4248C102.701 21.3428 102.836 21.2754 103.006 21.2227C103.182 21.1641 103.422 21.1348 103.727 21.1348C103.873 21.1348 104.014 21.1465 104.148 21.1699C104.289 21.1934 104.412 21.2373 104.518 21.3018C104.623 21.3662 104.708 21.457 104.772 21.5742C104.837 21.6855 104.869 21.832 104.869 22.0137C104.869 22.3945 104.749 22.7139 104.509 22.9717C104.269 23.2236 103.967 23.4258 103.604 23.5781C103.24 23.7305 102.845 23.8389 102.417 23.9033C101.995 23.9678 101.6 24 101.23 24C100.744 23.9941 100.281 23.9326 99.8418 23.8154C99.4023 23.6982 99.0127 23.5107 98.6729 23.2529C98.3389 22.9951 98.0723 22.6582 97.873 22.2422C97.6738 21.8262 97.5742 21.3164 97.5742 20.7129V18.6562C97.5742 18.0996 97.6387 17.6279 97.7676 17.2412C97.9023 16.8545 98.0752 16.5322 98.2861 16.2744C98.4971 16.0166 98.7344 15.8174 98.998 15.6768C99.2617 15.5303 99.5283 15.4219 99.7979 15.3516C100.067 15.2812 100.322 15.2373 100.562 15.2197C100.809 15.2021 101.02 15.1934 101.195 15.1934C101.787 15.1934 102.291 15.2461 102.707 15.3516C103.129 15.457 103.48 15.5947 103.762 15.7646C104.043 15.9346 104.266 16.1309 104.43 16.3535C104.594 16.5762 104.717 16.8076 104.799 17.0479C104.881 17.2822 104.934 17.5225 104.957 17.7686C104.98 18.0088 104.992 18.2344 104.992 18.4453V18.9902ZM100.246 18.7793H102.443C102.443 18.5039 102.435 18.2607 102.417 18.0498C102.405 17.833 102.361 17.6514 102.285 17.5049C102.215 17.3584 102.101 17.2471 101.942 17.1709C101.79 17.0947 101.57 17.0566 101.283 17.0566C101.043 17.0566 100.853 17.0947 100.712 17.1709C100.577 17.2471 100.475 17.3438 100.404 17.4609C100.334 17.5723 100.29 17.6924 100.272 17.8213C100.255 17.9502 100.246 18.0645 100.246 18.1641V18.7793Z" fill="#333333"/>
</svg>
