<svg width="150" height="30" viewBox="0 0 150 30" fill="none" xmlns="http://www.w3.org/2000/svg">
<path d="M19.936 14.61C21.772 15.042 22.69 16.05 22.69 17.634C22.69 18.714 22.282 19.548 21.466 20.136C20.65 20.712 19.486 21 17.974 21H10.648V19.506H12.97V10.146H10.648V8.652H17.686C18.994 8.652 20.002 8.946 20.71 9.534C21.43 10.122 21.79 10.896 21.79 11.856C21.79 12.504 21.622 13.062 21.286 13.53C20.962 13.986 20.512 14.346 19.936 14.61ZM14.806 10.146V14.088H17.236C18.076 14.088 18.73 13.926 19.198 13.602C19.678 13.266 19.918 12.756 19.918 12.072C19.918 11.412 19.696 10.926 19.252 10.614C18.808 10.302 18.244 10.146 17.56 10.146H14.806ZM17.794 19.506C19.81 19.506 20.818 18.834 20.818 17.49C20.818 16.794 20.548 16.284 20.008 15.96C19.48 15.636 18.736 15.468 17.776 15.456H14.806V19.506H17.794ZM26.7195 10.596C26.3355 10.596 26.0115 10.494 25.7475 10.29C25.4835 10.086 25.3515 9.828 25.3515 9.516C25.3515 9.192 25.4835 8.928 25.7475 8.724C26.0115 8.508 26.3355 8.4 26.7195 8.4C27.1275 8.4 27.4635 8.508 27.7275 8.724C27.9915 8.928 28.1235 9.192 28.1235 9.516C28.1235 9.828 27.9915 10.086 27.7275 10.29C27.4635 10.494 27.1275 10.596 26.7195 10.596ZM29.7255 19.578V21H24.1275V19.578H26.0355V13.944H24.1275V12.522H27.7995V19.578H29.7255ZM35.334 21.252C34.506 21.252 33.732 21.066 33.012 20.694C32.292 20.322 31.716 19.794 31.284 19.11C30.864 18.426 30.654 17.646 30.654 16.77C30.654 15.882 30.864 15.102 31.284 14.43C31.716 13.746 32.292 13.218 33.012 12.846C33.732 12.474 34.506 12.288 35.334 12.288C36.15 12.288 36.912 12.474 37.62 12.846C38.34 13.218 38.916 13.746 39.348 14.43C39.78 15.114 39.996 15.894 39.996 16.77C39.996 17.646 39.786 18.426 39.366 19.11C38.946 19.794 38.376 20.322 37.656 20.694C36.948 21.066 36.174 21.252 35.334 21.252ZM35.334 19.83C35.874 19.83 36.36 19.704 36.792 19.452C37.224 19.2 37.56 18.846 37.8 18.39C38.052 17.922 38.178 17.382 38.178 16.77C38.178 16.158 38.052 15.624 37.8 15.168C37.56 14.7 37.224 14.34 36.792 14.088C36.36 13.836 35.874 13.71 35.334 13.71C34.506 13.71 33.822 13.992 33.282 14.556C32.754 15.108 32.49 15.846 32.49 16.77C32.49 17.694 32.754 18.438 33.282 19.002C33.822 19.554 34.506 19.83 35.334 19.83ZM55.063 19.956C54.307 20.82 53.431 21.252 52.435 21.252C51.391 21.252 50.509 20.874 49.789 20.118C49.081 19.362 48.505 18.198 48.061 16.626L47.773 15.726H45.199V19.506H47.467V21H41.023V19.524H43.345V10.146H41.023V8.652H48.187C49.591 8.652 50.701 8.97 51.517 9.606C52.333 10.242 52.741 11.106 52.741 12.198C52.741 13.098 52.447 13.86 51.859 14.484C51.283 15.096 50.467 15.48 49.411 15.636L49.735 16.518C50.107 17.574 50.521 18.342 50.977 18.822C51.433 19.302 51.949 19.542 52.525 19.542C52.885 19.542 53.191 19.47 53.443 19.326C53.695 19.182 53.929 18.99 54.145 18.75L55.063 19.956ZM45.199 14.322H48.241C49.009 14.322 49.645 14.136 50.149 13.764C50.653 13.38 50.905 12.858 50.905 12.198C50.905 11.562 50.653 11.064 50.149 10.704C49.657 10.332 49.021 10.146 48.241 10.146H45.199V14.322ZM67.3736 19.578V21H62.3696V19.578H63.9356V16.068C63.9356 15.372 63.7676 14.832 63.4316 14.448C63.1076 14.064 62.6336 13.872 62.0096 13.872C61.0376 13.872 59.9576 14.532 58.7696 15.852V19.578H60.3176V21H55.0976V19.578H57.0056V10.074H55.0976V8.652H58.7696V14.466C59.4296 13.746 60.0656 13.206 60.6776 12.846C61.3016 12.486 61.9796 12.306 62.7116 12.306C63.6836 12.306 64.4216 12.618 64.9256 13.242C65.4296 13.854 65.6816 14.778 65.6816 16.014V19.578H67.3736ZM78.7033 13.944H77.3713L73.8073 21.936C73.3033 23.052 72.7333 23.886 72.0973 24.438C71.4733 25.002 70.7413 25.284 69.9013 25.284C69.4333 25.284 69.0073 25.206 68.6233 25.05C68.2513 24.906 67.8433 24.69 67.3993 24.402L68.1193 23.052C68.7313 23.496 69.3253 23.718 69.9013 23.718C70.4173 23.718 70.8793 23.55 71.2873 23.214C71.6953 22.89 72.0553 22.368 72.3673 21.648L72.4933 21.36L68.8573 13.944H67.4533V12.522H72.2053V13.818H70.7473L73.3033 19.506L75.8053 13.818H74.4193V12.522H78.7033V13.944ZM97.6987 19.578V21H92.7307V19.578H94.2607V15.96C94.2607 15.336 94.1227 14.844 93.8467 14.484C93.5707 14.124 93.1567 13.944 92.6047 13.944C92.1127 13.944 91.6087 14.106 91.0927 14.43C90.5767 14.754 90.0727 15.216 89.5807 15.816V15.906V19.578H91.1287V21H86.2687V19.578H87.8167V15.96C87.8167 15.336 87.6727 14.844 87.3847 14.484C87.0967 14.124 86.6767 13.944 86.1247 13.944C85.6327 13.944 85.1287 14.112 84.6127 14.448C84.0967 14.772 83.5867 15.24 83.0827 15.852V19.578H84.6487V21H79.4107V19.578H81.3187V13.944H79.4107V12.522H83.0827V14.376C83.6107 13.716 84.1867 13.206 84.8107 12.846C85.4347 12.486 86.0827 12.306 86.7547 12.306C87.4387 12.306 88.0087 12.498 88.4647 12.882C88.9327 13.254 89.2567 13.806 89.4367 14.538C89.9767 13.83 90.5647 13.284 91.2007 12.9C91.8487 12.504 92.5207 12.306 93.2167 12.306C94.0927 12.306 94.7767 12.618 95.2687 13.242C95.7727 13.854 96.0247 14.742 96.0247 15.906V19.578H97.6987ZM107.233 19.74C106.081 20.748 104.767 21.252 103.291 21.252C102.487 21.252 101.725 21.084 101.005 20.748C100.285 20.412 99.7035 19.92 99.2595 19.272C98.8155 18.624 98.5935 17.856 98.5935 16.968C98.5935 16.02 98.8215 15.192 99.2775 14.484C99.7335 13.776 100.327 13.236 101.059 12.864C101.791 12.48 102.559 12.288 103.363 12.288C104.071 12.288 104.701 12.402 105.253 12.63C105.817 12.858 106.255 13.176 106.567 13.584C106.891 13.992 107.053 14.46 107.053 14.988C107.053 15.78 106.711 16.398 106.027 16.842C105.355 17.274 104.545 17.49 103.597 17.49C102.985 17.49 102.415 17.43 101.887 17.31C101.359 17.178 100.825 16.992 100.285 16.752V16.914C100.285 17.478 100.417 17.976 100.681 18.408C100.957 18.84 101.323 19.17 101.779 19.398C102.235 19.626 102.733 19.74 103.273 19.74C104.497 19.74 105.565 19.356 106.477 18.588L107.233 19.74ZM103.489 13.692C102.841 13.692 102.235 13.878 101.671 14.25C101.119 14.622 100.723 15.126 100.483 15.762C101.395 16.086 102.307 16.248 103.219 16.248C103.819 16.248 104.311 16.14 104.695 15.924C105.091 15.696 105.289 15.384 105.289 14.988C105.289 14.604 105.121 14.292 104.785 14.052C104.449 13.812 104.017 13.692 103.489 13.692Z" fill="#333333"/>
</svg>
