<svg width="150" height="30" viewBox="0 0 150 30" fill="none" xmlns="http://www.w3.org/2000/svg">
<rect width="150" height="30" fill="white"/>
<path d="M19.7031 12.1387C19.3281 12.1387 19.0469 11.9189 18.8594 11.4795C18.6953 11.1045 18.543 10.876 18.4023 10.7939C18.2793 10.7295 17.9746 10.6973 17.4883 10.6973C16.6387 10.6973 15.6953 11.3477 14.6582 12.6484C13.252 14.3945 12.5488 16.0498 12.5488 17.6143C12.5488 18.3701 12.792 19.0205 13.2783 19.5654C13.7764 20.1279 14.377 20.4092 15.0801 20.4092C15.6836 20.4092 16.29 20.2539 16.8994 19.9434C17.2393 19.7676 17.7607 19.4219 18.4639 18.9062C18.7979 18.6602 19.0498 18.5371 19.2197 18.5371C19.4717 18.5371 19.6826 18.6338 19.8525 18.8271C20.0225 19.0146 20.1074 19.2256 20.1074 19.46C20.1074 19.7236 19.9961 19.9551 19.7734 20.1543C18.2266 21.5254 16.6621 22.2109 15.0801 22.2109C13.8672 22.2109 12.8418 21.7451 12.0039 20.8135C11.1953 19.9111 10.791 18.8447 10.791 17.6143C10.791 15.6279 11.623 13.5918 13.2871 11.5059C14.6758 9.76562 16.0762 8.89551 17.4883 8.89551C17.7754 8.89551 18.0332 8.91016 18.2617 8.93945C18.4902 8.96289 18.6924 9.00391 18.8682 9.0625C19.0732 8.76367 19.3398 8.61426 19.668 8.61426C20.0723 8.61426 20.3271 8.88086 20.4326 9.41406C20.5264 9.88867 20.5732 10.4717 20.5732 11.1631C20.5732 11.4033 20.5088 11.6143 20.3799 11.7959C20.2217 12.0244 19.9961 12.1387 19.7031 12.1387ZM25.3633 22.5186C24.3789 22.5186 23.5322 22.1553 22.8232 21.4287C22.0322 20.6201 21.6162 19.5332 21.5752 18.168C21.54 16.8438 21.874 15.6777 22.5771 14.6699C23.3975 13.4805 24.54 12.8857 26.0049 12.8857C27.1768 12.8857 28.0645 13.4219 28.668 14.4941C29.1484 15.3613 29.3799 16.4043 29.3623 17.623C29.3447 18.9238 29.0049 20.0342 28.3428 20.9541C27.5928 21.9971 26.5996 22.5186 25.3633 22.5186ZM25.8906 14.6699C25.0293 14.6641 24.3584 15.0742 23.8779 15.9004C23.4971 16.5625 23.3066 17.3184 23.3066 18.168C23.3066 19.0176 23.5381 19.6797 24.001 20.1543C24.3877 20.5469 24.8418 20.7432 25.3633 20.7432C25.9727 20.7432 26.4971 20.5205 26.9365 20.0752C27.4346 19.583 27.6982 18.918 27.7275 18.0801C27.8096 15.8125 27.1973 14.6758 25.8906 14.6699ZM42.7041 22.7295C42.2236 22.7295 41.9424 22.4746 41.8604 21.9648C41.7549 21.3203 41.6494 20.4121 41.5439 19.2402L41.2451 16.5156C41.1865 16.1113 41.0869 15.7158 40.9463 15.3291C40.7471 14.8018 40.5303 14.5381 40.2959 14.5381C40.0791 14.5381 39.6748 14.7227 39.083 15.0918C38.5205 15.4316 38.1514 15.7041 37.9756 15.9092C37.9697 16.46 37.9844 17.0107 38.0195 17.5615L38.2832 19.9082C38.3945 20.834 38.4502 21.5986 38.4502 22.2021C38.4502 22.46 38.3682 22.6709 38.2041 22.835C38.0459 23.0049 37.8408 23.0898 37.5889 23.0898C37.3369 23.0898 37.1289 23.0049 36.9648 22.835C36.8066 22.6709 36.7275 22.46 36.7275 22.2021C36.7275 21.4932 36.6543 20.4473 36.5078 19.0645C36.3672 17.6758 36.2969 16.627 36.2969 15.918C36.2969 15.2969 36.209 14.8135 36.0332 14.4678C35.623 14.6553 35.207 14.96 34.7852 15.3818L33.748 16.542C33.6543 16.6826 33.5049 16.8672 33.2998 17.0957C33.2998 17.4473 33.2676 17.9658 33.2031 18.6514C33.1387 19.3369 33.1064 19.8438 33.1064 20.1719C33.1064 20.3477 33.1328 20.5938 33.1855 20.9102C33.2441 21.2266 33.2734 21.4551 33.2734 21.5957C33.2734 21.8359 33.1826 22.0381 33.001 22.2021C32.8252 22.3662 32.6172 22.4482 32.377 22.4482C31.7148 22.4482 31.3838 21.6953 31.3838 20.1895C31.3838 19.8379 31.416 19.3135 31.4805 18.6162C31.5449 17.9189 31.5771 17.3945 31.5771 17.043C31.5771 16.7324 31.5479 16.2666 31.4893 15.6455C31.4365 15.0244 31.4102 14.5557 31.4102 14.2393C31.4102 12.9092 31.709 12.2441 32.3066 12.2441C32.5352 12.2441 32.7432 12.3438 32.9307 12.543C33.124 12.7422 33.2207 12.959 33.2207 13.1934C33.2207 13.3047 33.2061 13.4775 33.1768 13.7119C33.1475 13.9463 33.1328 14.125 33.1328 14.248L33.1504 15.1709C33.4551 14.5439 33.9033 13.9785 34.4951 13.4746C35.0869 12.9648 35.5908 12.71 36.0068 12.71C36.9268 12.71 37.5596 13.167 37.9053 14.0811C38.2275 13.6533 38.6113 13.334 39.0566 13.123C39.502 12.9062 40.0117 12.7979 40.5859 12.7979C41.5645 12.7979 42.2324 13.3252 42.5898 14.3799C42.6602 14.5908 42.7803 15.4141 42.9502 16.8496C43.1143 17.8574 43.3252 19.5361 43.583 21.8857C43.6006 22.1201 43.5215 22.3193 43.3457 22.4834C43.1699 22.6475 42.9561 22.7295 42.7041 22.7295ZM47.2129 10.873C46.9316 10.873 46.6885 10.7734 46.4834 10.5742C46.2783 10.375 46.1758 10.1348 46.1758 9.85352C46.1758 9.57227 46.2783 9.33203 46.4834 9.13281C46.6885 8.93359 46.9316 8.83398 47.2129 8.83398C47.4941 8.83398 47.7344 8.93359 47.9336 9.13281C48.1387 9.33203 48.2412 9.57227 48.2412 9.85352C48.2412 10.1348 48.1387 10.375 47.9336 10.5742C47.7344 10.7734 47.4941 10.873 47.2129 10.873ZM47.6084 18.0098C47.6084 18.3613 47.6172 18.8887 47.6348 19.5918C47.6582 20.2891 47.6699 20.8135 47.6699 21.165C47.6699 21.4229 47.5908 21.6338 47.4326 21.7979C47.2744 21.9619 47.0664 22.0439 46.8086 22.0439C46.5566 22.0439 46.3486 21.9619 46.1846 21.7979C46.0264 21.6338 45.9473 21.4229 45.9473 21.165C45.9473 20.8135 45.9355 20.2891 45.9121 19.5918C45.8945 18.8887 45.8857 18.3613 45.8857 18.0098C45.8857 17.459 45.915 16.7734 45.9736 15.9531C46.0322 15.127 46.0615 14.4385 46.0615 13.8877C46.0615 13.624 46.1406 13.4102 46.2988 13.2461C46.4629 13.082 46.6709 13 46.9229 13C47.1748 13 47.3799 13.082 47.5381 13.2461C47.7021 13.4102 47.7842 13.624 47.7842 13.8877C47.7842 14.4385 47.7549 15.127 47.6963 15.9531C47.6377 16.7734 47.6084 17.459 47.6084 18.0098ZM54.5518 22.5537C53.3506 22.5537 52.3486 22.1904 51.5459 21.4639C50.7021 20.7021 50.2803 19.6973 50.2803 18.4492C50.2803 17.2598 50.6758 16.0322 51.4668 14.7666C52.3457 13.3604 53.3359 12.6572 54.4375 12.6572C55.0117 12.6572 55.6533 12.792 56.3623 13.0615C57.2588 13.4072 57.707 13.8291 57.707 14.3271C57.707 14.5498 57.6338 14.749 57.4873 14.9248C57.3408 15.0947 57.1592 15.1797 56.9424 15.1797C56.7725 15.1797 56.623 15.1299 56.4941 15.0303C56.3711 14.9248 56.251 14.8223 56.1338 14.7227C55.7881 14.4473 55.2227 14.3096 54.4375 14.3096C53.8398 14.3096 53.248 14.8428 52.6621 15.9092C52.1289 16.8877 51.8623 17.7344 51.8623 18.4492C51.8623 19.2227 52.126 19.832 52.6533 20.2773C53.1455 20.6934 53.7783 20.9014 54.5518 20.9014C54.9033 20.9014 55.2783 20.8076 55.6768 20.6201L56.6963 20.0752C56.8721 19.9814 56.998 19.9346 57.0742 19.9346C57.291 19.9346 57.4785 20.0225 57.6367 20.1982C57.7949 20.3682 57.874 20.5645 57.874 20.7871C57.874 21.2148 57.4229 21.6279 56.5205 22.0264C55.7295 22.3779 55.0732 22.5537 54.5518 22.5537ZM71.1367 15.2324C70.8145 15.2324 70.5889 15.124 70.46 14.9072C70.3721 14.7549 70.2959 14.4385 70.2314 13.958C69.792 14.0693 69.1152 14.2744 68.2012 14.5732C67.2578 14.9482 66.7832 15.4111 66.7773 15.9619C66.9531 16.0264 67.126 16.0732 67.2959 16.1025C68.6436 16.3428 69.6455 16.6738 70.3018 17.0957C71.2568 17.7109 71.7344 18.6016 71.7344 19.7676C71.7344 20.7227 71.3213 21.4434 70.4951 21.9297C69.8096 22.3281 68.9424 22.5273 67.8936 22.5273C67.126 22.5273 66.3936 22.3984 65.6963 22.1406C64.7939 21.8125 64.3428 21.3555 64.3428 20.7695C64.3428 20.5352 64.4336 20.3301 64.6152 20.1543C64.8027 19.9785 65.0137 19.8906 65.248 19.8906C65.4297 19.8906 65.6641 20.0312 65.9512 20.3125C66.0918 20.4473 66.4082 20.5586 66.9004 20.6465C67.293 20.7168 67.624 20.752 67.8936 20.752C68.3857 20.752 68.8193 20.6934 69.1943 20.5762C69.7393 20.4062 70.0117 20.1367 70.0117 19.7676C70.0117 18.9707 69.4551 18.4316 68.3418 18.1504L67.4277 17.9482C66.6484 17.7783 66.0947 17.5791 65.7666 17.3506C65.292 17.0225 65.0547 16.5273 65.0547 15.8652C65.0547 14.6406 65.6318 13.7676 66.7861 13.2461C67.1377 13.0879 67.7002 12.9004 68.4736 12.6836C69.2471 12.4609 69.8008 12.2734 70.1348 12.1211C70.375 12.0156 70.6357 11.9629 70.917 11.9629C71.1689 11.9629 71.374 12.0449 71.5322 12.209C71.6963 12.373 71.7783 12.5869 71.7783 12.8506C71.7783 13.0205 71.8135 13.2695 71.8838 13.5977C71.96 13.9258 71.998 14.1748 71.998 14.3447C71.998 14.6084 71.916 14.8223 71.752 14.9863C71.5938 15.1504 71.3887 15.2324 71.1367 15.2324ZM80.8398 22.5801C80.7285 22.5801 80.5264 22.4512 80.2334 22.1934C79.9697 21.9531 79.7734 21.7393 79.6445 21.5518C79.082 21.8564 78.5869 22.085 78.1592 22.2373C77.7314 22.3955 77.374 22.4746 77.0869 22.4746C75.7158 22.4746 74.7168 22.0879 74.0898 21.3145C73.498 20.5879 73.2021 19.4746 73.2021 17.9746C73.2021 16.5566 73.6885 15.3438 74.6611 14.3359C75.6396 13.3281 76.8057 12.8242 78.1592 12.8242C78.6689 12.8242 79.2402 12.9561 79.873 13.2197C80.6699 13.5479 81.0684 13.9434 81.0684 14.4062C81.0684 14.5645 81.0098 14.7051 80.8926 14.8281C80.834 15.0508 80.7871 15.417 80.752 15.9268C80.7227 16.4365 80.7051 17.0898 80.6992 17.8867C80.6934 18.6133 80.7432 19.1875 80.8486 19.6094C80.9072 19.8672 81.0918 20.3828 81.4023 21.1562C81.4434 21.2617 81.5107 21.417 81.6045 21.6221L81.6572 21.7715C81.6572 22.0059 81.5752 22.1992 81.4111 22.3516C81.2471 22.5039 81.0566 22.5801 80.8398 22.5801ZM79.0117 16.4717C79.0117 16.2197 79.0264 15.9473 79.0557 15.6543C79.0908 15.3555 79.1406 15.0391 79.2051 14.7051C78.9883 14.5938 78.8008 14.5117 78.6426 14.459C78.4902 14.4062 78.3672 14.3799 78.2734 14.3799C77.3652 14.3799 76.5801 14.752 75.918 15.4961C75.2617 16.2344 74.9336 17.0869 74.9336 18.0537C74.9336 19.0146 75.1035 19.7354 75.4434 20.2158C75.7832 20.6963 76.293 20.9365 76.9727 20.9365C77.5352 20.9365 78.0127 20.834 78.4053 20.6289C78.6162 20.5176 78.9121 20.2949 79.293 19.9609C79.1055 18.4082 79.0117 17.2451 79.0117 16.4717ZM89.9277 22.624C89.4238 22.624 89.1396 22.3486 89.0752 21.7979L88.8291 19.873C88.7471 19.1875 88.7061 18.5459 88.7061 17.9482C88.7061 17.7842 88.7148 17.5059 88.7324 17.1133C88.7559 16.7207 88.7676 16.4424 88.7676 16.2783C88.7676 15.0127 88.5332 14.3799 88.0645 14.3799C87.4082 14.3799 86.7812 14.7695 86.1836 15.5488C85.6445 16.2578 85.2227 17.1543 84.918 18.2383C84.9062 18.4668 84.8799 18.7539 84.8389 19.0996C84.8037 19.3926 84.7861 19.6768 84.7861 19.9521C84.7861 20.1279 84.8037 20.3916 84.8389 20.7432C84.874 21.0947 84.8916 21.3584 84.8916 21.5342C84.8916 21.7979 84.8096 22.0117 84.6455 22.1758C84.4873 22.3398 84.2822 22.4219 84.0303 22.4219C83.7725 22.4219 83.5645 22.3398 83.4062 22.1758C83.248 22.0117 83.1689 21.7979 83.1689 21.5342C83.1689 21.3584 83.1484 21.0947 83.1074 20.7432C83.0723 20.3916 83.0547 20.1279 83.0547 19.9521C83.0547 19.3486 83.0957 18.5137 83.1777 17.4473C83.2656 16.375 83.3096 15.5371 83.3096 14.9336C83.3096 14.7461 83.2979 14.4678 83.2744 14.0986C83.2568 13.7295 83.248 13.4512 83.248 13.2637C83.248 13.0117 83.3301 12.8066 83.4941 12.6484C83.6641 12.4844 83.8721 12.4023 84.1182 12.4023C84.6572 12.4023 84.9531 12.7832 85.0059 13.5449L85.0322 14.5732C86.0166 13.2607 87.0273 12.6045 88.0645 12.6045C89.002 12.6045 89.6553 13.0176 90.0244 13.8438C90.2764 14.3945 90.4141 15.209 90.4375 16.2871V17.1748L90.4287 17.9922C90.4287 18.4785 90.4902 19.1084 90.6133 19.8818C90.7422 20.6494 90.8066 21.2734 90.8066 21.7539C90.8066 22.0117 90.7217 22.2197 90.5518 22.3779C90.3877 22.542 90.1797 22.624 89.9277 22.624ZM98.541 15.2324C98.2188 15.2324 97.9932 15.124 97.8643 14.9072C97.7764 14.7549 97.7002 14.4385 97.6357 13.958C97.1963 14.0693 96.5195 14.2744 95.6055 14.5732C94.6621 14.9482 94.1875 15.4111 94.1816 15.9619C94.3574 16.0264 94.5303 16.0732 94.7002 16.1025C96.0479 16.3428 97.0498 16.6738 97.7061 17.0957C98.6611 17.7109 99.1387 18.6016 99.1387 19.7676C99.1387 20.7227 98.7256 21.4434 97.8994 21.9297C97.2139 22.3281 96.3467 22.5273 95.2979 22.5273C94.5303 22.5273 93.7979 22.3984 93.1006 22.1406C92.1982 21.8125 91.7471 21.3555 91.7471 20.7695C91.7471 20.5352 91.8379 20.3301 92.0195 20.1543C92.207 19.9785 92.418 19.8906 92.6523 19.8906C92.834 19.8906 93.0684 20.0312 93.3555 20.3125C93.4961 20.4473 93.8125 20.5586 94.3047 20.6465C94.6973 20.7168 95.0283 20.752 95.2979 20.752C95.79 20.752 96.2236 20.6934 96.5986 20.5762C97.1436 20.4062 97.416 20.1367 97.416 19.7676C97.416 18.9707 96.8594 18.4316 95.7461 18.1504L94.832 17.9482C94.0527 17.7783 93.499 17.5791 93.1709 17.3506C92.6963 17.0225 92.459 16.5273 92.459 15.8652C92.459 14.6406 93.0361 13.7676 94.1904 13.2461C94.542 13.0879 95.1045 12.9004 95.8779 12.6836C96.6514 12.4609 97.2051 12.2734 97.5391 12.1211C97.7793 12.0156 98.04 11.9629 98.3213 11.9629C98.5732 11.9629 98.7783 12.0449 98.9365 12.209C99.1006 12.373 99.1826 12.5869 99.1826 12.8506C99.1826 13.0205 99.2178 13.2695 99.2881 13.5977C99.3643 13.9258 99.4023 14.1748 99.4023 14.3447C99.4023 14.6084 99.3203 14.8223 99.1562 14.9863C98.998 15.1504 98.793 15.2324 98.541 15.2324Z" fill="#333333"/>
</svg>
