<svg width="150" height="30" viewBox="0 0 150 30" fill="none" xmlns="http://www.w3.org/2000/svg">
<rect width="150" height="30" fill="white"/>
<path d="M16.48 20.324C15.472 20.324 14.572 20.006 13.78 19.37C12.988 18.734 12.37 17.9 11.926 16.868C11.482 15.824 11.26 14.732 11.26 13.592C11.26 12.452 11.482 11.366 11.926 10.334C12.37 9.29 12.988 8.45 13.78 7.814C14.572 7.178 15.472 6.86 16.48 6.86C17.488 6.86 18.388 7.178 19.18 7.814C19.972 8.45 20.59 9.29 21.034 10.334C21.478 11.366 21.7 12.452 21.7 13.592C21.7 14.732 21.478 15.824 21.034 16.868C20.59 17.9 19.972 18.734 19.18 19.37C18.388 20.006 17.488 20.324 16.48 20.324ZM16.48 19.748C17.656 19.748 18.502 19.214 19.018 18.146C19.534 17.066 19.792 15.548 19.792 13.592C19.792 11.624 19.534 10.106 19.018 9.038C18.502 7.97 17.656 7.436 16.48 7.436C15.304 7.436 14.458 7.97 13.942 9.038C13.426 10.106 13.168 11.624 13.168 13.592C13.168 15.548 13.426 17.066 13.942 18.146C14.458 19.214 15.304 19.748 16.48 19.748ZM23.1075 19.568H24.0435C24.1875 19.568 24.2895 19.538 24.3495 19.478C24.4095 19.418 24.4395 19.316 24.4395 19.172V8.012C24.4395 7.868 24.4095 7.766 24.3495 7.706C24.2895 7.646 24.1875 7.616 24.0435 7.616H23.1075V7.184H25.7355V19.172C25.7355 19.316 25.7655 19.418 25.8255 19.478C25.8855 19.538 25.9875 19.568 26.1315 19.568H27.0675V20H23.1075V19.568ZM31.4871 20.216C30.9231 20.216 30.3951 20.03 29.9031 19.658C29.4231 19.274 29.0391 18.752 28.7511 18.092C28.4631 17.432 28.3191 16.7 28.3191 15.896C28.3191 15.092 28.4631 14.36 28.7511 13.7C29.0391 13.04 29.4231 12.524 29.9031 12.152C30.3951 11.768 30.9231 11.576 31.4871 11.576C31.9551 11.576 32.3751 11.732 32.7471 12.044C33.1191 12.344 33.3951 12.71 33.5751 13.142L33.6471 13.124V8.012C33.6471 7.868 33.6171 7.766 33.5571 7.706C33.4971 7.646 33.3951 7.616 33.2511 7.616H31.9551V7.184H34.9431V19.172C34.9431 19.316 34.9731 19.418 35.0331 19.478C35.0931 19.538 35.1951 19.568 35.3391 19.568H36.2751V20H33.6471V18.668L33.5751 18.65C33.3471 19.13 33.0531 19.514 32.6931 19.802C32.3451 20.078 31.9431 20.216 31.4871 20.216ZM31.6851 19.712C32.0451 19.712 32.3751 19.58 32.6751 19.316C32.9751 19.052 33.2091 18.692 33.3771 18.236C33.5571 17.768 33.6471 17.264 33.6471 16.724V15.068C33.6471 14.528 33.5571 14.03 33.3771 13.574C33.2091 13.106 32.9751 12.74 32.6751 12.476C32.3751 12.212 32.0451 12.08 31.6851 12.08C31.0971 12.08 30.6531 12.41 30.3531 13.07C30.0531 13.73 29.9031 14.672 29.9031 15.896C29.9031 17.12 30.0531 18.062 30.3531 18.722C30.6531 19.382 31.0971 19.712 31.6851 19.712ZM48.2223 20.324C47.7183 20.324 47.2203 20.216 46.7283 20C46.2483 19.772 45.8283 19.526 45.4683 19.262C44.9643 18.878 44.6643 18.686 44.5683 18.686C44.3283 18.686 44.1723 18.944 44.1003 19.46L44.0283 20.18H43.6143L43.4883 14.492H43.9203C43.9923 15.38 44.2383 16.232 44.6583 17.048C45.0903 17.852 45.6243 18.506 46.2603 19.01C46.8963 19.502 47.5503 19.748 48.2223 19.748C49.2063 19.748 49.9203 19.508 50.3643 19.028C50.8203 18.548 51.0483 17.972 51.0483 17.3C51.0483 16.712 50.8743 16.25 50.5263 15.914C50.1903 15.578 49.6923 15.278 49.0323 15.014L46.2963 13.916C45.3483 13.532 44.6463 13.04 44.1903 12.44C43.7463 11.828 43.5243 11.096 43.5243 10.244C43.5243 9.092 43.8603 8.24 44.5323 7.688C45.2043 7.136 46.0443 6.86 47.0523 6.86C47.8443 6.86 48.7203 7.22 49.6803 7.94C49.8003 8.024 49.9203 8.102 50.0403 8.174C50.1603 8.234 50.2683 8.264 50.3643 8.264C50.5683 8.264 50.6883 8.12 50.7243 7.832L50.7963 7.184H51.2283L51.4083 11.864H50.9763C50.7843 11 50.4783 10.232 50.0583 9.56C49.6503 8.888 49.1703 8.366 48.6183 7.994C48.0663 7.622 47.4963 7.436 46.9083 7.436C46.2363 7.436 45.6843 7.658 45.2523 8.102C44.8203 8.534 44.6043 9.14 44.6043 9.92C44.6043 10.46 44.7423 10.88 45.0183 11.18C45.2943 11.48 45.7023 11.738 46.2423 11.954L49.7163 13.34C50.5203 13.664 51.1203 14.126 51.5163 14.726C51.9243 15.326 52.1283 15.956 52.1283 16.616C52.1283 17.252 51.9843 17.852 51.6963 18.416C51.4203 18.98 50.9883 19.442 50.4003 19.802C49.8243 20.15 49.0983 20.324 48.2223 20.324ZM56.7744 20.216C56.2344 20.216 55.7844 20.024 55.4244 19.64C55.0764 19.256 54.9024 18.734 54.9024 18.074V12.296H53.5704V11.792H53.9664C54.5064 11.792 54.9264 11.504 55.2264 10.928C55.5384 10.34 55.6944 9.692 55.6944 8.984V8.336H56.1984V11.792H58.4304V12.296H56.1984V18.164C56.1984 18.524 56.2704 18.824 56.4144 19.064C56.5584 19.304 56.8044 19.424 57.1524 19.424C58.0044 19.424 58.4304 18.704 58.4304 17.264H58.7544C58.7544 18.068 58.6344 18.764 58.3944 19.352C58.1664 19.928 57.6264 20.216 56.7744 20.216ZM62.5274 20.216C61.8914 20.216 61.3394 20.06 60.8714 19.748C60.4154 19.436 60.1874 18.884 60.1874 18.092C60.1874 17.48 60.3434 17 60.6554 16.652C60.9674 16.304 61.3274 16.058 61.7354 15.914C62.1554 15.758 62.6594 15.626 63.2474 15.518L64.9034 15.212V13.682C64.9034 12.566 64.3454 12.008 63.2294 12.008C62.8214 12.008 62.4494 12.116 62.1134 12.332C61.7774 12.536 61.6094 12.77 61.6094 13.034C61.6094 13.154 61.6274 13.244 61.6634 13.304C61.6874 13.34 61.7234 13.376 61.7714 13.412C61.8314 13.448 61.8854 13.472 61.9334 13.484C62.1494 13.544 62.3114 13.628 62.4194 13.736C62.5394 13.844 62.5994 13.994 62.5994 14.186C62.5994 14.438 62.5214 14.618 62.3654 14.726C62.2214 14.834 62.0354 14.888 61.8074 14.888C61.5434 14.888 61.3034 14.786 61.0874 14.582C60.8714 14.378 60.7634 14.084 60.7634 13.7C60.7634 13.256 60.8834 12.872 61.1234 12.548C61.3754 12.224 61.6934 11.984 62.0774 11.828C62.4734 11.66 62.8754 11.576 63.2834 11.576C64.0754 11.576 64.7594 11.786 65.3354 12.206C65.9114 12.614 66.1994 13.256 66.1994 14.132V18.56C66.1994 19.16 66.3854 19.46 66.7574 19.46C67.0574 19.46 67.2734 19.286 67.4054 18.938C67.5374 18.59 67.6034 18.164 67.6034 17.66H67.9274C67.9274 18.38 67.8194 18.986 67.6034 19.478C67.3994 19.97 67.0274 20.216 66.4874 20.216C65.9714 20.216 65.5814 20.066 65.3174 19.766C65.0654 19.454 64.9274 19.028 64.9034 18.488L64.8134 18.452C64.6334 18.872 64.3394 19.274 63.9314 19.658C63.5354 20.03 63.0674 20.216 62.5274 20.216ZM62.8154 19.568C63.3554 19.568 63.7754 19.358 64.0754 18.938C64.3874 18.506 64.6634 17.96 64.9034 17.3V15.59L63.3374 15.932C62.7614 16.052 62.3414 16.292 62.0774 16.652C61.8254 17 61.6994 17.498 61.6994 18.146C61.6994 18.698 61.8134 19.076 62.0414 19.28C62.2694 19.472 62.5274 19.568 62.8154 19.568ZM68.9379 19.568H69.6939C69.8379 19.568 69.9399 19.538 69.9999 19.478C70.0599 19.418 70.0899 19.316 70.0899 19.172V12.62C70.0899 12.476 70.0599 12.374 69.9999 12.314C69.9399 12.254 69.8379 12.224 69.6939 12.224H68.9379V11.792H71.3859V13.268L71.4579 13.286C71.7339 12.71 72.0759 12.284 72.4839 12.008C72.8919 11.72 73.3419 11.576 73.8339 11.576C74.7099 11.576 75.3279 11.846 75.6879 12.386C76.0599 12.926 76.2459 13.574 76.2459 14.33V19.172C76.2459 19.316 76.2759 19.418 76.3359 19.478C76.3959 19.538 76.4979 19.568 76.6419 19.568H77.3979V20H73.7979V19.568H74.5539C74.6979 19.568 74.7999 19.538 74.8599 19.478C74.9199 19.418 74.9499 19.316 74.9499 19.172V13.988C74.9499 13.46 74.8419 13.01 74.6259 12.638C74.4219 12.266 74.0679 12.08 73.5639 12.08C73.1439 12.08 72.7659 12.23 72.4299 12.53C72.1059 12.818 71.8479 13.22 71.6559 13.736C71.4759 14.24 71.3859 14.804 71.3859 15.428V19.172C71.3859 19.316 71.4159 19.418 71.4759 19.478C71.5359 19.538 71.6379 19.568 71.7819 19.568H72.5379V20H68.9379V19.568ZM82.0066 20.216C81.4426 20.216 80.9146 20.03 80.4226 19.658C79.9426 19.274 79.5586 18.752 79.2706 18.092C78.9826 17.432 78.8386 16.7 78.8386 15.896C78.8386 15.092 78.9826 14.36 79.2706 13.7C79.5586 13.04 79.9426 12.524 80.4226 12.152C80.9146 11.768 81.4426 11.576 82.0066 11.576C82.4746 11.576 82.8946 11.732 83.2666 12.044C83.6386 12.344 83.9146 12.71 84.0946 13.142L84.1666 13.124V8.012C84.1666 7.868 84.1366 7.766 84.0766 7.706C84.0166 7.646 83.9146 7.616 83.7706 7.616H82.4746V7.184H85.4626V19.172C85.4626 19.316 85.4926 19.418 85.5526 19.478C85.6126 19.538 85.7146 19.568 85.8586 19.568H86.7946V20H84.1666V18.668L84.0946 18.65C83.8666 19.13 83.5726 19.514 83.2126 19.802C82.8646 20.078 82.4626 20.216 82.0066 20.216ZM82.2046 19.712C82.5646 19.712 82.8946 19.58 83.1946 19.316C83.4946 19.052 83.7286 18.692 83.8966 18.236C84.0766 17.768 84.1666 17.264 84.1666 16.724V15.068C84.1666 14.528 84.0766 14.03 83.8966 13.574C83.7286 13.106 83.4946 12.74 83.1946 12.476C82.8946 12.212 82.5646 12.08 82.2046 12.08C81.6166 12.08 81.1726 12.41 80.8726 13.07C80.5726 13.73 80.4226 14.672 80.4226 15.896C80.4226 17.12 80.5726 18.062 80.8726 18.722C81.1726 19.382 81.6166 19.712 82.2046 19.712ZM90.5469 20.216C89.9109 20.216 89.3589 20.06 88.8909 19.748C88.4349 19.436 88.2069 18.884 88.2069 18.092C88.2069 17.48 88.3629 17 88.6749 16.652C88.9869 16.304 89.3469 16.058 89.7549 15.914C90.1749 15.758 90.6789 15.626 91.2669 15.518L92.9229 15.212V13.682C92.9229 12.566 92.3649 12.008 91.2489 12.008C90.8409 12.008 90.4689 12.116 90.1329 12.332C89.7969 12.536 89.6289 12.77 89.6289 13.034C89.6289 13.154 89.6469 13.244 89.6829 13.304C89.7069 13.34 89.7429 13.376 89.7909 13.412C89.8509 13.448 89.9049 13.472 89.9529 13.484C90.1689 13.544 90.3309 13.628 90.4389 13.736C90.5589 13.844 90.6189 13.994 90.6189 14.186C90.6189 14.438 90.5409 14.618 90.3849 14.726C90.2409 14.834 90.0549 14.888 89.8269 14.888C89.5629 14.888 89.3229 14.786 89.1069 14.582C88.8909 14.378 88.7829 14.084 88.7829 13.7C88.7829 13.256 88.9029 12.872 89.1429 12.548C89.3949 12.224 89.7129 11.984 90.0969 11.828C90.4929 11.66 90.8949 11.576 91.3029 11.576C92.0949 11.576 92.7789 11.786 93.3549 12.206C93.9309 12.614 94.2189 13.256 94.2189 14.132V18.56C94.2189 19.16 94.4049 19.46 94.7769 19.46C95.0769 19.46 95.2929 19.286 95.4249 18.938C95.5569 18.59 95.6229 18.164 95.6229 17.66H95.9469C95.9469 18.38 95.8389 18.986 95.6229 19.478C95.4189 19.97 95.0469 20.216 94.5069 20.216C93.9909 20.216 93.6009 20.066 93.3369 19.766C93.0849 19.454 92.9469 19.028 92.9229 18.488L92.8329 18.452C92.6529 18.872 92.3589 19.274 91.9509 19.658C91.5549 20.03 91.0869 20.216 90.5469 20.216ZM90.8349 19.568C91.3749 19.568 91.7949 19.358 92.0949 18.938C92.4069 18.506 92.6829 17.96 92.9229 17.3V15.59L91.3569 15.932C90.7809 16.052 90.3609 16.292 90.0969 16.652C89.8449 17 89.7189 17.498 89.7189 18.146C89.7189 18.698 89.8329 19.076 90.0609 19.28C90.2889 19.472 90.5469 19.568 90.8349 19.568ZM96.9574 19.568H97.7134C97.8574 19.568 97.9594 19.538 98.0194 19.478C98.0794 19.418 98.1094 19.316 98.1094 19.172V12.62C98.1094 12.476 98.0794 12.374 98.0194 12.314C97.9594 12.254 97.8574 12.224 97.7134 12.224H96.9574V11.792H99.4054V13.592L99.4774 13.61C99.7294 12.986 100.053 12.494 100.449 12.134C100.857 11.762 101.289 11.576 101.745 11.576C102.201 11.576 102.573 11.708 102.861 11.972C103.149 12.236 103.293 12.596 103.293 13.052C103.293 13.316 103.197 13.574 103.005 13.826C102.825 14.078 102.591 14.204 102.303 14.204C102.075 14.204 101.883 14.144 101.727 14.024C101.571 13.904 101.493 13.736 101.493 13.52C101.493 13.268 101.613 13.052 101.853 12.872C101.961 12.8 102.039 12.734 102.087 12.674C102.147 12.614 102.177 12.536 102.177 12.44C102.177 12.332 102.123 12.248 102.015 12.188C101.919 12.116 101.781 12.08 101.601 12.08C101.229 12.08 100.869 12.26 100.521 12.62C100.185 12.98 99.9154 13.448 99.7114 14.024C99.5074 14.6 99.4054 15.2 99.4054 15.824V19.172C99.4054 19.316 99.4354 19.418 99.4954 19.478C99.5554 19.538 99.6574 19.568 99.8014 19.568H100.557V20H96.9574V19.568ZM107.688 20.216C107.124 20.216 106.596 20.03 106.104 19.658C105.624 19.274 105.24 18.752 104.952 18.092C104.664 17.432 104.52 16.7 104.52 15.896C104.52 15.092 104.664 14.36 104.952 13.7C105.24 13.04 105.624 12.524 106.104 12.152C106.596 11.768 107.124 11.576 107.688 11.576C108.156 11.576 108.576 11.732 108.948 12.044C109.32 12.344 109.596 12.71 109.776 13.142L109.848 13.124V8.012C109.848 7.868 109.818 7.766 109.758 7.706C109.698 7.646 109.596 7.616 109.452 7.616H108.156V7.184H111.144V19.172C111.144 19.316 111.174 19.418 111.234 19.478C111.294 19.538 111.396 19.568 111.54 19.568H112.476V20H109.848V18.668L109.776 18.65C109.548 19.13 109.254 19.514 108.894 19.802C108.546 20.078 108.144 20.216 107.688 20.216ZM107.886 19.712C108.246 19.712 108.576 19.58 108.876 19.316C109.176 19.052 109.41 18.692 109.578 18.236C109.758 17.768 109.848 17.264 109.848 16.724V15.068C109.848 14.528 109.758 14.03 109.578 13.574C109.41 13.106 109.176 12.74 108.876 12.476C108.576 12.212 108.246 12.08 107.886 12.08C107.298 12.08 106.854 12.41 106.554 13.07C106.254 13.73 106.104 14.672 106.104 15.896C106.104 17.12 106.254 18.062 106.554 18.722C106.854 19.382 107.298 19.712 107.886 19.712ZM121.669 19.424H123.397C123.721 19.424 123.883 19.262 123.883 18.938V8.192C123.883 8.024 123.847 7.904 123.775 7.832C123.703 7.748 123.577 7.706 123.397 7.706H122.749C121.993 7.706 121.339 8.09 120.787 8.858C120.439 9.35 120.205 9.968 120.085 10.712C119.965 11.444 119.905 11.984 119.905 12.332H119.401L119.545 7.184H129.877L130.021 12.332H129.517C129.517 11.984 129.457 11.444 129.337 10.712C129.217 9.968 128.983 9.35 128.635 8.858C128.083 8.09 127.429 7.706 126.673 7.706H126.025C125.845 7.706 125.719 7.748 125.647 7.832C125.575 7.904 125.539 8.024 125.539 8.192V18.938C125.539 19.262 125.701 19.424 126.025 19.424H127.753V20H121.669V19.424ZM134.519 19.424H136.247C136.571 19.424 136.733 19.262 136.733 18.938V8.192C136.733 8.024 136.697 7.904 136.625 7.832C136.553 7.748 136.427 7.706 136.247 7.706H135.599C134.843 7.706 134.189 8.09 133.637 8.858C133.289 9.35 133.055 9.968 132.935 10.712C132.815 11.444 132.755 11.984 132.755 12.332H132.251L132.395 7.184H142.727L142.871 12.332H142.367C142.367 11.984 142.307 11.444 142.187 10.712C142.067 9.968 141.833 9.35 141.485 8.858C140.933 8.09 140.279 7.706 139.523 7.706H138.875C138.695 7.706 138.569 7.748 138.497 7.832C138.425 7.904 138.389 8.024 138.389 8.192V18.938C138.389 19.262 138.551 19.424 138.875 19.424H140.603V20H134.519V19.424Z" fill="#333333"/>
</svg>
