<svg width="150" height="30" viewBox="0 0 150 30" fill="none" xmlns="http://www.w3.org/2000/svg">
<path d="M17.776 21.658L16.462 17.77H12.898L11.512 21.658H12.862V22H10.108V21.658H10.954L15.544 9.292H17.02L21.556 21.658H22.384V22H16.498V21.658H17.776ZM14.752 12.658L13.06 17.374H16.318L14.752 12.658ZM29.248 17.158C29.248 15.922 29.188 15.094 29.068 14.674C28.948 14.242 28.714 14.026 28.366 14.026C28.018 14.026 27.706 14.242 27.43 14.674C27.154 15.106 27.016 15.7 27.016 16.456V19.804C27.016 20.32 27.118 20.758 27.322 21.118C27.538 21.478 27.838 21.658 28.222 21.658C28.618 21.658 28.888 21.394 29.032 20.866C29.176 20.338 29.248 19.414 29.248 18.094V17.158ZM27.016 8.5V14.8C27.472 13.768 28.252 13.252 29.356 13.252C31.6 13.252 32.722 14.746 32.722 17.734C32.722 19.258 32.41 20.38 31.786 21.1C31.174 21.82 30.25 22.18 29.014 22.18C28.39 22.18 27.91 22.084 27.574 21.892C27.25 21.7 27.028 21.382 26.908 20.938L26.782 22H22.678V21.676H23.668V8.824H22.678V8.5H27.016ZM39.2721 13.936C38.8281 13.936 38.4381 14.224 38.1021 14.8C37.7661 15.376 37.5981 16.06 37.5981 16.852V21.676H38.8761V22H33.2601V21.676H34.2501V13.756H33.2601V13.432H37.5981V15.16C37.7541 14.548 38.0541 14.08 38.4981 13.756C38.9421 13.42 39.4461 13.252 40.0101 13.252C40.5741 13.252 41.0301 13.414 41.3781 13.738C41.7381 14.05 41.9181 14.5 41.9181 15.088C41.9181 15.664 41.7861 16.108 41.5221 16.42C41.2581 16.732 40.8501 16.888 40.2981 16.888C39.7581 16.888 39.3561 16.708 39.0921 16.348C38.8401 15.988 38.8101 15.49 39.0021 14.854H39.6501C39.9501 14.242 39.8241 13.936 39.2721 13.936ZM44.8182 12.19C44.1822 12.19 43.7262 12.028 43.4502 11.704C43.1862 11.38 43.0542 10.978 43.0542 10.498C43.0542 10.018 43.1982 9.622 43.4862 9.31C43.7862 8.998 44.2362 8.842 44.8362 8.842C45.4362 8.842 45.8922 8.986 46.2042 9.274C46.5162 9.55 46.6722 9.952 46.6722 10.48C46.6722 10.996 46.5222 11.41 46.2222 11.722C45.9222 12.034 45.4542 12.19 44.8182 12.19ZM42.1002 13.432H46.5102V21.676H47.5182V22H42.1722V21.676H43.1622V13.756H42.1002V13.432ZM47.8131 8.5H52.2231V21.676H53.2311V22H47.8851V21.676H48.8751V8.824H47.8131V8.5ZM57.0128 9.4H66.3728L66.5528 13.144H66.2288C65.7848 11.848 65.2688 10.966 64.6808 10.498C64.1048 10.03 63.2408 9.796 62.0888 9.796H61.5848V15.646H62.3948C62.9708 15.646 63.4508 15.436 63.8348 15.016C64.2188 14.596 64.4828 14.02 64.6268 13.288H64.8968V18.616H64.5908C64.3988 17.716 64.1288 17.074 63.7808 16.69C63.4448 16.306 62.9828 16.114 62.3948 16.114H61.5848V21.604H63.8168V22H57.0128V21.604H58.0748V9.796H57.0128V9.4ZM70.8027 17.77H71.3247V16.384C71.3247 15.244 71.2587 14.482 71.1267 14.098C71.0067 13.702 70.7667 13.504 70.4067 13.504C70.1907 13.504 69.9927 13.564 69.8127 13.684C69.6447 13.792 69.5607 13.948 69.5607 14.152C69.5607 14.344 69.5967 14.542 69.6687 14.746H70.1187C70.2147 14.998 70.2627 15.304 70.2627 15.664C70.2627 16.012 70.1127 16.318 69.8127 16.582C69.5127 16.834 69.1347 16.96 68.6787 16.96C67.6467 16.96 67.1307 16.462 67.1307 15.466C67.1307 13.99 68.3847 13.252 70.8927 13.252C72.3207 13.252 73.3047 13.498 73.8447 13.99C74.3967 14.47 74.6727 15.358 74.6727 16.654V20.308C74.6727 20.932 74.8467 21.244 75.1947 21.244C75.6027 21.244 75.8427 20.626 75.9147 19.39L76.1847 19.408C76.1367 20.464 75.9387 21.19 75.5907 21.586C75.2427 21.982 74.6727 22.18 73.8807 22.18C72.4407 22.18 71.6127 21.736 71.3967 20.848C71.2407 21.304 71.0067 21.64 70.6947 21.856C70.3827 22.072 69.9267 22.18 69.3267 22.18C67.5507 22.18 66.6627 21.454 66.6627 20.002C66.6627 19.15 66.9987 18.568 67.6707 18.256C68.3547 17.932 69.3987 17.77 70.8027 17.77ZM70.0827 19.984C70.0827 20.608 70.1127 21.01 70.1727 21.19C70.2447 21.37 70.3707 21.46 70.5507 21.46C70.7427 21.46 70.9167 21.31 71.0727 21.01C71.2407 20.698 71.3247 20.272 71.3247 19.732V18.058H71.1987C70.4547 18.058 70.0827 18.604 70.0827 19.696V19.984ZM76.998 19.426V13.756H76.008V13.432H76.998V11.11L80.346 10.282V13.432H82.686V13.756H80.346V19.822C80.346 20.386 80.4 20.8 80.508 21.064C80.628 21.328 80.868 21.46 81.228 21.46C81.588 21.46 81.9 21.28 82.164 20.92C82.44 20.56 82.62 20.068 82.704 19.444L83.01 19.48C82.914 20.308 82.65 20.968 82.218 21.46C81.786 21.94 81.072 22.18 80.076 22.18C79.08 22.18 78.318 21.982 77.79 21.586C77.262 21.19 76.998 20.47 76.998 19.426ZM83.38 9.4H92.74L92.92 13.144H92.596C92.152 11.848 91.636 10.966 91.048 10.498C90.472 10.03 89.608 9.796 88.456 9.796H87.952V15.646H88.762C89.338 15.646 89.818 15.436 90.202 15.016C90.586 14.596 90.85 14.02 90.994 13.288H91.264V18.616H90.958C90.766 17.716 90.496 17.074 90.148 16.69C89.812 16.306 89.35 16.114 88.762 16.114H87.952V21.604H90.184V22H83.38V21.604H84.442V9.796H83.38V9.4ZM97.1699 17.77H97.6919V16.384C97.6919 15.244 97.6259 14.482 97.4939 14.098C97.3739 13.702 97.1339 13.504 96.7739 13.504C96.5579 13.504 96.3599 13.564 96.1799 13.684C96.0119 13.792 95.9279 13.948 95.9279 14.152C95.9279 14.344 95.9639 14.542 96.0359 14.746H96.4859C96.5819 14.998 96.6299 15.304 96.6299 15.664C96.6299 16.012 96.4799 16.318 96.1799 16.582C95.8799 16.834 95.5019 16.96 95.0459 16.96C94.0139 16.96 93.4979 16.462 93.4979 15.466C93.4979 13.99 94.7519 13.252 97.2599 13.252C98.6879 13.252 99.6719 13.498 100.212 13.99C100.764 14.47 101.04 15.358 101.04 16.654V20.308C101.04 20.932 101.214 21.244 101.562 21.244C101.97 21.244 102.21 20.626 102.282 19.39L102.552 19.408C102.504 20.464 102.306 21.19 101.958 21.586C101.61 21.982 101.04 22.18 100.248 22.18C98.8079 22.18 97.9799 21.736 97.7639 20.848C97.6079 21.304 97.3739 21.64 97.0619 21.856C96.7499 22.072 96.2939 22.18 95.6939 22.18C93.9179 22.18 93.0299 21.454 93.0299 20.002C93.0299 19.15 93.3659 18.568 94.0379 18.256C94.7219 17.932 95.7659 17.77 97.1699 17.77ZM96.4499 19.984C96.4499 20.608 96.4799 21.01 96.5399 21.19C96.6119 21.37 96.7379 21.46 96.9179 21.46C97.1099 21.46 97.2839 21.31 97.4399 21.01C97.6079 20.698 97.6919 20.272 97.6919 19.732V18.058H97.5659C96.8219 18.058 96.4499 18.604 96.4499 19.696V19.984ZM107.769 13.576C107.241 13.576 106.863 13.864 106.635 14.44C106.407 15.016 106.293 15.97 106.293 17.302V18.238C106.293 19.426 106.425 20.278 106.689 20.794C106.953 21.31 107.439 21.568 108.147 21.568C108.855 21.568 109.419 21.328 109.839 20.848C110.259 20.368 110.529 19.822 110.649 19.21L110.973 19.246C110.745 20.278 110.325 21.022 109.713 21.478C109.089 21.946 108.231 22.18 107.139 22.18C105.747 22.18 104.679 21.808 103.935 21.064C103.191 20.308 102.819 19.21 102.819 17.77C102.819 16.318 103.239 15.202 104.079 14.422C104.931 13.642 106.113 13.252 107.625 13.252C108.693 13.252 109.509 13.462 110.073 13.882C110.637 14.29 110.919 14.806 110.919 15.43C110.919 16.054 110.781 16.51 110.505 16.798C110.241 17.086 109.869 17.23 109.389 17.23C108.921 17.23 108.543 17.104 108.255 16.852C107.967 16.6 107.823 16.228 107.823 15.736C107.823 15.52 107.853 15.304 107.913 15.088H108.507C108.591 14.848 108.633 14.632 108.633 14.44C108.633 13.864 108.345 13.576 107.769 13.576ZM116.164 22.18C114.616 22.18 113.452 21.784 112.672 20.992C111.904 20.188 111.52 19.078 111.52 17.662C111.52 16.234 111.952 15.142 112.816 14.386C113.692 13.63 114.802 13.252 116.146 13.252C118.87 13.252 120.178 14.62 120.07 17.356H114.994V18.058C114.994 19.234 115.144 20.122 115.444 20.722C115.744 21.322 116.266 21.622 117.01 21.622C118.402 21.622 119.314 20.878 119.746 19.39L120.07 19.444C119.842 20.308 119.428 20.98 118.828 21.46C118.24 21.94 117.352 22.18 116.164 22.18ZM115.012 16.996H116.866V16.114C116.866 15.142 116.806 14.482 116.686 14.134C116.578 13.774 116.35 13.594 116.002 13.594C115.666 13.594 115.414 13.786 115.246 14.17C115.09 14.542 115.012 15.19 115.012 16.114V16.996Z" fill="#333333"/>
</svg>
