<svg width="150" height="30" viewBox="0 0 150 30" fill="none" xmlns="http://www.w3.org/2000/svg">
<rect width="150" height="30" fill="white"/>
<path d="M16.1787 15.8232H13.1729V21H11.4766V8.20312H15.7129C17.1543 8.20312 18.2617 8.53125 19.0352 9.1875C19.8145 9.84375 20.2041 10.7988 20.2041 12.0527C20.2041 12.8496 19.9873 13.5439 19.5537 14.1357C19.126 14.7275 18.5283 15.1699 17.7607 15.4629L20.7666 20.8945V21H18.9561L16.1787 15.8232ZM13.1729 14.4434H15.7656C16.6035 14.4434 17.2686 14.2266 17.7607 13.793C18.2588 13.3594 18.5078 12.7793 18.5078 12.0527C18.5078 11.2617 18.2705 10.6553 17.7959 10.2334C17.3271 9.81152 16.6475 9.59766 15.7568 9.5918H13.1729V14.4434ZM21.8916 16.1572C21.8916 15.2256 22.0732 14.3877 22.4365 13.6436C22.8057 12.8994 23.3154 12.3252 23.9658 11.9209C24.6221 11.5166 25.3691 11.3145 26.207 11.3145C27.502 11.3145 28.5479 11.7627 29.3447 12.6592C30.1475 13.5557 30.5488 14.748 30.5488 16.2363V16.3506C30.5488 17.2764 30.3701 18.1084 30.0127 18.8467C29.6611 19.5791 29.1543 20.1504 28.4922 20.5605C27.8359 20.9707 27.0801 21.1758 26.2246 21.1758C24.9355 21.1758 23.8896 20.7275 23.0869 19.8311C22.29 18.9346 21.8916 17.748 21.8916 16.2715V16.1572ZM23.5264 16.3506C23.5264 17.4053 23.7695 18.252 24.2559 18.8906C24.748 19.5293 25.4043 19.8486 26.2246 19.8486C27.0508 19.8486 27.707 19.5264 28.1934 18.8818C28.6797 18.2314 28.9229 17.3232 28.9229 16.1572C28.9229 15.1143 28.6738 14.2705 28.1758 13.626C27.6836 12.9756 27.0273 12.6504 26.207 12.6504C25.4043 12.6504 24.7568 12.9697 24.2646 13.6084C23.7725 14.2471 23.5264 15.1611 23.5264 16.3506ZM40.6387 16.3506C40.6387 17.8037 40.3047 18.9727 39.6367 19.8574C38.9688 20.7363 38.0723 21.1758 36.9473 21.1758C35.7461 21.1758 34.8174 20.751 34.1611 19.9014L34.082 21H32.5879V7.5H34.2139V12.5361C34.8701 11.7217 35.7754 11.3145 36.9297 11.3145C38.084 11.3145 38.9893 11.751 39.6455 12.624C40.3076 13.4971 40.6387 14.6924 40.6387 16.21V16.3506ZM39.0127 16.166C39.0127 15.0586 38.7988 14.2031 38.3711 13.5996C37.9434 12.9961 37.3281 12.6943 36.5254 12.6943C35.4531 12.6943 34.6826 13.1924 34.2139 14.1885V18.3018C34.7119 19.2979 35.4883 19.7959 36.543 19.7959C37.3223 19.7959 37.9287 19.4941 38.3623 18.8906C38.7959 18.2871 39.0127 17.3789 39.0127 16.166ZM42.2646 16.1572C42.2646 15.2256 42.4463 14.3877 42.8096 13.6436C43.1787 12.8994 43.6885 12.3252 44.3389 11.9209C44.9951 11.5166 45.7422 11.3145 46.5801 11.3145C47.875 11.3145 48.9209 11.7627 49.7178 12.6592C50.5205 13.5557 50.9219 14.748 50.9219 16.2363V16.3506C50.9219 17.2764 50.7432 18.1084 50.3857 18.8467C50.0342 19.5791 49.5273 20.1504 48.8652 20.5605C48.209 20.9707 47.4531 21.1758 46.5977 21.1758C45.3086 21.1758 44.2627 20.7275 43.46 19.8311C42.6631 18.9346 42.2646 17.748 42.2646 16.2715V16.1572ZM43.8994 16.3506C43.8994 17.4053 44.1426 18.252 44.6289 18.8906C45.1211 19.5293 45.7773 19.8486 46.5977 19.8486C47.4238 19.8486 48.0801 19.5264 48.5664 18.8818C49.0527 18.2314 49.2959 17.3232 49.2959 16.1572C49.2959 15.1143 49.0469 14.2705 48.5488 13.626C48.0566 12.9756 47.4004 12.6504 46.5801 12.6504C45.7773 12.6504 45.1299 12.9697 44.6377 13.6084C44.1455 14.2471 43.8994 15.1611 43.8994 16.3506ZM55.167 9.1875V11.4902H56.9424V12.7471H55.167V18.6445C55.167 19.0254 55.2461 19.3125 55.4043 19.5059C55.5625 19.6934 55.832 19.7871 56.2129 19.7871C56.4004 19.7871 56.6582 19.752 56.9863 19.6816V21C56.5586 21.1172 56.1426 21.1758 55.7383 21.1758C55.0117 21.1758 54.4639 20.9561 54.0947 20.5166C53.7256 20.0771 53.541 19.4531 53.541 18.6445V12.7471H51.8096V11.4902H53.541V9.1875H55.167ZM58.2432 16.1572C58.2432 15.2256 58.4248 14.3877 58.7881 13.6436C59.1572 12.8994 59.667 12.3252 60.3174 11.9209C60.9736 11.5166 61.7207 11.3145 62.5586 11.3145C63.8535 11.3145 64.8994 11.7627 65.6963 12.6592C66.499 13.5557 66.9004 14.748 66.9004 16.2363V16.3506C66.9004 17.2764 66.7217 18.1084 66.3643 18.8467C66.0127 19.5791 65.5059 20.1504 64.8438 20.5605C64.1875 20.9707 63.4316 21.1758 62.5762 21.1758C61.2871 21.1758 60.2412 20.7275 59.4385 19.8311C58.6416 18.9346 58.2432 17.748 58.2432 16.2715V16.1572ZM59.8779 16.3506C59.8779 17.4053 60.1211 18.252 60.6074 18.8906C61.0996 19.5293 61.7559 19.8486 62.5762 19.8486C63.4023 19.8486 64.0586 19.5264 64.5449 18.8818C65.0312 18.2314 65.2744 17.3232 65.2744 16.1572C65.2744 15.1143 65.0254 14.2705 64.5273 13.626C64.0352 12.9756 63.3789 12.6504 62.5586 12.6504C61.7559 12.6504 61.1084 12.9697 60.6162 13.6084C60.124 14.2471 59.8779 15.1611 59.8779 16.3506Z" fill="#333333"/>
</svg>
