<svg width="150" height="30" viewBox="0 0 150 30" fill="none" xmlns="http://www.w3.org/2000/svg">
<path d="M21.052 8.22C21.268 8.22 21.436 8.292 21.556 8.436C21.676 8.568 21.736 8.748 21.736 8.976V20.334C21.736 20.562 21.67 20.748 21.538 20.892C21.418 21.024 21.244 21.09 21.016 21.09C20.788 21.09 20.59 20.988 20.422 20.784L12.952 10.794V20.334C12.952 20.562 12.886 20.748 12.754 20.892C12.634 21.024 12.466 21.09 12.25 21.09C12.034 21.09 11.866 21.024 11.746 20.892C11.626 20.748 11.566 20.562 11.566 20.334V8.976C11.566 8.748 11.626 8.568 11.746 8.436C11.878 8.292 12.058 8.22 12.286 8.22C12.526 8.22 12.73 8.322 12.898 8.526L20.35 18.516V8.976C20.35 8.748 20.41 8.568 20.53 8.436C20.662 8.292 20.836 8.22 21.052 8.22ZM31.3166 12.054C31.5446 12.054 31.7186 12.12 31.8386 12.252C31.9706 12.384 32.0366 12.558 32.0366 12.774V20.388C32.0366 20.592 31.9706 20.76 31.8386 20.892C31.7186 21.024 31.5446 21.09 31.3166 21.09C31.1006 21.09 30.9266 21.03 30.7946 20.91C30.6746 20.778 30.6146 20.61 30.6146 20.406V19.506C30.3386 20.034 29.9486 20.436 29.4446 20.712C28.9526 20.988 28.3946 21.126 27.7706 21.126C26.7266 21.126 25.9406 20.838 25.4126 20.262C24.8846 19.674 24.6206 18.81 24.6206 17.67V12.774C24.6206 12.558 24.6866 12.384 24.8186 12.252C24.9506 12.12 25.1306 12.054 25.3586 12.054C25.5866 12.054 25.7606 12.12 25.8806 12.252C26.0126 12.384 26.0786 12.558 26.0786 12.774V17.634C26.0786 18.414 26.2346 18.99 26.5466 19.362C26.8586 19.722 27.3506 19.902 28.0226 19.902C28.7906 19.902 29.4086 19.656 29.8766 19.164C30.3446 18.66 30.5786 18 30.5786 17.184V12.774C30.5786 12.558 30.6446 12.384 30.7766 12.252C30.9086 12.12 31.0886 12.054 31.3166 12.054ZM39.1565 12.018C41.2565 12.018 42.3065 13.176 42.3065 15.492V20.37C42.3065 20.598 42.2405 20.778 42.1085 20.91C41.9885 21.03 41.8145 21.09 41.5865 21.09C41.3585 21.09 41.1785 21.03 41.0465 20.91C40.9145 20.778 40.8485 20.598 40.8485 20.37V15.582C40.8485 14.766 40.6865 14.172 40.3625 13.8C40.0505 13.428 39.5465 13.242 38.8505 13.242C38.0465 13.242 37.4045 13.488 36.9245 13.98C36.4445 14.472 36.2045 15.138 36.2045 15.978V20.37C36.2045 20.598 36.1385 20.778 36.0065 20.91C35.8865 21.03 35.7125 21.09 35.4845 21.09C35.2565 21.09 35.0765 21.03 34.9445 20.91C34.8125 20.778 34.7465 20.598 34.7465 20.37V12.774C34.7465 12.558 34.8125 12.384 34.9445 12.252C35.0765 12.12 35.2565 12.054 35.4845 12.054C35.7005 12.054 35.8685 12.12 35.9885 12.252C36.1205 12.384 36.1865 12.552 36.1865 12.756V13.674C36.4745 13.134 36.8765 12.726 37.3925 12.45C37.9085 12.162 38.4965 12.018 39.1565 12.018ZM45.715 21.09C45.499 21.09 45.319 21.03 45.175 20.91C45.043 20.778 44.977 20.598 44.977 20.37V12.774C44.977 12.546 45.043 12.372 45.175 12.252C45.319 12.12 45.499 12.054 45.715 12.054C45.931 12.054 46.105 12.12 46.237 12.252C46.369 12.372 46.435 12.546 46.435 12.774V20.37C46.435 20.61 46.369 20.79 46.237 20.91C46.105 21.03 45.931 21.09 45.715 21.09ZM45.715 10.164C45.427 10.164 45.193 10.08 45.013 9.912C44.833 9.744 44.743 9.522 44.743 9.246C44.743 8.982 44.833 8.766 45.013 8.598C45.193 8.43 45.427 8.346 45.715 8.346C46.003 8.346 46.237 8.43 46.417 8.598C46.597 8.766 46.687 8.982 46.687 9.246C46.687 9.522 46.597 9.744 46.417 9.912C46.237 10.08 46.003 10.164 45.715 10.164ZM53.3512 19.938C53.7712 19.974 53.9812 20.166 53.9812 20.514C53.9812 20.718 53.9032 20.874 53.7472 20.982C53.6032 21.078 53.3812 21.114 53.0812 21.09L52.5952 21.054C51.6352 20.982 50.9272 20.694 50.4712 20.19C50.0152 19.686 49.7872 18.924 49.7872 17.904V13.386H48.5812C48.3772 13.386 48.2152 13.338 48.0952 13.242C47.9872 13.134 47.9332 12.996 47.9332 12.828C47.9332 12.648 47.9872 12.504 48.0952 12.396C48.2152 12.288 48.3772 12.234 48.5812 12.234H49.7872V10.2C49.7872 9.972 49.8532 9.798 49.9852 9.678C50.1172 9.546 50.2972 9.48 50.5252 9.48C50.7412 9.48 50.9152 9.546 51.0472 9.678C51.1792 9.798 51.2452 9.972 51.2452 10.2V12.234H53.2432C53.4352 12.234 53.5852 12.288 53.6932 12.396C53.8132 12.504 53.8732 12.648 53.8732 12.828C53.8732 12.996 53.8132 13.134 53.6932 13.242C53.5852 13.338 53.4352 13.386 53.2432 13.386H51.2452V17.976C51.2452 18.636 51.3772 19.116 51.6412 19.416C51.9172 19.704 52.3252 19.866 52.8652 19.902L53.3512 19.938ZM59.0544 21.126C58.2264 21.126 57.4944 20.94 56.8584 20.568C56.2344 20.196 55.7484 19.668 55.4004 18.984C55.0644 18.288 54.8964 17.484 54.8964 16.572C54.8964 15.66 55.0644 14.862 55.4004 14.178C55.7484 13.482 56.2344 12.948 56.8584 12.576C57.4944 12.204 58.2264 12.018 59.0544 12.018C59.8824 12.018 60.6144 12.204 61.2504 12.576C61.8864 12.948 62.3724 13.482 62.7084 14.178C63.0564 14.862 63.2304 15.66 63.2304 16.572C63.2304 17.484 63.0564 18.288 62.7084 18.984C62.3724 19.668 61.8864 20.196 61.2504 20.568C60.6144 20.94 59.8824 21.126 59.0544 21.126ZM59.0544 19.92C59.9184 19.92 60.5784 19.638 61.0344 19.074C61.5024 18.498 61.7364 17.664 61.7364 16.572C61.7364 15.504 61.5024 14.682 61.0344 14.106C60.5664 13.518 59.9064 13.224 59.0544 13.224C58.2024 13.224 57.5424 13.518 57.0744 14.106C56.6064 14.682 56.3724 15.504 56.3724 16.572C56.3724 17.652 56.6004 18.48 57.0564 19.056C57.5244 19.632 58.1904 19.92 59.0544 19.92Z" fill="#333333"/>
</svg>
