<svg width="150" height="30" viewBox="0 0 150 30" fill="none" xmlns="http://www.w3.org/2000/svg">
<rect width="150" height="30" fill="white"/>
<path d="M24.976 22V9.4H22.474L18.334 17.77L14.176 9.4H11.656V22H13.654V12.586L17.632 20.686H19.018L22.996 12.586L23.014 22H24.976ZM32.2805 12.352C29.3105 12.352 27.2765 14.314 27.2765 17.212C27.2765 20.092 29.3105 22.072 32.2805 22.072C35.2325 22.072 37.2665 20.092 37.2665 17.212C37.2665 14.314 35.2325 12.352 32.2805 12.352ZM32.2805 14.134C33.9905 14.134 35.1965 15.394 35.1965 17.23C35.1965 19.084 33.9905 20.344 32.2805 20.344C30.5525 20.344 29.3465 19.084 29.3465 17.23C29.3465 15.394 30.5525 14.134 32.2805 14.134ZM45.0245 12.352C43.4045 12.352 42.1805 12.928 41.4965 14.26V12.424H39.4265V22H41.4965V16.906C41.6405 15.412 42.6305 14.314 44.2145 14.296C45.6545 14.296 46.5185 15.178 46.5185 16.618V22H48.5885V16.042C48.5885 13.756 47.2565 12.352 45.0245 12.352ZM56.258 19.804C55.7 20.074 55.25 20.218 54.818 20.218C54.17 20.218 53.792 19.912 53.792 18.922V14.332H56.618V12.784H53.792V10.156H51.74V12.784H50.39V14.332H51.74V19.3C51.74 21.262 52.982 22.09 54.422 22.09C55.232 22.09 56.024 21.838 56.78 21.388L56.258 19.804ZM61.5541 12.334C59.7181 12.334 58.0261 13.162 58.0261 15.106C58.0081 18.562 63.0481 17.464 63.0481 19.426C63.0481 20.146 62.3641 20.452 61.4821 20.452C60.4381 20.452 59.1061 20.002 58.2781 19.264L57.5401 20.74C58.4941 21.604 59.9881 22.072 61.3921 22.072C63.3181 22.072 65.0641 21.19 65.0641 19.228C65.0821 15.754 59.9881 16.708 59.9881 14.944C59.9881 14.26 60.5821 13.99 61.3921 13.99C62.2381 13.99 63.3001 14.314 64.1461 14.836L64.9021 13.306C64.0381 12.694 62.7601 12.334 61.5541 12.334ZM71.0892 12.352C68.2452 12.37 66.2472 14.332 66.2472 17.23C66.2472 20.11 68.1912 22.072 71.1432 22.072C72.7992 22.072 74.1672 21.478 75.1032 20.452L74.0052 19.282C73.3032 20.002 72.3492 20.398 71.3052 20.398C69.7932 20.398 68.6592 19.48 68.3352 18.004H75.5712C75.8232 14.548 74.4552 12.352 71.0892 12.352ZM68.2992 16.492C68.5332 14.962 69.5952 14.008 71.1072 14.008C72.6732 14.008 73.6992 14.944 73.7712 16.492H68.2992ZM79.7992 12.424H77.7292V22H79.7992V16.996C79.9612 15.358 81.1852 14.224 83.1112 14.332V12.352C81.5992 12.352 80.4472 13.036 79.7992 14.332V12.424ZM86.8832 12.424H84.8132V22H86.8832V16.996C87.0452 15.358 88.2692 14.224 90.1952 14.332V12.352C88.6832 12.352 87.5312 13.036 86.8832 14.332V12.424ZM97.2525 22H99.2865L99.2685 15.718C99.2505 13.612 97.8645 12.352 95.3985 12.352C93.5805 12.352 92.6085 12.766 91.2765 13.558L92.1225 14.998C93.0765 14.35 94.0305 14.026 94.9485 14.026C96.4605 14.026 97.2345 14.746 97.2345 15.952V16.24H94.3365C92.0325 16.258 90.7185 17.374 90.7185 19.12C90.7185 20.812 92.0145 22.09 94.0845 22.09C95.4705 22.09 96.5685 21.676 97.2525 20.83V22ZM94.5165 20.452C93.3645 20.452 92.6625 19.894 92.6625 19.03C92.6625 18.112 93.2925 17.752 94.6425 17.752H97.2345V18.634C97.1265 19.678 95.9925 20.452 94.5165 20.452ZM106.953 19.804C106.395 20.074 105.945 20.218 105.513 20.218C104.865 20.218 104.487 19.912 104.487 18.922V14.332H107.313V12.784H104.487V10.156H102.435V12.784H101.085V14.332H102.435V19.3C102.435 21.262 103.677 22.09 105.117 22.09C105.927 22.09 106.719 21.838 107.475 21.388L106.953 19.804Z" fill="#333333"/>
</svg>
