<svg width="150" height="30" viewBox="0 0 150 30" fill="none" xmlns="http://www.w3.org/2000/svg">
<rect width="150" height="30" fill="white"/>
<path d="M15.796 20.108C15.364 18.944 14.926 17.798 14.482 16.67C14.05 15.53 13.63 14.444 13.222 13.412C12.814 12.38 12.43 11.45 12.07 10.622C11.818 10.034 11.62 9.596 11.476 9.308C11.332 9.02 11.194 8.828 11.062 8.732C10.93 8.636 10.756 8.576 10.54 8.552C10.504 8.408 10.48 8.27 10.468 8.138C10.456 7.994 10.45 7.874 10.45 7.778C10.69 7.79 11.02 7.802 11.44 7.814C11.86 7.826 12.256 7.832 12.628 7.832C13.396 7.832 14.122 7.814 14.806 7.778C14.806 8.018 14.776 8.276 14.716 8.552C14.32 8.576 14.026 8.642 13.834 8.75C13.642 8.846 13.558 9.032 13.582 9.308C13.618 9.572 13.756 9.98 13.996 10.532C14.464 11.648 14.914 12.776 15.346 13.916C15.79 15.044 16.234 16.22 16.678 17.444C17.17 16.34 17.638 15.236 18.082 14.132C18.526 13.028 18.952 11.9 19.36 10.748C19.588 10.076 19.654 9.56 19.558 9.2C19.474 8.828 19.162 8.612 18.622 8.552C18.586 8.42 18.562 8.282 18.55 8.138C18.538 7.994 18.532 7.874 18.532 7.778C18.796 7.79 19.048 7.802 19.288 7.814C19.528 7.826 19.786 7.832 20.062 7.832C20.338 7.832 20.644 7.826 20.98 7.814C21.328 7.802 21.634 7.79 21.898 7.778C21.898 7.91 21.892 8.042 21.88 8.174C21.868 8.294 21.844 8.42 21.808 8.552C21.436 8.636 21.142 8.864 20.926 9.236C20.71 9.596 20.488 10.076 20.26 10.676C19.66 12.224 19.042 13.778 18.406 15.338C17.782 16.898 17.146 18.464 16.498 20.036C16.294 20.084 16.06 20.108 15.796 20.108ZM25.4228 20.162C24.6068 20.162 23.8928 19.988 23.2808 19.64C22.6688 19.28 22.1948 18.782 21.8588 18.146C21.5228 17.498 21.3548 16.742 21.3548 15.878C21.3548 15.062 21.5288 14.33 21.8768 13.682C22.2248 13.034 22.7048 12.524 23.3168 12.152C23.9288 11.78 24.6308 11.594 25.4228 11.594C26.2748 11.594 27.0008 11.774 27.6008 12.134C28.2128 12.494 28.6808 12.998 29.0048 13.646C29.3288 14.282 29.4908 15.026 29.4908 15.878C29.4908 16.694 29.3168 17.426 28.9688 18.074C28.6328 18.722 28.1588 19.232 27.5468 19.604C26.9468 19.976 26.2388 20.162 25.4228 20.162ZM25.5668 19.298C26.2868 19.298 26.8208 19.004 27.1688 18.416C27.5168 17.816 27.6908 17.042 27.6908 16.094C27.6908 15.35 27.5768 14.708 27.3488 14.168C27.1328 13.616 26.8388 13.196 26.4668 12.908C26.0948 12.608 25.6868 12.458 25.2428 12.458C24.5468 12.458 24.0248 12.74 23.6768 13.304C23.3408 13.868 23.1728 14.6 23.1728 15.5C23.1728 16.712 23.3888 17.648 23.8208 18.308C24.2528 18.968 24.8348 19.298 25.5668 19.298ZM30.6871 20.054C30.6871 19.934 30.6931 19.808 30.7051 19.676C30.7171 19.532 30.7411 19.4 30.7771 19.28C31.2571 19.28 31.5811 19.172 31.7491 18.956C31.9291 18.728 32.0191 18.314 32.0191 17.714V9.65C32.0191 9.362 31.9891 9.128 31.9291 8.948C31.8811 8.756 31.7611 8.612 31.5691 8.516C31.3771 8.42 31.0771 8.372 30.6691 8.372C30.6691 8.096 30.7231 7.874 30.8311 7.706C31.0111 7.706 31.2631 7.676 31.5871 7.616C31.9231 7.556 32.2471 7.478 32.5591 7.382C32.8711 7.286 33.0991 7.19 33.2431 7.094C33.3511 7.13 33.4411 7.202 33.5131 7.31C33.5971 7.418 33.6391 7.586 33.6391 7.814V17.714C33.6391 18.314 33.7171 18.728 33.8731 18.956C34.0411 19.172 34.3171 19.28 34.7011 19.28C34.7371 19.4 34.7611 19.538 34.7731 19.694C34.7851 19.85 34.7911 19.97 34.7911 20.054C34.4791 20.03 34.1491 20.012 33.8011 20C33.4531 20 33.1051 20 32.7571 20C32.4211 20 32.0671 20 31.6951 20C31.3231 20.012 30.9871 20.03 30.6871 20.054ZM36.066 20.054C36.066 19.934 36.072 19.808 36.084 19.676C36.096 19.532 36.12 19.4 36.156 19.28C36.636 19.28 36.96 19.172 37.128 18.956C37.308 18.728 37.398 18.314 37.398 17.714V9.65C37.398 9.362 37.368 9.128 37.308 8.948C37.26 8.756 37.14 8.612 36.948 8.516C36.756 8.42 36.456 8.372 36.048 8.372C36.048 8.096 36.102 7.874 36.21 7.706C36.39 7.706 36.642 7.676 36.966 7.616C37.302 7.556 37.626 7.478 37.938 7.382C38.25 7.286 38.478 7.19 38.622 7.094C38.73 7.13 38.82 7.202 38.892 7.31C38.976 7.418 39.018 7.586 39.018 7.814V17.714C39.018 18.314 39.096 18.728 39.252 18.956C39.42 19.172 39.696 19.28 40.08 19.28C40.116 19.4 40.14 19.538 40.152 19.694C40.164 19.85 40.17 19.97 40.17 20.054C39.858 20.03 39.528 20.012 39.18 20C38.832 20 38.484 20 38.136 20C37.8 20 37.446 20 37.074 20C36.702 20.012 36.366 20.03 36.066 20.054ZM41.4449 20.054C41.4449 19.934 41.4509 19.808 41.4629 19.676C41.4749 19.532 41.4989 19.4 41.5349 19.28C42.0149 19.28 42.3389 19.172 42.5069 18.956C42.6869 18.728 42.7769 18.314 42.7769 17.714V9.65C42.7769 9.362 42.7469 9.128 42.6869 8.948C42.6389 8.756 42.5189 8.612 42.3269 8.516C42.1349 8.42 41.8349 8.372 41.4269 8.372C41.4269 8.096 41.4809 7.874 41.5889 7.706C41.7689 7.706 42.0209 7.676 42.3449 7.616C42.6809 7.556 43.0049 7.478 43.3169 7.382C43.6289 7.286 43.8569 7.19 44.0009 7.094C44.1089 7.13 44.1989 7.202 44.2709 7.31C44.3549 7.418 44.3969 7.586 44.3969 7.814V15.392L45.7289 14.186C46.1489 13.814 46.4429 13.514 46.6109 13.286C46.7909 13.046 46.8809 12.866 46.8809 12.746C46.8809 12.554 46.7069 12.458 46.3589 12.458C46.2869 12.218 46.2509 11.972 46.2509 11.72C46.6349 11.732 46.9829 11.744 47.2949 11.756C47.6069 11.756 47.8829 11.756 48.1229 11.756C48.3269 11.756 48.5789 11.756 48.8789 11.756C49.1789 11.744 49.4909 11.732 49.8149 11.72C49.8149 11.84 49.8029 11.972 49.7789 12.116C49.7669 12.248 49.7369 12.368 49.6889 12.476C49.3409 12.488 48.9989 12.572 48.6629 12.728C48.3389 12.884 47.9489 13.166 47.4929 13.574L45.7829 15.122C46.1549 15.506 46.5389 15.932 46.9349 16.4C47.3429 16.856 47.8229 17.42 48.3749 18.092C48.6149 18.38 48.8189 18.602 48.9869 18.758C49.1669 18.914 49.3529 19.028 49.5449 19.1C49.7369 19.16 49.9709 19.202 50.2469 19.226C50.2469 19.574 50.2169 19.832 50.1569 20C49.7249 20 49.3289 20.012 48.9689 20.036C48.6209 20.06 48.2489 20.102 47.8529 20.162C47.6009 19.79 47.2829 19.358 46.8989 18.866C46.5269 18.374 46.1189 17.87 45.6749 17.354C45.2429 16.838 44.8169 16.37 44.3969 15.95V17.714C44.3969 18.314 44.4749 18.728 44.6309 18.956C44.7989 19.172 45.0749 19.28 45.4589 19.28C45.4949 19.4 45.5189 19.538 45.5309 19.694C45.5429 19.85 45.5489 19.97 45.5489 20.054C45.2369 20.03 44.9069 20.012 44.5589 20C44.2109 20 43.8629 20 43.5149 20C43.1789 20 42.8249 20 42.4529 20C42.0809 20.012 41.7449 20.03 41.4449 20.054ZM43.9649 15.518L43.9469 15.806L44.1089 15.662C44.0609 15.614 44.0129 15.566 43.9649 15.518ZM55.1298 20.162C54.3138 20.162 53.5998 19.988 52.9878 19.64C52.3758 19.28 51.9018 18.782 51.5658 18.146C51.2298 17.498 51.0618 16.742 51.0618 15.878C51.0618 15.062 51.2358 14.33 51.5838 13.682C51.9318 13.034 52.4118 12.524 53.0238 12.152C53.6358 11.78 54.3378 11.594 55.1298 11.594C55.9818 11.594 56.7078 11.774 57.3078 12.134C57.9198 12.494 58.3878 12.998 58.7118 13.646C59.0358 14.282 59.1978 15.026 59.1978 15.878C59.1978 16.694 59.0238 17.426 58.6758 18.074C58.3398 18.722 57.8658 19.232 57.2538 19.604C56.6538 19.976 55.9458 20.162 55.1298 20.162ZM55.2738 19.298C55.9938 19.298 56.5278 19.004 56.8758 18.416C57.2238 17.816 57.3978 17.042 57.3978 16.094C57.3978 15.35 57.2838 14.708 57.0558 14.168C56.8398 13.616 56.5458 13.196 56.1738 12.908C55.8018 12.608 55.3938 12.458 54.9498 12.458C54.2538 12.458 53.7318 12.74 53.3838 13.304C53.0478 13.868 52.8798 14.6 52.8798 15.5C52.8798 16.712 53.0958 17.648 53.5278 18.308C53.9598 18.968 54.5418 19.298 55.2738 19.298ZM63.5399 17.354C63.5399 17.87 63.5939 18.266 63.7019 18.542C63.8099 18.806 63.9839 18.992 64.2239 19.1C64.4639 19.196 64.7699 19.256 65.1419 19.28C65.1779 19.376 65.2019 19.49 65.2139 19.622C65.2259 19.742 65.2319 19.886 65.2319 20.054C64.9559 20.03 64.6139 20.012 64.2059 20C63.7979 20 63.3839 20 62.9639 20C62.5439 20 62.0999 20 61.6319 20C61.1759 20.012 60.8279 20.03 60.5879 20.054C60.5879 19.886 60.5939 19.742 60.6059 19.622C60.6179 19.49 60.6419 19.376 60.6779 19.28C61.1579 19.256 61.4819 19.142 61.6499 18.938C61.8299 18.722 61.9199 18.314 61.9199 17.714V14.15C61.9199 13.73 61.8419 13.418 61.6859 13.214C61.5419 12.998 61.1699 12.884 60.5699 12.872C60.5699 12.596 60.6239 12.374 60.7319 12.206C61.1039 12.182 61.5299 12.11 62.0099 11.99C62.4899 11.87 62.8679 11.738 63.1439 11.594C63.2519 11.63 63.3419 11.708 63.4139 11.828C63.4979 11.936 63.5399 12.122 63.5399 12.386C63.5399 12.734 63.5099 13.052 63.4499 13.34C63.4019 13.616 63.3539 13.886 63.3059 14.15C63.3779 13.946 63.4379 13.766 63.4859 13.61C63.5459 13.454 63.6119 13.322 63.6839 13.214C63.9479 12.794 64.2599 12.446 64.6199 12.17C64.9799 11.894 65.3939 11.756 65.8619 11.756C66.3179 11.756 66.7319 11.9 67.1039 12.188C67.0559 12.488 67.0199 12.842 66.9959 13.25C66.9839 13.646 66.9779 14 66.9779 14.312C66.8699 14.348 66.7199 14.384 66.5279 14.42C66.3479 14.456 66.1559 14.474 65.9519 14.474C65.9279 13.898 65.8319 13.52 65.6639 13.34C65.5079 13.16 65.3099 13.07 65.0699 13.07C64.8659 13.07 64.6439 13.19 64.4039 13.43C64.1639 13.658 63.9599 13.964 63.7919 14.348C63.6239 14.732 63.5399 15.158 63.5399 15.626V17.354ZM76.4089 17.714C76.4089 18.338 76.4929 18.758 76.6609 18.974C76.8409 19.178 77.1109 19.28 77.4709 19.28C77.5069 19.388 77.5309 19.502 77.5429 19.622C77.5549 19.742 77.5609 19.886 77.5609 20.054C77.2969 20.03 76.9969 20.012 76.6609 20C76.3249 20 75.9709 20 75.5989 20C75.2269 20 74.8429 20.006 74.4469 20.018C74.0629 20.03 73.7329 20.042 73.4569 20.054C73.4569 19.886 73.4629 19.742 73.4749 19.622C73.4869 19.49 73.5109 19.376 73.5469 19.28C73.9789 19.28 74.2909 19.172 74.4829 18.956C74.6869 18.728 74.7889 18.314 74.7889 17.714V14.978C74.7889 14.126 74.6329 13.55 74.3209 13.25C74.0089 12.938 73.6069 12.782 73.1149 12.782C72.8029 12.782 72.4909 12.884 72.1789 13.088C71.8669 13.28 71.6029 13.598 71.3869 14.042C71.1829 14.474 71.0809 15.056 71.0809 15.788V17.714C71.0809 18.314 71.1709 18.728 71.3509 18.956C71.5309 19.172 71.8549 19.28 72.3229 19.28C72.3589 19.388 72.3829 19.502 72.3949 19.622C72.4069 19.742 72.4129 19.886 72.4129 20.054C72.1609 20.042 71.8309 20.03 71.4229 20.018C71.0269 20.006 70.6429 20 70.2709 20C69.8989 20 69.5149 20 69.1189 20C68.7229 20.012 68.3929 20.03 68.1289 20.054C68.1289 19.886 68.1349 19.742 68.1469 19.622C68.1589 19.49 68.1829 19.376 68.2189 19.28C68.6869 19.28 69.0109 19.172 69.1909 18.956C69.3709 18.728 69.4609 18.314 69.4609 17.714V14.15C69.4609 13.73 69.3829 13.418 69.2269 13.214C69.0829 12.998 68.7109 12.884 68.1109 12.872C68.1109 12.596 68.1649 12.374 68.2729 12.206C68.6449 12.182 69.0709 12.11 69.5509 11.99C70.0309 11.87 70.4089 11.738 70.6849 11.594C70.7929 11.63 70.8829 11.708 70.9549 11.828C71.0389 11.936 71.0809 12.122 71.0809 12.386C71.0809 12.53 71.0749 12.692 71.0629 12.872C71.0509 13.052 71.0149 13.244 70.9549 13.448C70.9909 13.388 71.0269 13.322 71.0629 13.25C71.0989 13.166 71.1529 13.076 71.2249 12.98C71.4289 12.704 71.7529 12.422 72.1969 12.134C72.6529 11.834 73.1989 11.684 73.8349 11.684C74.2909 11.684 74.7109 11.78 75.0949 11.972C75.4909 12.152 75.8089 12.458 76.0489 12.89C76.2889 13.31 76.4089 13.886 76.4089 14.618V17.714Z" fill="#333333"/>
</svg>
