<svg width="618" height="222" viewBox="0 0 618 222" fill="none" xmlns="http://www.w3.org/2000/svg">
<path d="M105.233 179.256C108.689 179.256 113.297 178.68 119.057 177.528V216.984C111.953 219.864 102.929 221.304 91.9853 221.304C72.2093 221.304 57.1373 215.736 46.7693 204.6C36.5933 193.464 31.5053 178.008 31.5053 158.232V111H4.14525V72.696H31.5053V39.576L83.6333 22.872V72.696H118.769V111H83.6333V158.232C83.6333 165.144 85.6493 170.424 89.6813 174.072C93.9053 177.528 99.0893 179.256 105.233 179.256ZM388.268 72.696L327.212 219H284.3L254.924 146.424L227.276 219H184.076L123.019 72.696H176.012L208.556 157.08L240.236 72.696H273.644L306.188 158.808L338.156 72.696H388.268ZM401.052 72.696H453.18V219H401.052V72.696ZM454.044 0.983992V47.928H399.612V0.983992H454.044ZM543.342 221.304C514.158 221.304 491.118 215.448 474.222 203.736L487.47 168.312C495.342 173.688 504.27 177.912 514.254 180.984C524.238 183.864 534.03 185.304 543.63 185.304C549.582 185.304 554.19 184.44 557.454 182.712C560.718 180.984 562.35 178.584 562.35 175.512C562.35 172.824 561.102 170.712 558.606 169.176C556.302 167.448 551.79 165.912 545.07 164.568L521.454 159.096C506.478 156.024 495.63 151.224 488.91 144.696C482.382 137.976 479.118 128.76 479.118 117.048C479.118 107.64 481.902 99.288 487.47 91.992C493.038 84.696 500.718 79.032 510.51 75C520.494 70.776 531.918 68.664 544.782 68.664C555.342 68.664 565.71 70.2 575.886 73.272C586.062 76.344 595.566 80.664 604.398 86.232L590.574 120.792C582.894 115.8 575.022 111.96 566.958 109.272C558.894 106.584 551.31 105.24 544.206 105.24C538.446 105.24 533.934 106.2 530.67 108.12C527.406 109.848 525.774 112.44 525.774 115.896C525.774 118.008 526.734 119.736 528.654 121.08C530.574 122.232 534.222 123.48 539.598 124.824L564.078 130.296C579.63 133.944 590.766 139.32 597.486 146.424C604.398 153.336 607.854 162.84 607.854 174.936C607.854 189.336 602.094 200.664 590.574 208.92C579.246 217.176 563.502 221.304 543.342 221.304Z" fill="#5a38fd"/>
</svg>
