<svg width="24" height="24" viewBox="0 0 24 24" fill="none" xmlns="http://www.w3.org/2000/svg">
<g clip-path="url(#clip0)">
<path d="M6 17L15 11.9088L24 17L15 22.0912L6 17Z" fill="#555555"/>
<path d="M6 13L15 7.90883L24 13L15 18.0912L6 13Z" fill="white"/>
<path d="M15 14.9423L8.03101 11L15 7.05774L21.969 11L15 14.9423Z" fill="white" stroke="#AEAEAE" stroke-width="2"/>
<path d="M15 12.9423L8.03101 9L15 5.05774L21.969 9L15 12.9423Z" fill="white" stroke="white" stroke-width="2"/>
<path d="M15 9.94226L8.03101 6L15 2.05774L21.969 6L15 9.94226Z" fill="white" stroke="#AEAEAE" stroke-width="2"/>
<path d="M4 22L4 12" stroke="#555555" stroke-width="2"/>
<path d="M8 20L6 22L4 24L4 20L8 20Z" fill="#555555"/>
<path d="M4 24L2 22L5.8811e-07 20L4 20L4 24Z" fill="#555555"/>
</g>
<defs>
<clipPath id="clip0">
<rect width="24" height="24" fill="white"/>
</clipPath>
</defs>
</svg>
