<svg width="24" height="24" viewBox="0 0 24 24" fill="none" xmlns="http://www.w3.org/2000/svg">
<path d="M12 1.50534L14.1077 3.87693L14.497 4.31496L15.0694 4.18941L18.1686 3.50964L18.4798 6.66719L18.5373 7.25038L19.0742 7.48527L21.981 8.75697L20.3768 11.4944L20.0805 12L20.3768 12.5056L21.981 15.243L19.0742 16.5147L18.5373 16.7496L18.4798 17.3328L18.1686 20.4904L15.0694 19.8106L14.497 19.685L14.1077 20.1231L12 22.4947L9.89227 20.1231L9.50298 19.685L8.93056 19.8106L5.83139 20.4904L5.52019 17.3328L5.46271 16.7496L4.92582 16.5147L2.01899 15.243L3.62318 12.5056L3.91947 12L3.62318 11.4944L2.01899 8.75697L4.92582 7.48527L5.46271 7.25038L5.52019 6.66719L5.83139 3.50964L8.93056 4.18941L9.50298 4.31496L9.89227 3.87693L12 1.50534Z" stroke="white" stroke-width="2"/>
</svg>
