<svg width="20" height="20" viewBox="0 0 20 20" fill="none" xmlns="http://www.w3.org/2000/svg">
<path d="M20 10C20 11.9778 19.4135 13.9112 18.3147 15.5557C17.2159 17.2002 15.6541 18.4819 13.8268 19.2388C11.9996 19.9957 9.98891 20.1937 8.0491 19.8079C6.10929 19.422 4.32746 18.4696 2.92893 17.0711C1.53041 15.6725 0.577999 13.8907 0.192147 11.9509C-0.193705 10.0111 0.00432836 8.00043 0.761205 6.17317C1.51808 4.3459 2.79981 2.78412 4.4443 1.6853C6.08879 0.58649 8.02219 -2.35852e-08 10 0L10 2.90313C8.59637 2.90313 7.22427 3.31936 6.05719 4.09917C4.89012 4.87898 3.98049 5.98736 3.44335 7.28415C2.9062 8.58093 2.76566 10.0079 3.0395 11.3845C3.31333 12.7612 3.98924 14.0257 4.98176 15.0182C5.97427 16.0108 7.23881 16.6867 8.61547 16.9605C9.99213 17.2343 11.4191 17.0938 12.7159 16.5567C14.0126 16.0195 15.121 15.1099 15.9008 13.9428C16.6806 12.7757 17.0969 11.4036 17.0969 10H20Z" fill="white"/>
</svg>
