<svg width="24" height="24" viewBox="0 0 24 24" fill="none" xmlns="http://www.w3.org/2000/svg">
<path fill-rule="evenodd" clip-rule="evenodd" d="M19.286 15.9606C19.2272 15.6362 19.2669 15.3016 19.4 15C19.5268 14.7042 19.7372 14.452 20.0055 14.2743C20.2738 14.0966 20.5882 14.0013 20.91 14H21C21.5304 14 22.0391 13.7893 22.4142 13.4142C22.7893 13.0391 23 12.5304 23 12C23 11.4696 22.7893 10.9609 22.4142 10.5858C22.0391 10.2107 21.5304 10 21 10H20.83C20.5082 9.99872 20.1938 9.90337 19.9255 9.72569C19.6572 9.54802 19.4468 9.29577 19.32 9V8.92C19.1869 8.61838 19.1472 8.28381 19.206 7.95941C19.2648 7.63502 19.4195 7.33568 19.65 7.1L19.71 7.04C19.896 6.85425 20.0435 6.63368 20.1441 6.39088C20.2448 6.14808 20.2966 5.88783 20.2966 5.625C20.2966 5.36217 20.2448 5.10192 20.1441 4.85912C20.0435 4.61632 19.896 4.39575 19.71 4.21C19.5243 4.02405 19.3037 3.87653 19.0609 3.77588C18.8181 3.67523 18.5578 3.62343 18.295 3.62343C18.0322 3.62343 17.7719 3.67523 17.5291 3.77588C17.2863 3.87653 17.0657 4.02405 16.88 4.21L16.82 4.27C16.5843 4.50054 16.285 4.65519 15.9606 4.714C15.6362 4.77282 15.3016 4.73312 15 4.6C14.7042 4.47324 14.452 4.26276 14.2743 3.99447C14.0966 3.72618 14.0013 3.41179 14 3.09V3C14 2.46957 13.7893 1.96086 13.4142 1.58579C13.0391 1.21071 12.5304 1 12 1C11.4696 1 10.9609 1.21071 10.5858 1.58579C10.2107 1.96086 10 2.46957 10 3V3.17C9.99872 3.49179 9.90337 3.80618 9.72569 4.07447C9.54802 4.34276 9.29577 4.55324 9 4.68H8.92C8.61838 4.81312 8.28381 4.85282 7.95941 4.794C7.63502 4.73519 7.33568 4.58054 7.1 4.35L7.04 4.29C6.85425 4.10405 6.63368 3.95653 6.39088 3.85588C6.14808 3.75523 5.88783 3.70343 5.625 3.70343C5.36217 3.70343 5.10192 3.75523 4.85912 3.85588C4.61632 3.95653 4.39575 4.10405 4.21 4.29C4.02405 4.47575 3.87653 4.69632 3.77588 4.93912C3.67523 5.18192 3.62343 5.44217 3.62343 5.705C3.62343 5.96783 3.67523 6.22808 3.77588 6.47088C3.87653 6.71368 4.02405 6.93425 4.21 7.12L4.27 7.18C4.50054 7.41568 4.65519 7.71502 4.714 8.03941C4.77282 8.36381 4.73312 8.69838 4.6 9C4.48572 9.31074 4.28059 9.5799 4.0113 9.77251C3.742 9.96512 3.42099 10.0723 3.09 10.08H3C2.46957 10.08 1.96086 10.2907 1.58579 10.6658C1.21071 11.0409 1 11.5496 1 12.08C1 12.6104 1.21071 13.1191 1.58579 13.4942C1.96086 13.8693 2.46957 14.08 3 14.08H3.17C3.49179 14.0813 3.80618 14.1766 4.07447 14.3543C4.34276 14.532 4.55324 14.7842 4.68 15.08C4.81312 15.3816 4.85282 15.7162 4.794 16.0406C4.73519 16.365 4.58054 16.6643 4.35 16.9L4.29 16.96C4.10405 17.1457 3.95653 17.3663 3.85588 17.6091C3.75523 17.8519 3.70343 18.1122 3.70343 18.375C3.70343 18.6378 3.75523 18.8981 3.85588 19.1409C3.95653 19.3837 4.10405 19.6043 4.29 19.79C4.47575 19.976 4.69632 20.1235 4.93912 20.2241C5.18192 20.3248 5.44217 20.3766 5.705 20.3766C5.96783 20.3766 6.22808 20.3248 6.47088 20.2241C6.71368 20.1235 6.93425 19.976 7.12 19.79L7.18 19.73C7.41568 19.4995 7.71502 19.3448 8.03941 19.286C8.36381 19.2272 8.69838 19.2669 9 19.4C9.31074 19.5143 9.5799 19.7194 9.77251 19.9887C9.96512 20.258 10.0723 20.579 10.08 20.91V21C10.08 21.5304 10.2907 22.0391 10.6658 22.4142C11.0409 22.7893 11.5496 23 12.08 23C12.6104 23 13.1191 22.7893 13.4942 22.4142C13.8693 22.0391 14.08 21.5304 14.08 21V20.83C14.0813 20.5082 14.1766 20.1938 14.3543 19.9255C14.532 19.6572 14.7842 19.4468 15.08 19.32C15.3816 19.1869 15.7162 19.1472 16.0406 19.206C16.365 19.2648 16.6643 19.4195 16.9 19.65L16.96 19.71C17.1457 19.896 17.3663 20.0435 17.6091 20.1441C17.8519 20.2448 18.1122 20.2966 18.375 20.2966C18.6378 20.2966 18.8981 20.2448 19.1409 20.1441C19.3837 20.0435 19.6043 19.896 19.79 19.71C19.976 19.5243 20.1235 19.3037 20.2241 19.0609C20.3248 18.8181 20.3766 18.5578 20.3766 18.295C20.3766 18.0322 20.3248 17.7719 20.2241 17.5291C20.1235 17.2863 19.976 17.0657 19.79 16.88L19.73 16.82C19.4995 16.5843 19.3448 16.285 19.286 15.9606ZM15 12C15 13.6569 13.6569 15 12 15C10.3431 15 9 13.6569 9 12C9 10.3431 10.3431 9 12 9C13.6569 9 15 10.3431 15 12Z" fill="#A30FBB"/>
<path d="M19.4 15L19.8575 15.2019L19.8596 15.197L19.4 15ZM20.91 14L20.91 13.5L20.908 13.5L20.91 14ZM20.83 10L20.828 10.5H20.83V10ZM19.32 9H18.82C18.82 9.06772 18.8338 9.13473 18.8604 9.19697L19.32 9ZM19.32 8.92H19.82C19.82 8.85048 19.8055 8.78172 19.7774 8.71812L19.32 8.92ZM19.65 7.1L19.2964 6.74643L19.2926 6.75037L19.65 7.1ZM19.71 7.04L19.3566 6.68625L19.3564 6.68645L19.71 7.04ZM20.1441 4.85912L19.6822 5.05059L19.6822 5.05059L20.1441 4.85912ZM19.71 4.21L19.3562 4.56336L19.3566 4.56375L19.71 4.21ZM16.88 4.21L17.2336 4.56355L17.2338 4.56336L16.88 4.21ZM16.82 4.27L17.1697 4.62745L17.1736 4.62355L16.82 4.27ZM15 4.6L15.2019 4.14254L15.197 4.14043L15 4.6ZM14 3.09L13.5 3.09L13.5 3.09199L14 3.09ZM13.4142 1.58579L13.0607 1.93934L13.0607 1.93934L13.4142 1.58579ZM10.5858 1.58579L10.9393 1.93934L10.9393 1.93934L10.5858 1.58579ZM10 3.17L10.5 3.17199V3.17H10ZM9 4.68V5.18C9.06772 5.18 9.13473 5.16625 9.19697 5.13957L9 4.68ZM8.92 4.68V4.18C8.85048 4.18 8.78172 4.1945 8.71812 4.22257L8.92 4.68ZM7.1 4.35L6.74643 4.70357L6.75037 4.70743L7.1 4.35ZM7.04 4.29L6.68625 4.64336L6.68645 4.64355L7.04 4.29ZM4.85912 3.85588L5.05059 4.31777L5.05059 4.31777L4.85912 3.85588ZM4.21 4.29L4.56336 4.64375L4.56375 4.64336L4.21 4.29ZM3.77588 4.93912L4.23777 5.13059L4.23777 5.13059L3.77588 4.93912ZM4.21 7.12L4.56355 6.76645L4.56336 6.76625L4.21 7.12ZM4.27 7.18L4.62745 6.83035L4.62355 6.82645L4.27 7.18ZM4.6 9L4.14257 8.79812C4.13832 8.80775 4.13437 8.81752 4.13073 8.82741L4.6 9ZM3.09 10.08L3.09 10.5801L3.10169 10.5799L3.09 10.08ZM1.58579 10.6658L1.93934 11.0193L1.93934 11.0193L1.58579 10.6658ZM1.58579 13.4942L1.93934 13.1407L1.93934 13.1407L1.58579 13.4942ZM3.17 14.08L3.17199 13.58H3.17V14.08ZM4.68 15.08L4.2204 15.277L4.22257 15.2819L4.68 15.08ZM4.35 16.9L4.70357 17.2536L4.70743 17.2496L4.35 16.9ZM4.29 16.96L4.64336 17.3137L4.64355 17.3136L4.29 16.96ZM4.29 19.79L4.64375 19.4366L4.64336 19.4363L4.29 19.79ZM4.93912 20.2241L5.13059 19.7622L5.13059 19.7622L4.93912 20.2241ZM7.12 19.79L6.76644 19.4365L6.76625 19.4366L7.12 19.79ZM7.18 19.73L6.83035 19.3725L6.82644 19.3765L7.18 19.73ZM9 19.4L8.79812 19.8574C8.80775 19.8617 8.81752 19.8656 8.82741 19.8693L9 19.4ZM10.08 20.91H10.5801L10.5799 20.8983L10.08 20.91ZM14.08 20.83L13.58 20.828V20.83H14.08ZM15.08 19.32L15.277 19.7796L15.2819 19.7774L15.08 19.32ZM16.9 19.65L17.2536 19.2964L17.2496 19.2926L16.9 19.65ZM16.96 19.71L17.3138 19.3566L17.3136 19.3564L16.96 19.71ZM19.79 19.71L19.4366 19.3562L19.4362 19.3566L19.79 19.71ZM19.79 16.88L19.4365 17.2336L19.4366 17.2338L19.79 16.88ZM19.73 16.82L19.3725 17.1697L19.3765 17.1736L19.73 16.82ZM18.9426 14.7981C18.7691 15.1911 18.7174 15.6271 18.794 16.0498L19.778 15.8714C19.737 15.6453 19.7647 15.4121 19.8574 15.2019L18.9426 14.7981ZM19.7295 13.8574C19.3799 14.089 19.1056 14.4176 18.9404 14.803L19.8596 15.197C19.9479 14.9908 20.0946 14.815 20.2816 14.6912L19.7295 13.8574ZM20.908 13.5C20.4887 13.5017 20.079 13.6259 19.7295 13.8574L20.2816 14.6912C20.4686 14.5673 20.6877 14.5009 20.912 14.5L20.908 13.5ZM21 13.5H20.91V14.5H21V13.5ZM22.0607 13.0607C21.7794 13.342 21.3978 13.5 21 13.5V14.5C21.663 14.5 22.2989 14.2366 22.7678 13.7678L22.0607 13.0607ZM22.5 12C22.5 12.3978 22.342 12.7794 22.0607 13.0607L22.7678 13.7678C23.2366 13.2989 23.5 12.663 23.5 12H22.5ZM22.0607 10.9393C22.342 11.2206 22.5 11.6022 22.5 12H23.5C23.5 11.337 23.2366 10.7011 22.7678 10.2322L22.0607 10.9393ZM21 10.5C21.3978 10.5 21.7794 10.658 22.0607 10.9393L22.7678 10.2322C22.2989 9.76339 21.663 9.5 21 9.5V10.5ZM20.83 10.5H21V9.5H20.83V10.5ZM19.6495 10.1426C19.999 10.3741 20.4087 10.4983 20.828 10.5L20.832 9.5C20.6077 9.49911 20.3886 9.43265 20.2016 9.30882L19.6495 10.1426ZM18.8604 9.19697C19.0256 9.58236 19.2999 9.91105 19.6495 10.1426L20.2016 9.30882C20.0146 9.18499 19.8679 9.00917 19.7796 8.80303L18.8604 9.19697ZM18.82 8.92V9H19.82V8.92H18.82ZM18.714 7.87021C18.6374 8.2929 18.6891 8.72887 18.8626 9.12188L19.7774 8.71812C19.6847 8.5079 19.657 8.27471 19.698 8.04862L18.714 7.87021ZM19.2926 6.75037C18.9922 7.05746 18.7907 7.44751 18.714 7.87021L19.698 8.04862C19.739 7.82252 19.8468 7.61389 20.0074 7.44963L19.2926 6.75037ZM19.3564 6.68645L19.2964 6.74645L20.0036 7.45355L20.0636 7.39355L19.3564 6.68645ZM19.6822 6.19941C19.6067 6.38151 19.4961 6.54694 19.3566 6.68625L20.0634 7.39375C20.2958 7.16157 20.4802 6.88585 20.606 6.58235L19.6822 6.19941ZM19.7966 5.625C19.7966 5.82212 19.7577 6.01731 19.6822 6.19941L20.606 6.58235C20.7318 6.27886 20.7966 5.95354 20.7966 5.625H19.7966ZM19.6822 5.05059C19.7577 5.23269 19.7966 5.42788 19.7966 5.625H20.7966C20.7966 5.29646 20.7318 4.97114 20.606 4.66765L19.6822 5.05059ZM19.3566 4.56375C19.4961 4.70306 19.6067 4.86849 19.6822 5.05059L20.606 4.66765C20.4802 4.36415 20.2958 4.08843 20.0634 3.85625L19.3566 4.56375ZM18.8694 4.23777C19.0515 4.31325 19.2169 4.42389 19.3562 4.56336L20.0637 3.85664C19.8316 3.6242 19.5558 3.4398 19.2524 3.31399L18.8694 4.23777ZM18.295 4.12343C18.4921 4.12343 18.6873 4.16228 18.8694 4.23777L19.2524 3.31399C18.9489 3.18818 18.6235 3.12343 18.295 3.12343V4.12343ZM17.7206 4.23777C17.9027 4.16228 18.0979 4.12343 18.295 4.12343V3.12343C17.9665 3.12343 17.6411 3.18818 17.3376 3.31399L17.7206 4.23777ZM17.2338 4.56336C17.3731 4.42389 17.5385 4.31325 17.7206 4.23777L17.3376 3.31399C17.0342 3.4398 16.7584 3.6242 16.5262 3.85664L17.2338 4.56336ZM17.1736 4.62355L17.2336 4.56355L16.5264 3.85645L16.4664 3.91645L17.1736 4.62355ZM16.0498 5.20598C16.4725 5.12934 16.8625 4.92783 17.1696 4.62743L16.4704 3.91257C16.3061 4.07325 16.0975 4.18103 15.8714 4.22203L16.0498 5.20598ZM14.7981 5.05743C15.1911 5.23088 15.6271 5.28263 16.0498 5.20598L15.8714 4.22203C15.6453 4.26302 15.4121 4.23535 15.2019 4.14257L14.7981 5.05743ZM13.8574 4.27054C14.089 4.62013 14.4176 4.89439 14.803 5.05957L15.197 4.14043C14.9908 4.05208 14.815 3.90538 14.6912 3.71839L13.8574 4.27054ZM13.5 3.09199C13.5017 3.51129 13.6259 3.92095 13.8574 4.27054L14.6912 3.71839C14.5673 3.5314 14.5009 3.31228 14.5 3.08801L13.5 3.09199ZM13.5 3V3.09H14.5V3H13.5ZM13.0607 1.93934C13.342 2.22064 13.5 2.60218 13.5 3H14.5C14.5 2.33696 14.2366 1.70107 13.7678 1.23223L13.0607 1.93934ZM12 1.5C12.3978 1.5 12.7794 1.65804 13.0607 1.93934L13.7678 1.23223C13.2989 0.763392 12.663 0.5 12 0.5V1.5ZM10.9393 1.93934C11.2206 1.65804 11.6022 1.5 12 1.5V0.5C11.337 0.5 10.7011 0.763392 10.2322 1.23223L10.9393 1.93934ZM10.5 3C10.5 2.60218 10.658 2.22064 10.9393 1.93934L10.2322 1.23223C9.76339 1.70107 9.5 2.33696 9.5 3H10.5ZM10.5 3.17V3H9.5V3.17H10.5ZM10.1426 4.35054C10.3741 4.00095 10.4983 3.59129 10.5 3.17199L9.5 3.16801C9.49911 3.39228 9.43265 3.6114 9.30882 3.79839L10.1426 4.35054ZM9.19697 5.13957C9.58236 4.97439 9.91105 4.70013 10.1426 4.35054L9.30882 3.79839C9.18499 3.98538 9.00918 4.13208 8.80303 4.22043L9.19697 5.13957ZM8.92 5.18H9V4.18H8.92V5.18ZM7.87021 5.28598C8.2929 5.36263 8.72887 5.31088 9.12188 5.13743L8.71812 4.22257C8.5079 4.31535 8.27471 4.34302 8.04862 4.30203L7.87021 5.28598ZM6.75037 4.70743C7.05746 5.00783 7.44751 5.20934 7.87021 5.28598L8.04862 4.30203C7.82252 4.26103 7.61389 4.15325 7.44963 3.99257L6.75037 4.70743ZM6.68645 4.64355L6.74645 4.70355L7.45355 3.99645L7.39355 3.93645L6.68645 4.64355ZM6.19941 4.31777C6.38151 4.39325 6.54694 4.50389 6.68625 4.64336L7.39375 3.93664C7.16157 3.7042 6.88585 3.5198 6.58235 3.39399L6.19941 4.31777ZM5.625 4.20343C5.82212 4.20343 6.01731 4.24228 6.19941 4.31777L6.58235 3.39399C6.27886 3.26818 5.95354 3.20343 5.625 3.20343V4.20343ZM5.05059 4.31777C5.23269 4.24228 5.42788 4.20343 5.625 4.20343V3.20343C5.29646 3.20343 4.97114 3.26818 4.66765 3.39399L5.05059 4.31777ZM4.56375 4.64336C4.70306 4.50389 4.86849 4.39325 5.05059 4.31777L4.66765 3.39399C4.36415 3.5198 4.08843 3.7042 3.85625 3.93664L4.56375 4.64336ZM4.23777 5.13059C4.31325 4.94849 4.42389 4.78306 4.56336 4.64375L3.85664 3.93625C3.6242 4.16843 3.4398 4.44415 3.31399 4.74765L4.23777 5.13059ZM4.12343 5.705C4.12343 5.50788 4.16228 5.31269 4.23777 5.13059L3.31399 4.74765C3.18818 5.05114 3.12343 5.37646 3.12343 5.705H4.12343ZM4.23777 6.27941C4.16228 6.09731 4.12343 5.90212 4.12343 5.705H3.12343C3.12343 6.03354 3.18818 6.35886 3.31399 6.66235L4.23777 6.27941ZM4.56336 6.76625C4.42389 6.62694 4.31325 6.46151 4.23777 6.27941L3.31399 6.66235C3.4398 6.96585 3.6242 7.24157 3.85664 7.47375L4.56336 6.76625ZM4.62355 6.82645L4.56355 6.76645L3.85645 7.47355L3.91645 7.53355L4.62355 6.82645ZM5.20598 7.95021C5.12934 7.52751 4.92783 7.13746 4.62743 6.83037L3.91257 7.52963C4.07325 7.69389 4.18103 7.90252 4.22203 8.12862L5.20598 7.95021ZM5.05743 9.20188C5.23088 8.80887 5.28263 8.3729 5.20598 7.95021L4.22203 8.12862C4.26302 8.35471 4.23535 8.5879 4.14257 8.79812L5.05743 9.20188ZM4.30217 10.1792C4.65307 9.92822 4.92035 9.57749 5.06927 9.17259L4.13073 8.82741C4.05108 9.04398 3.90812 9.23158 3.72043 9.36583L4.30217 10.1792ZM3.10169 10.5799C3.53299 10.5698 3.95127 10.4302 4.30217 10.1792L3.72043 9.36583C3.53274 9.50007 3.309 9.57474 3.07831 9.58014L3.10169 10.5799ZM3 10.58H3.09V9.58H3V10.58ZM1.93934 11.0193C2.22064 10.738 2.60218 10.58 3 10.58V9.58C2.33696 9.58 1.70107 9.84339 1.23223 10.3122L1.93934 11.0193ZM1.5 12.08C1.5 11.6822 1.65804 11.3006 1.93934 11.0193L1.23223 10.3122C0.763392 10.7811 0.5 11.417 0.5 12.08H1.5ZM1.93934 13.1407C1.65804 12.8594 1.5 12.4778 1.5 12.08H0.5C0.5 12.743 0.763392 13.3789 1.23223 13.8478L1.93934 13.1407ZM3 13.58C2.60218 13.58 2.22064 13.422 1.93934 13.1407L1.23223 13.8478C1.70107 14.3166 2.33696 14.58 3 14.58V13.58ZM3.17 13.58H3V14.58H3.17V13.58ZM4.35054 13.9374C4.00095 13.7059 3.59129 13.5817 3.17199 13.58L3.16801 14.58C3.39228 14.5809 3.6114 14.6473 3.79839 14.7712L4.35054 13.9374ZM5.13957 14.883C4.97439 14.4976 4.70013 14.169 4.35054 13.9374L3.79839 14.7712C3.98538 14.895 4.13208 15.0708 4.22043 15.277L5.13957 14.883ZM5.28598 16.1298C5.36263 15.7071 5.31088 15.2711 5.13743 14.8781L4.22257 15.2819C4.31535 15.4921 4.34302 15.7253 4.30203 15.9514L5.28598 16.1298ZM4.70743 17.2496C5.00783 16.9425 5.20934 16.5525 5.28598 16.1298L4.30203 15.9514C4.26103 16.1775 4.15325 16.3861 3.99257 16.5504L4.70743 17.2496ZM4.64355 17.3136L4.70355 17.2536L3.99645 16.5464L3.93645 16.6064L4.64355 17.3136ZM4.31777 17.8006C4.39325 17.6185 4.50389 17.4531 4.64336 17.3137L3.93664 16.6062C3.7042 16.8384 3.5198 17.1142 3.39399 17.4176L4.31777 17.8006ZM4.20343 18.375C4.20343 18.1779 4.24228 17.9827 4.31777 17.8006L3.39399 17.4176C3.26818 17.7211 3.20343 18.0465 3.20343 18.375H4.20343ZM4.31777 18.9494C4.24228 18.7673 4.20343 18.5721 4.20343 18.375H3.20343C3.20343 18.7035 3.26818 19.0289 3.39399 19.3324L4.31777 18.9494ZM4.64336 19.4363C4.50389 19.2969 4.39325 19.1315 4.31777 18.9494L3.39399 19.3324C3.5198 19.6358 3.7042 19.9116 3.93664 20.1438L4.64336 19.4363ZM5.13059 19.7622C4.94849 19.6867 4.78306 19.5761 4.64375 19.4366L3.93625 20.1434C4.16843 20.3758 4.44416 20.5602 4.74765 20.686L5.13059 19.7622ZM5.705 19.8766C5.50788 19.8766 5.31269 19.8377 5.13059 19.7622L4.74765 20.686C5.05114 20.8118 5.37646 20.8766 5.705 20.8766V19.8766ZM6.27941 19.7622C6.09731 19.8377 5.90212 19.8766 5.705 19.8766V20.8766C6.03354 20.8766 6.35886 20.8118 6.66235 20.686L6.27941 19.7622ZM6.76625 19.4366C6.62694 19.5761 6.46151 19.6867 6.27941 19.7622L6.66235 20.686C6.96584 20.5602 7.24157 20.3758 7.47375 20.1434L6.76625 19.4366ZM6.82644 19.3765L6.76644 19.4365L7.47356 20.1436L7.53356 20.0835L6.82644 19.3765ZM7.95021 18.794C7.52751 18.8707 7.13747 19.0722 6.83037 19.3726L7.52963 20.0874C7.69389 19.9268 7.90252 19.819 8.12862 19.778L7.95021 18.794ZM9.20188 18.9426C8.80887 18.7691 8.3729 18.7174 7.95021 18.794L8.12862 19.778C8.35471 19.737 8.5879 19.7647 8.79812 19.8574L9.20188 18.9426ZM10.1792 19.6978C9.92822 19.3469 9.57749 19.0796 9.17259 18.9307L8.82741 19.8693C9.04398 19.9489 9.23158 20.0919 9.36583 20.2796L10.1792 19.6978ZM10.5799 20.8983C10.5698 20.467 10.4302 20.0487 10.1792 19.6978L9.36583 20.2796C9.50007 20.4673 9.57474 20.691 9.58014 20.9217L10.5799 20.8983ZM10.58 21V20.91H9.58V21H10.58ZM11.0193 22.0607C10.738 21.7794 10.58 21.3978 10.58 21H9.58C9.58 21.663 9.84339 22.2989 10.3122 22.7678L11.0193 22.0607ZM12.08 22.5C11.6822 22.5 11.3006 22.342 11.0193 22.0607L10.3122 22.7678C10.7811 23.2366 11.417 23.5 12.08 23.5V22.5ZM13.1407 22.0607C12.8594 22.342 12.4778 22.5 12.08 22.5V23.5C12.743 23.5 13.3789 23.2366 13.8478 22.7678L13.1407 22.0607ZM13.58 21C13.58 21.3978 13.422 21.7794 13.1407 22.0607L13.8478 22.7678C14.3166 22.2989 14.58 21.663 14.58 21H13.58ZM13.58 20.83V21H14.58V20.83H13.58ZM13.9374 19.6495C13.7059 19.999 13.5817 20.4087 13.58 20.828L14.58 20.832C14.5809 20.6077 14.6473 20.3886 14.7712 20.2016L13.9374 19.6495ZM14.883 18.8604C14.4976 19.0256 14.169 19.2999 13.9374 19.6495L14.7712 20.2016C14.895 20.0146 15.0708 19.8679 15.277 19.7796L14.883 18.8604ZM16.1298 18.714C15.7071 18.6374 15.2711 18.6891 14.8781 18.8626L15.2819 19.7774C15.4921 19.6847 15.7253 19.657 15.9514 19.698L16.1298 18.714ZM17.2496 19.2926C16.9425 18.9922 16.5525 18.7907 16.1298 18.714L15.9514 19.698C16.1775 19.739 16.3861 19.8468 16.5504 20.0074L17.2496 19.2926ZM17.3136 19.3564L17.2536 19.2964L16.5464 20.0036L16.6064 20.0636L17.3136 19.3564ZM17.8006 19.6822C17.6185 19.6067 17.4531 19.4961 17.3138 19.3566L16.6062 20.0634C16.8384 20.2958 17.1142 20.4802 17.4176 20.606L17.8006 19.6822ZM18.375 19.7966C18.1779 19.7966 17.9827 19.7577 17.8006 19.6822L17.4176 20.606C17.7211 20.7318 18.0465 20.7966 18.375 20.7966V19.7966ZM18.9494 19.6822C18.7673 19.7577 18.5721 19.7966 18.375 19.7966V20.7966C18.7035 20.7966 19.0289 20.7318 19.3324 20.606L18.9494 19.6822ZM19.4362 19.3566C19.2969 19.4961 19.1315 19.6067 18.9494 19.6822L19.3324 20.606C19.6358 20.4802 19.9116 20.2958 20.1438 20.0634L19.4362 19.3566ZM19.7622 18.8694C19.6867 19.0515 19.5761 19.2169 19.4366 19.3562L20.1434 20.0638C20.3758 19.8316 20.5602 19.5558 20.686 19.2524L19.7622 18.8694ZM19.8766 18.295C19.8766 18.4921 19.8377 18.6873 19.7622 18.8694L20.686 19.2524C20.8118 18.9489 20.8766 18.6235 20.8766 18.295H19.8766ZM19.7622 17.7206C19.8377 17.9027 19.8766 18.0979 19.8766 18.295H20.8766C20.8766 17.9665 20.8118 17.6411 20.686 17.3376L19.7622 17.7206ZM19.4366 17.2338C19.5761 17.3731 19.6867 17.5385 19.7622 17.7206L20.686 17.3376C20.5602 17.0342 20.3758 16.7584 20.1434 16.5262L19.4366 17.2338ZM19.3765 17.1736L19.4365 17.2336L20.1435 16.5264L20.0835 16.4664L19.3765 17.1736ZM18.794 16.0498C18.8707 16.4725 19.0722 16.8625 19.3726 17.1696L20.0874 16.4704C19.9268 16.3061 19.819 16.0975 19.778 15.8714L18.794 16.0498ZM12 15.5C13.933 15.5 15.5 13.933 15.5 12H14.5C14.5 13.3807 13.3807 14.5 12 14.5V15.5ZM8.5 12C8.5 13.933 10.067 15.5 12 15.5V14.5C10.6193 14.5 9.5 13.3807 9.5 12H8.5ZM12 8.5C10.067 8.5 8.5 10.067 8.5 12H9.5C9.5 10.6193 10.6193 9.5 12 9.5V8.5ZM15.5 12C15.5 10.067 13.933 8.5 12 8.5V9.5C13.3807 9.5 14.5 10.6193 14.5 12H15.5Z" fill="#A30FBB"/>
</svg>
