<svg width="24" height="24" viewBox="0 0 24 24" fill="none" xmlns="http://www.w3.org/2000/svg">
<path d="M12 22C17.5228 22 22 17.5228 22 12C22 6.47715 17.5228 2 12 2C6.47715 2 2 6.47715 2 12C2 17.5228 6.47715 22 12 22Z" fill="#A30FBB" stroke="#A30FBB" stroke-linecap="round" stroke-linejoin="round"/>
<path fill-rule="evenodd" clip-rule="evenodd" d="M10.6533 7.84021C11.1623 7.54106 11.7607 7.43171 12.3426 7.53152C12.9245 7.63133 13.4523 7.93386 13.8326 8.38553C14.2128 8.8372 14.4209 9.40886 14.42 9.99926L14.42 10C14.42 10.7346 13.8625 11.3541 13.1427 11.834C12.798 12.0638 12.4497 12.2382 12.1857 12.3556C12.0544 12.414 11.9456 12.4574 11.8709 12.4859C11.8336 12.5001 11.8049 12.5105 11.7862 12.5172L11.7659 12.5243L11.7619 12.5257L11.7614 12.5258C11.4998 12.6133 11.3584 12.8963 11.4457 13.1581C11.533 13.4201 11.8161 13.5617 12.0781 13.4743L11.92 13C12.0781 13.4743 12.0783 13.4743 12.0784 13.4742L12.0788 13.4741L12.0798 13.4738L12.0825 13.4729L12.0913 13.4699L12.1212 13.4594C12.1465 13.4504 12.1822 13.4374 12.2269 13.4204C12.3162 13.3863 12.4419 13.3361 12.5918 13.2694C12.8903 13.1368 13.292 12.9362 13.6974 12.666C14.4775 12.146 15.4198 11.2656 15.42 10.0004L15.42 10.0008L14.92 10H15.42V10.0004C15.4212 9.174 15.1298 8.37379 14.5976 7.74153C14.0653 7.1092 13.3264 6.68565 12.5117 6.54591C11.697 6.40618 10.8592 6.55927 10.1466 6.97807C9.43401 7.39688 8.89262 8.05436 8.61833 8.83408C8.5267 9.09458 8.66358 9.38004 8.92408 9.47167C9.18457 9.56331 9.47003 9.42642 9.56167 9.16593C9.75759 8.60898 10.1443 8.13935 10.6533 7.84021ZM12 16.5C11.7239 16.5 11.5 16.7239 11.5 17C11.5 17.2761 11.7239 17.5 12 17.5H12.01C12.2861 17.5 12.51 17.2761 12.51 17C12.51 16.7239 12.2861 16.5 12.01 16.5H12Z" fill="white"/>
</svg>
