<svg width="24" height="24" viewBox="0 0 24 24" fill="none" xmlns="http://www.w3.org/2000/svg">
<path fill-rule="evenodd" clip-rule="evenodd" d="M12.326 1.62091C12.1386 1.4597 11.8614 1.4597 11.674 1.62091L1.67398 10.2209C1.46461 10.401 1.44085 10.7167 1.62091 10.926C1.80096 11.1354 2.11665 11.1591 2.32602 10.9791L3.5 9.96947V20C3.5 20.663 3.76339 21.2989 4.23223 21.7678C4.70107 22.2366 5.33696 22.5 6 22.5H9C9.27614 22.5 9.5 22.2761 9.5 22V12.5H14.5V22C14.5 22.2761 14.7239 22.5 15 22.5H18C18.663 22.5 19.2989 22.2366 19.7678 21.7678C20.2366 21.2989 20.5 20.663 20.5 20V9.96947L21.674 10.9791C21.8833 11.1591 22.199 11.1354 22.3791 10.926C22.5592 10.7167 22.5354 10.401 22.326 10.2209L12.326 1.62091ZM19.5 9.10947L12 2.65947L4.5 9.10947V20C4.5 20.3978 4.65804 20.7794 4.93934 21.0607C5.22065 21.342 5.60218 21.5 6 21.5H8.5V12C8.5 11.7239 8.72386 11.5 9 11.5H15C15.2761 11.5 15.5 11.7239 15.5 12V21.5H18C18.3978 21.5 18.7794 21.342 19.0607 21.0607C19.342 20.7794 19.5 20.3978 19.5 20V9.10947Z" fill="#A30FBB"/>
<path d="M4 21V9L12 2.5L20 9V21L18 22H15V12H9V22H7L4 21Z" fill="#A30FBB"/>
</svg>
