<svg width="24" height="24" viewBox="0 0 24 24" fill="none" xmlns="http://www.w3.org/2000/svg">
<path d="M12 22C17.5228 22 22 17.5228 22 12C22 6.47715 17.5228 2 12 2C6.47715 2 2 6.47715 2 12C2 17.5228 6.47715 22 12 22Z" fill="#5a38fd" stroke="#5a38fd" stroke-linecap="round" stroke-linejoin="round"/>
<path fill-rule="evenodd" clip-rule="evenodd" d="M9.5 8.5C9.5 7.78556 9.79835 7.28208 10.2377 6.95227C10.6911 6.61185 11.3207 6.44001 11.9752 6.47246C12.6283 6.50483 13.264 6.73866 13.7291 7.15481C14.1842 7.56209 14.5 8.1641 14.5 9C14.5 9.65795 14.3385 10.0486 14.1312 10.325C13.9095 10.6207 13.6084 10.8268 13.2227 11.084L13.1979 11.1005C12.8382 11.3402 12.4018 11.6309 12.0688 12.075C11.7135 12.5486 11.5 13.1579 11.5 14H12.5C12.5 13.3421 12.6615 12.9514 12.8688 12.675C13.0905 12.3793 13.3916 12.1732 13.7773 11.916L13.8021 11.8995C14.1618 11.6598 14.5982 11.3691 14.9313 10.925C15.2865 10.4514 15.5 9.84205 15.5 9C15.5 7.88334 15.0658 7.00906 14.3959 6.40961C13.736 5.81903 12.8717 5.51568 12.0248 5.47369C11.1793 5.43178 10.3089 5.6484 9.63732 6.15254C8.95165 6.66728 8.5 7.46445 8.5 8.5H9.5ZM12 16.5C11.7239 16.5 11.5 16.7239 11.5 17C11.5 17.2761 11.7239 17.5 12 17.5H12.01C12.2861 17.5 12.51 17.2761 12.51 17C12.51 16.7239 12.2861 16.5 12.01 16.5H12Z" fill="white"/>
<path d="M10.2377 6.95227L10.5379 7.35213L10.2377 6.95227ZM9.5 8.5V9C9.77614 9 10 8.77614 10 8.5H9.5ZM11.9752 6.47246L12 5.97308L12 5.97308L11.9752 6.47246ZM13.7291 7.15481L14.0625 6.78221L13.7291 7.15481ZM14.1312 10.325L13.7313 10.025L13.7312 10.025L14.1312 10.325ZM13.2227 11.084L13.4999 11.5L13.5 11.5L13.2227 11.084ZM13.1979 11.1005L13.4751 11.5166L13.4752 11.5166L13.1979 11.1005ZM12.0688 12.075L12.4688 12.375L12.4688 12.375L12.0688 12.075ZM11.5 14H11C11 14.2761 11.2239 14.5 11.5 14.5V14ZM12.5 14V14.5C12.7761 14.5 13 14.2761 13 14H12.5ZM12.8688 12.675L12.4688 12.375L12.4688 12.375L12.8688 12.675ZM13.7773 11.916L13.5001 11.5L13.5 11.5L13.7773 11.916ZM13.8021 11.8995L13.5249 11.4834L13.5248 11.4834L13.8021 11.8995ZM14.9313 10.925L15.3312 11.225L15.3313 11.225L14.9313 10.925ZM14.3959 6.40961L14.7294 6.03702L14.7294 6.03702L14.3959 6.40961ZM12.0248 5.47369L12.0495 4.9743L12.0248 5.47369ZM9.63732 6.15254L9.33713 5.75268L9.33713 5.75268L9.63732 6.15254ZM8.5 8.5H8C8 8.77614 8.22386 9 8.5 9V8.5ZM9.9375 6.5524C9.37494 6.97473 9 7.62508 9 8.5H10C10 7.94604 10.2218 7.58943 10.5379 7.35213L9.9375 6.5524ZM12 5.97308C11.2498 5.93589 10.4999 6.13022 9.9375 6.5524L10.5379 7.35213C10.8824 7.09349 11.3915 6.94414 11.9505 6.97185L12 5.97308ZM14.0625 6.78221C13.5001 6.27892 12.7501 6.01026 12 5.97308L11.9505 6.97185C12.5064 6.99941 13.028 7.19839 13.3956 7.5274L14.0625 6.78221ZM15 9C15 8.02369 14.625 7.28556 14.0625 6.78221L13.3956 7.5274C13.7434 7.83862 14 8.3045 14 9H15ZM14.5312 10.625C14.8124 10.2501 15 9.75015 15 9H14C14 9.56575 13.8646 9.84714 13.7313 10.025L14.5312 10.625ZM13.5 11.5C13.8739 11.2507 14.2497 11.0004 14.5312 10.625L13.7312 10.025C13.5692 10.241 13.3429 10.4029 12.9453 10.6679L13.5 11.5ZM13.4752 11.5166L13.4999 11.5L12.9454 10.6679L12.9206 10.6844L13.4752 11.5166ZM12.4688 12.375C12.7434 12.0088 13.109 11.7606 13.4751 11.5166L12.9206 10.6844C12.5674 10.9198 12.0602 11.2531 11.6688 11.775L12.4688 12.375ZM12 14C12 13.2499 12.1876 12.7499 12.4688 12.375L11.6688 11.775C11.2395 12.3473 11 13.066 11 14H12ZM12.5 13.5H11.5V14.5H12.5V13.5ZM12.4688 12.375C12.1876 12.7499 12 13.2498 12 14H13C13 13.4343 13.1354 13.1529 13.2688 12.975L12.4688 12.375ZM13.5 11.5C13.1261 11.7493 12.7503 11.9996 12.4688 12.375L13.2688 12.975C13.4308 12.759 13.6571 12.5971 14.0547 12.332L13.5 11.5ZM13.5248 11.4834L13.5001 11.5L14.0546 12.3321L14.0794 12.3156L13.5248 11.4834ZM14.5313 10.625C14.2566 10.9912 13.891 11.2394 13.5249 11.4834L14.0794 12.3156C14.4326 12.0802 14.9398 11.7469 15.3312 11.225L14.5313 10.625ZM15 9C15 9.7501 14.8124 10.2501 14.5312 10.625L15.3313 11.225C15.7605 10.6527 16 9.934 16 9H15ZM14.0625 6.78221C14.625 7.28556 15 8.0237 15 9H16C16 7.74298 15.5066 6.73257 14.7294 6.03702L14.0625 6.78221ZM12 5.97308C12.7501 6.01026 13.5001 6.2789 14.0625 6.78221L14.7294 6.03702C13.9719 5.35916 12.9934 5.02109 12.0495 4.9743L12 5.97308ZM9.9375 6.5524C10.4999 6.13019 11.2499 5.93589 12 5.97308L12.0495 4.9743C11.1088 4.92767 10.1178 5.16661 9.33713 5.75268L9.9375 6.5524ZM9 8.5C9 7.62505 9.37496 6.97471 9.9375 6.5524L9.33713 5.75268C8.52834 6.35985 8 7.30384 8 8.5H9ZM9.5 8H8.5V9H9.5V8ZM12 17V16C11.4477 16 11 16.4477 11 17H12ZM12 17H11C11 17.5523 11.4477 18 12 18V17ZM12.01 17H12V18H12.01V17ZM12.01 17H12.01V18C12.5623 18 13.01 17.5523 13.01 17H12.01ZM12.01 17H12.01H13.01C13.01 16.4477 12.5623 16 12.01 16V17ZM12 17H12.01V16H12V17Z" fill="white"/>
</svg>
